<svg version="1.1" xmlns="http://www.w3.org/2000/svg" xmlns:xlink="http://www.w3.org/1999/xlink" width="52.09294" height="58.53766" viewBox="0,0,52.09294,58.53766"><g transform="translate(-212.74069,-151.98868)"><g data-paper-data="{&quot;isPaintingLayer&quot;:true}" fill-rule="nonzero" stroke="#000000" stroke-width="2" stroke-linejoin="miter" stroke-miterlimit="10" stroke-dasharray="" stroke-dashoffset="0" style="mix-blend-mode: normal"><path d="M224.57952,209.52633v-56.53764h28.70824v56.53765z" fill="#000000" stroke-linecap="butt"/><path d="M224.28657,182.2828c0,2.58859 -2.36078,4.68706 -5.27294,4.68706c-2.91216,0 -5.27294,-2.09847 -5.27294,-4.68706c0,-2.58859 2.36078,-4.68706 5.27294,-4.68706c2.91216,0 5.27294,2.09847 5.27294,4.68706z" fill="#ffd499" stroke-linecap="butt"/><path d="M224.57952,209.52634v-7.0672h28.70824v7.0672z" fill="#ffffff" stroke-linecap="butt"/><path d="M240.62358,195.17371v13.30298" fill="none" stroke-linecap="round"/><path d="M234.99954,202.03305v-44.0661h16.2367v44.06611z" fill="#0008ff" stroke-linecap="butt"/><path d="M263.83363,182.28279c0,2.58859 -2.36077,4.68706 -5.27294,4.68706c-2.91216,0 -5.27294,-2.09847 -5.27294,-4.68706c0,-2.58859 2.36078,-4.68705 5.27294,-4.68705c2.91217,0 5.27294,2.09846 5.27294,4.68705z" fill="#ffd499" stroke-linecap="butt"/><path d="M224.57952,179.64632v-26.65764h28.70824v26.65765z" fill="#ffd499" stroke-linecap="butt"/><path d="M238.34775,170.27218v-7.03059" fill="#ffd499" stroke-linecap="round"/><path d="M247.74187,163.26161v7.03059" fill="#ffd499" stroke-linecap="round"/><path d="M224.57954,160.97046v-7.98178h28.70824v7.98178z" fill="#5f2c18" stroke-linecap="butt"/><path d="M238.36545,190.57341l2.78104,-4.49353h3.75684l3.09818,5.00595" fill="none" stroke-linecap="round"/><path d="M239.82916,188.6814h6.34272" fill="none" stroke-linecap="round"/><path d="M236.80417,191.28292c0,-1.08847 0.5461,-1.97085 1.21975,-1.97085c0.67365,0 1.21975,0.88238 1.21975,1.97085c0,1.08847 -0.5461,1.97085 -1.21975,1.97085c-0.67365,0 -1.21975,-0.88238 -1.21975,-1.97085z" fill="#000000" stroke-linecap="butt"/><path d="M247.05544,191.29155c0,-1.08847 0.5461,-1.97085 1.21975,-1.97085c0.67365,0 1.21975,0.88238 1.21975,1.97085c0,1.08847 -0.5461,1.97085 -1.21975,1.97085c-0.67365,0 -1.21975,-0.88238 -1.21975,-1.97085z" fill="#000000" stroke-linecap="butt"/><path d="M248.86833,183.12827l-3.5336,3.5336l-3.84539,-3.84539" fill="none" stroke-linecap="round"/><path d="M248.10652,173.03673c0,0 -3.67809,3.5336 -5.40434,3.5336c-1.58792,0 -4.5729,-3.5336 -4.5729,-3.5336" fill="none" stroke-linecap="round"/></g></g></svg>