<svg version="1.1" xmlns="http://www.w3.org/2000/svg" xmlns:xlink="http://www.w3.org/1999/xlink" width="594.71681" height="127.49074" viewBox="0,0,594.71681,127.49074"><defs><linearGradient x1="182.45925" y1="33.51366" x2="182.45925" y2="118.38396" gradientUnits="userSpaceOnUse" id="color-1"><stop offset="0" stop-color="#bebebe"/><stop offset="1" stop-color="#8c8c8c"/></linearGradient><radialGradient cx="264.37955" cy="75.86276" r="80.0417" gradientUnits="userSpaceOnUse" id="color-2"><stop offset="0" stop-color="#bdbdbd"/><stop offset="1" stop-color="#8c8c8c"/></radialGradient><linearGradient x1="78.40803" y1="33.51366" x2="78.40803" y2="118.38396" gradientUnits="userSpaceOnUse" id="color-3"><stop offset="0" stop-color="#bebebe"/><stop offset="1" stop-color="#8c8c8c"/></linearGradient><radialGradient cx="160.32833" cy="75.86276" r="80.0417" gradientUnits="userSpaceOnUse" id="color-4"><stop offset="0" stop-color="#bdbdbd"/><stop offset="1" stop-color="#8c8c8c"/></radialGradient><linearGradient x1="265.70021" y1="33.51366" x2="265.70021" y2="118.38396" gradientUnits="userSpaceOnUse" id="color-5"><stop offset="0" stop-color="#bebebe"/><stop offset="1" stop-color="#8c8c8c"/></linearGradient><radialGradient cx="347.62051" cy="75.86276" r="80.0417" gradientUnits="userSpaceOnUse" id="color-6"><stop offset="0" stop-color="#bdbdbd"/><stop offset="1" stop-color="#8c8c8c"/></radialGradient><linearGradient x1="-4.83293" y1="33.51366" x2="-4.83293" y2="118.38396" gradientUnits="userSpaceOnUse" id="color-7"><stop offset="0" stop-color="#bebebe"/><stop offset="1" stop-color="#8c8c8c"/></linearGradient><radialGradient cx="77.08737" cy="75.86276" r="80.0417" gradientUnits="userSpaceOnUse" id="color-8"><stop offset="0" stop-color="#bdbdbd"/><stop offset="1" stop-color="#8c8c8c"/></radialGradient><linearGradient x1="-77.66878" y1="33.51366" x2="-77.66878" y2="118.38396" gradientUnits="userSpaceOnUse" id="color-9"><stop offset="0" stop-color="#bebebe"/><stop offset="1" stop-color="#8c8c8c"/></linearGradient><radialGradient cx="4.25152" cy="75.86276" r="80.0417" gradientUnits="userSpaceOnUse" id="color-10"><stop offset="0" stop-color="#bdbdbd"/><stop offset="1" stop-color="#8c8c8c"/></radialGradient><linearGradient x1="348.94118" y1="33.51366" x2="348.94118" y2="118.38396" gradientUnits="userSpaceOnUse" id="color-11"><stop offset="0" stop-color="#bebebe"/><stop offset="1" stop-color="#8c8c8c"/></linearGradient><radialGradient cx="430.86148" cy="75.86276" r="80.0417" gradientUnits="userSpaceOnUse" id="color-12"><stop offset="0" stop-color="#bdbdbd"/><stop offset="1" stop-color="#8c8c8c"/></radialGradient><linearGradient x1="140.83876" y1="-8.10683" x2="140.83876" y2="76.76347" gradientUnits="userSpaceOnUse" id="color-13"><stop offset="0" stop-color="#bebebe"/><stop offset="1" stop-color="#8c8c8c"/></linearGradient><radialGradient cx="222.75906" cy="34.24227" r="80.0417" gradientUnits="userSpaceOnUse" id="color-14"><stop offset="0" stop-color="#bdbdbd"/><stop offset="1" stop-color="#8c8c8c"/></radialGradient><linearGradient x1="36.78755" y1="-8.10683" x2="36.78755" y2="76.76347" gradientUnits="userSpaceOnUse" id="color-15"><stop offset="0" stop-color="#bebebe"/><stop offset="1" stop-color="#8c8c8c"/></linearGradient><radialGradient cx="118.70785" cy="34.24227" r="80.0417" gradientUnits="userSpaceOnUse" id="color-16"><stop offset="0" stop-color="#bdbdbd"/><stop offset="1" stop-color="#8c8c8c"/></radialGradient><linearGradient x1="224.07973" y1="-8.10683" x2="224.07973" y2="76.76347" gradientUnits="userSpaceOnUse" id="color-17"><stop offset="0" stop-color="#bebebe"/><stop offset="1" stop-color="#8c8c8c"/></linearGradient><radialGradient cx="306.00003" cy="34.24227" r="80.0417" gradientUnits="userSpaceOnUse" id="color-18"><stop offset="0" stop-color="#bdbdbd"/><stop offset="1" stop-color="#8c8c8c"/></radialGradient><linearGradient x1="-46.45342" y1="-8.10683" x2="-46.45342" y2="76.76347" gradientUnits="userSpaceOnUse" id="color-19"><stop offset="0" stop-color="#bebebe"/><stop offset="1" stop-color="#8c8c8c"/></linearGradient><radialGradient cx="35.46688" cy="34.24227" r="80.0417" gradientUnits="userSpaceOnUse" id="color-20"><stop offset="0" stop-color="#bdbdbd"/><stop offset="1" stop-color="#8c8c8c"/></radialGradient><linearGradient x1="307.3207" y1="-8.10683" x2="307.3207" y2="76.76347" gradientUnits="userSpaceOnUse" id="color-21"><stop offset="0" stop-color="#bebebe"/><stop offset="1" stop-color="#8c8c8c"/></linearGradient><radialGradient cx="389.241" cy="34.24227" r="80.0417" gradientUnits="userSpaceOnUse" id="color-22"><stop offset="0" stop-color="#bdbdbd"/><stop offset="1" stop-color="#8c8c8c"/></radialGradient><linearGradient x1="380.15655" y1="-8.10683" x2="380.15655" y2="76.76347" gradientUnits="userSpaceOnUse" id="color-23"><stop offset="0" stop-color="#bebebe"/><stop offset="1" stop-color="#8c8c8c"/></linearGradient><radialGradient cx="462.07685" cy="34.24227" r="80.0417" gradientUnits="userSpaceOnUse" id="color-24"><stop offset="0" stop-color="#bdbdbd"/><stop offset="1" stop-color="#8c8c8c"/></radialGradient></defs><g transform="translate(78.16876,8.60682)"><g data-paper-data="{&quot;isPaintingLayer&quot;:true}" fill-rule="nonzero" stroke="#ffea00" stroke-width="1" stroke-linecap="round" stroke-linejoin="miter" stroke-miterlimit="10" stroke-dasharray="" stroke-dashoffset="0" style="mix-blend-mode: normal"><path d="M252.35075,36.17536c11.9314,-2.9624 25.5788,-4.3515 37.3805,0.6931c4.1469,2.0143 -1.3854,12.1991 1.4602,16.4965c1.5688,2.3677 5.5335,-3.7886 7.5345,-1.4556c8.0064,8.0625 19.5734,16.9401 19.6248,29.666c0.0537,13.078 -9.2541,26.5067 -19.3433,32.0947c-14.1275,7.8088 -31.2092,3.8163 -46.7736,2.7004c-14.5445,-1.0425 -28.6743,-6.1273 -43.046,-9.0107c-7.128,-1.1118 -15.1858,1.1492 -21.4938,-2.9804c-3.8397,-2.5133 -6.0334,-9.2298 -4.9646,-14.4865c1.5583,-6.1092 11.2259,-5.8333 12.9664,-11.9911c1.7791,-6.3033 -6.1222,-13.7836 -3.9717,-20.5166c1.6284,-4.5705 7.9854,-4.2143 12.4991,-4.9906c7.7355,-1.3183 15.9615,2.3788 23.4797,0c9.0542,-2.9042 15.4615,-13.9388 24.6478,-16.2192z" fill="url(#color-1)"/><path d="M254.51485,43.05776c5.1579,-1.8207 10.8492,-2.0078 14.7291,1.2996c3.2744,2.3705 1.14,8.576 2.6283,12.476c1.1466,3.0112 2.7859,6.8294 5.366,9.0322c2.4049,1.5855 5.469,1.1813 8.4871,1.4945c4.8108,0.4614 10.34,-3.0085 14.5101,-0.4549c6.8784,4.0262 16.7234,9.821 16.1528,18.7141c-0.7972,12.411 -13.3811,19.1897 -19.6571,29.2407c-1.3382,2.5823 3.6774,0.6524 1.5233,0.8473c-8.6097,0.7759 -15.9119,2.5849 -24.0277,2.2067c-9.9907,-0.733 -19.5783,-2.1612 -30.0059,-5.5232c-7.5114,-2.5082 -13.2234,-10.5748 -20.9713,-12.4761c-7.8377,-1.9246 -16.8384,3.5596 -24.0376,0.4549c-3.3335,-1.4503 -6.4173,-7.9769 -4.4899,-11.5013c2.6775,-4.8033 11.6968,-0.6992 15.0029,-5.4583c2.1059,-3.1606 -2.3139,-7.5532 -1.9712,-11.5013c-0.4489,-4.6318 -1.9591,-11.708 1.6427,-13.6457c6.6692,-3.5947 14.9635,2.2301 22.0116,0c8.4882,-2.7226 14.6788,-12.2109 23.1068,-15.2052z" fill="url(#color-2)"/><path d="M148.29953,36.17536c11.9314,-2.9624 25.5788,-4.3515 37.3805,0.6931c4.1469,2.0143 -1.3854,12.1991 1.4602,16.4965c1.5688,2.3677 5.5335,-3.7886 7.5345,-1.4556c8.0064,8.0625 19.5734,16.9401 19.6248,29.666c0.0537,13.078 -9.2541,26.5067 -19.3433,32.0947c-14.1275,7.8088 -31.2092,3.8163 -46.7736,2.7004c-14.5445,-1.0425 -28.6743,-6.1273 -43.046,-9.0107c-7.128,-1.1118 -15.1858,1.1492 -21.4938,-2.9804c-3.8397,-2.5133 -6.0334,-9.2298 -4.9646,-14.4865c1.5583,-6.1092 11.2259,-5.8333 12.9664,-11.9911c1.7791,-6.3033 -6.1222,-13.7836 -3.9717,-20.5166c1.6284,-4.5705 7.9854,-4.2143 12.4991,-4.9906c7.7355,-1.3183 15.9615,2.3788 23.4797,0c9.0542,-2.9042 15.4615,-13.9388 24.6478,-16.2192z" fill="url(#color-3)"/><path d="M150.46363,43.05776c5.1579,-1.8207 10.8492,-2.0078 14.7291,1.2996c3.2744,2.3705 1.14,8.576 2.6283,12.476c1.1466,3.0112 2.7859,6.8294 5.366,9.0322c2.4049,1.5855 5.469,1.1813 8.4871,1.4945c4.8108,0.4614 10.34,-3.0085 14.5101,-0.4549c6.8784,4.0262 16.7234,9.821 16.1528,18.7141c-0.7972,12.411 -13.3811,19.1897 -19.6571,29.2407c-1.3382,2.5823 3.6774,0.6524 1.5233,0.8473c-8.6097,0.7759 -15.9119,2.5849 -24.0277,2.2067c-9.9907,-0.733 -19.5783,-2.1612 -30.0059,-5.5232c-7.5114,-2.5082 -13.2234,-10.5748 -20.9713,-12.4761c-7.8377,-1.9246 -16.8384,3.5596 -24.0376,0.4549c-3.3335,-1.4503 -6.4173,-7.9769 -4.4899,-11.5013c2.6775,-4.8033 11.6968,-0.6992 15.0029,-5.4583c2.1059,-3.1606 -2.3139,-7.5532 -1.9712,-11.5013c-0.4489,-4.6318 -1.9591,-11.708 1.6427,-13.6457c6.6692,-3.5947 14.9635,2.2301 22.0116,0c8.4882,-2.7226 14.6788,-12.2109 23.1068,-15.2052z" fill="url(#color-4)"/><path d="M335.59171,36.17536c11.9314,-2.9624 25.5788,-4.3515 37.3805,0.6931c4.1469,2.0143 -1.3854,12.1991 1.4602,16.4965c1.5688,2.3677 5.5335,-3.7886 7.5345,-1.4556c8.0064,8.0625 19.5734,16.9401 19.6248,29.666c0.0537,13.078 -9.2541,26.5067 -19.3433,32.0947c-14.1275,7.8088 -31.2092,3.8163 -46.7736,2.7004c-14.5445,-1.0425 -28.6743,-6.1273 -43.046,-9.0107c-7.128,-1.1118 -15.1858,1.1492 -21.4938,-2.9804c-3.8397,-2.5133 -6.0334,-9.2298 -4.9646,-14.4865c1.5583,-6.1092 11.2259,-5.8333 12.9664,-11.9911c1.7791,-6.3033 -6.1222,-13.7836 -3.9717,-20.5166c1.6284,-4.5705 7.9854,-4.2143 12.4991,-4.9906c7.7355,-1.3183 15.9615,2.3788 23.4797,0c9.0542,-2.9042 15.4615,-13.9388 24.6478,-16.2192z" fill="url(#color-5)"/><path d="M337.75581,43.05776c5.1579,-1.8207 10.8492,-2.0078 14.7291,1.2996c3.2744,2.3705 1.14,8.576 2.6283,12.476c1.1466,3.0112 2.7859,6.8294 5.366,9.0322c2.4049,1.5855 5.469,1.1813 8.4871,1.4945c4.8108,0.4614 10.34,-3.0085 14.5101,-0.4549c6.8784,4.0262 16.7234,9.821 16.1528,18.7141c-0.7972,12.411 -13.3811,19.1897 -19.6571,29.2407c-1.3382,2.5823 3.6774,0.6524 1.5233,0.8473c-8.6097,0.7759 -15.9119,2.5849 -24.0277,2.2067c-9.9907,-0.733 -19.5783,-2.1612 -30.0059,-5.5232c-7.5114,-2.5082 -13.2234,-10.5748 -20.9713,-12.4761c-7.8377,-1.9246 -16.8384,3.5596 -24.0376,0.4549c-3.3335,-1.4503 -6.4173,-7.9769 -4.4899,-11.5013c2.6775,-4.8033 11.6968,-0.6992 15.0029,-5.4583c2.1059,-3.1606 -2.3139,-7.5532 -1.9712,-11.5013c-0.4489,-4.6318 -1.9591,-11.708 1.6427,-13.6457c6.6692,-3.5947 14.9635,2.2301 22.0116,0c8.4882,-2.7226 14.6788,-12.2109 23.1068,-15.2052z" fill="url(#color-6)"/><path d="M65.05857,36.17536c11.9314,-2.9624 25.5788,-4.3515 37.3805,0.6931c4.1469,2.0143 -1.3854,12.1991 1.4602,16.4965c1.5688,2.3677 5.5335,-3.7886 7.5345,-1.4556c8.0064,8.0625 19.5734,16.9401 19.6248,29.666c0.0537,13.078 -9.2541,26.5067 -19.3433,32.0947c-14.1275,7.8088 -31.2092,3.8163 -46.7736,2.7004c-14.5445,-1.0425 -28.6743,-6.1273 -43.046,-9.0107c-7.128,-1.1118 -15.1858,1.1492 -21.4938,-2.9804c-3.8397,-2.5133 -6.0334,-9.2298 -4.9646,-14.4865c1.5583,-6.1092 11.2259,-5.8333 12.9664,-11.9911c1.7791,-6.3033 -6.1222,-13.7836 -3.9717,-20.5166c1.6284,-4.5705 7.9854,-4.2143 12.4991,-4.9906c7.7355,-1.3183 15.9615,2.3788 23.4797,0c9.0542,-2.9042 15.4615,-13.9388 24.6478,-16.2192z" fill="url(#color-7)"/><path d="M67.22267,43.05776c5.1579,-1.8207 10.8492,-2.0078 14.7291,1.2996c3.2744,2.3705 1.14,8.576 2.6283,12.476c1.1466,3.0112 2.7859,6.8294 5.366,9.0322c2.4049,1.5855 5.469,1.1813 8.4871,1.4945c4.8108,0.4614 10.34,-3.0085 14.5101,-0.4549c6.8784,4.0262 16.7234,9.821 16.1528,18.7141c-0.7972,12.411 -13.3811,19.1897 -19.6571,29.2407c-1.3382,2.5823 3.6774,0.6524 1.5233,0.8473c-8.6097,0.7759 -15.9119,2.5849 -24.0277,2.2067c-9.9907,-0.733 -19.5783,-2.1612 -30.0059,-5.5232c-7.5114,-2.5082 -13.2234,-10.5748 -20.9713,-12.4761c-7.8377,-1.9246 -16.8384,3.5596 -24.0376,0.4549c-3.3335,-1.4503 -6.4173,-7.9769 -4.4899,-11.5013c2.6775,-4.8033 11.6968,-0.6992 15.0029,-5.4583c2.1059,-3.1606 -2.3139,-7.5532 -1.9712,-11.5013c-0.4489,-4.6318 -1.9591,-11.708 1.6427,-13.6457c6.6692,-3.5947 14.9635,2.2301 22.0116,0c8.4882,-2.7226 14.6788,-12.2109 23.1068,-15.2052z" fill="url(#color-8)"/><path d="M-7.77728,36.17536c11.9314,-2.9624 25.5788,-4.3515 37.3805,0.6931c4.1469,2.0143 -1.3854,12.1991 1.4602,16.4965c1.5688,2.3677 5.5335,-3.7886 7.5345,-1.4556c8.0064,8.0625 19.5734,16.9401 19.6248,29.666c0.0537,13.078 -9.2541,26.5067 -19.3433,32.0947c-14.1275,7.8088 -31.2092,3.8163 -46.7736,2.7004c-14.5445,-1.0425 -28.6743,-6.1273 -43.046,-9.0107c-7.128,-1.1118 -15.1858,1.1492 -21.4938,-2.9804c-3.8397,-2.5133 -6.0334,-9.2298 -4.9646,-14.4865c1.5583,-6.1092 11.2259,-5.8333 12.9664,-11.9911c1.7791,-6.3033 -6.1222,-13.7836 -3.9717,-20.5166c1.6284,-4.5705 7.9854,-4.2143 12.4991,-4.9906c7.7355,-1.3183 15.9615,2.3788 23.4797,0c9.0542,-2.9042 15.4615,-13.9388 24.6478,-16.2192z" fill="url(#color-9)"/><path d="M-5.61318,43.05776c5.1579,-1.8207 10.8492,-2.0078 14.7291,1.2996c3.2744,2.3705 1.14,8.576 2.6283,12.476c1.1466,3.0112 2.7859,6.8294 5.366,9.0322c2.4049,1.5855 5.469,1.1813 8.4871,1.4945c4.8108,0.4614 10.34,-3.0085 14.5101,-0.4549c6.8784,4.0262 16.7234,9.821 16.1528,18.7141c-0.7972,12.411 -13.3811,19.1897 -19.6571,29.2407c-1.3382,2.5823 3.6774,0.6524 1.5233,0.8473c-8.6097,0.7759 -15.9119,2.5849 -24.0277,2.2067c-9.9907,-0.733 -19.5783,-2.1612 -30.0059,-5.5232c-7.5114,-2.5082 -13.2234,-10.5748 -20.9713,-12.4761c-7.8377,-1.9246 -16.8384,3.5596 -24.0376,0.4549c-3.3335,-1.4503 -6.4173,-7.9769 -4.4899,-11.5013c2.6775,-4.8033 11.6968,-0.6992 15.0029,-5.4583c2.1059,-3.1606 -2.3139,-7.5532 -1.9712,-11.5013c-0.4489,-4.6318 -1.9591,-11.708 1.6427,-13.6457c6.6692,-3.5947 14.9635,2.2301 22.0116,0c8.4882,-2.7226 14.6788,-12.2109 23.1068,-15.2052z" fill="url(#color-10)"/><path d="M418.83268,36.17536c11.9314,-2.9624 25.5788,-4.3515 37.3805,0.6931c4.1469,2.0143 -1.3854,12.1991 1.4602,16.4965c1.5688,2.3677 5.5335,-3.7886 7.5345,-1.4556c8.0064,8.0625 19.5734,16.9401 19.6248,29.666c0.0537,13.078 -9.2541,26.5067 -19.3433,32.0947c-14.1275,7.8088 -31.2092,3.8163 -46.7736,2.7004c-14.5445,-1.0425 -28.6743,-6.1273 -43.046,-9.0107c-7.128,-1.1118 -15.1858,1.1492 -21.4938,-2.9804c-3.8397,-2.5133 -6.0334,-9.2298 -4.9646,-14.4865c1.5583,-6.1092 11.2259,-5.8333 12.9664,-11.9911c1.7791,-6.3033 -6.1222,-13.7836 -3.9717,-20.5166c1.6284,-4.5705 7.9854,-4.2143 12.4991,-4.9906c7.7355,-1.3183 15.9615,2.3788 23.4797,0c9.0542,-2.9042 15.4615,-13.9388 24.6478,-16.2192z" fill="url(#color-11)"/><path d="M420.99678,43.05776c5.1579,-1.8207 10.8492,-2.0078 14.7291,1.2996c3.2744,2.3705 1.14,8.576 2.6283,12.476c1.1466,3.0112 2.7859,6.8294 5.366,9.0322c2.4049,1.5855 5.469,1.1813 8.4871,1.4945c4.8108,0.4614 10.34,-3.0085 14.5101,-0.4549c6.8784,4.0262 16.7234,9.821 16.1528,18.7141c-0.7972,12.411 -13.3811,19.1897 -19.6571,29.2407c-1.3382,2.5823 3.6774,0.6524 1.5233,0.8473c-8.6097,0.7759 -15.9119,2.5849 -24.0277,2.2067c-9.9907,-0.733 -19.5783,-2.1612 -30.0059,-5.5232c-7.5114,-2.5082 -13.2234,-10.5748 -20.9713,-12.4761c-7.8377,-1.9246 -16.8384,3.5596 -24.0376,0.4549c-3.3335,-1.4503 -6.4173,-7.9769 -4.4899,-11.5013c2.6775,-4.8033 11.6968,-0.6992 15.0029,-5.4583c2.1059,-3.1606 -2.3139,-7.5532 -1.9712,-11.5013c-0.4489,-4.6318 -1.9591,-11.708 1.6427,-13.6457c6.6692,-3.5947 14.9635,2.2301 22.0116,0c8.4882,-2.7226 14.6788,-12.2109 23.1068,-15.2052z" fill="url(#color-12)"/><path d="M210.73026,-5.44513c11.9314,-2.9624 25.5788,-4.3515 37.3805,0.6931c4.1469,2.0143 -1.3854,12.1991 1.4602,16.4965c1.5688,2.3677 5.5335,-3.7886 7.5345,-1.4556c8.0064,8.0625 19.5734,16.9401 19.6248,29.666c0.0537,13.078 -9.2541,26.5067 -19.3433,32.0947c-14.1275,7.8088 -31.2092,3.8163 -46.7736,2.7004c-14.5445,-1.0425 -28.6743,-6.1273 -43.046,-9.0107c-7.128,-1.1118 -15.1858,1.1492 -21.4938,-2.9804c-3.8397,-2.5133 -6.0334,-9.2298 -4.9646,-14.4865c1.5583,-6.1092 11.2259,-5.8333 12.9664,-11.9911c1.7791,-6.3033 -6.1222,-13.7836 -3.9717,-20.5166c1.6284,-4.5705 7.9854,-4.2143 12.4991,-4.9906c7.7355,-1.3183 15.9615,2.3788 23.4797,0c9.0542,-2.9042 15.4615,-13.9388 24.6478,-16.2192z" fill="url(#color-13)"/><path d="M212.89436,1.43727c5.1579,-1.8207 10.8492,-2.0078 14.7291,1.2996c3.2744,2.3705 1.14,8.576 2.6283,12.476c1.1466,3.0112 2.7859,6.8294 5.366,9.0322c2.4049,1.5855 5.469,1.1813 8.4871,1.4945c4.8108,0.4614 10.34,-3.0085 14.5101,-0.4549c6.8784,4.0262 16.7234,9.821 16.1528,18.7141c-0.7972,12.411 -13.3811,19.1897 -19.6571,29.2407c-1.3382,2.5823 3.6774,0.6524 1.5233,0.8473c-8.6097,0.7759 -15.9119,2.5849 -24.0277,2.2067c-9.9907,-0.733 -19.5783,-2.1612 -30.0059,-5.5232c-7.5114,-2.5082 -13.2234,-10.5748 -20.9713,-12.4761c-7.8377,-1.9246 -16.8384,3.5596 -24.0376,0.4549c-3.3335,-1.4503 -6.4173,-7.9769 -4.4899,-11.5013c2.6775,-4.8033 11.6968,-0.6992 15.0029,-5.4583c2.1059,-3.1606 -2.3139,-7.5532 -1.9712,-11.5013c-0.4489,-4.6318 -1.9591,-11.708 1.6427,-13.6457c6.6692,-3.5947 14.9635,2.2301 22.0116,0c8.4882,-2.7226 14.6788,-12.2109 23.1068,-15.2052z" fill="url(#color-14)"/><path d="M106.67905,-5.44513c11.9314,-2.9624 25.5788,-4.3515 37.3805,0.6931c4.1469,2.0143 -1.3854,12.1991 1.4602,16.4965c1.5688,2.3677 5.5335,-3.7886 7.5345,-1.4556c8.0064,8.0625 19.5734,16.9401 19.6248,29.666c0.0537,13.078 -9.2541,26.5067 -19.3433,32.0947c-14.1275,7.8088 -31.2092,3.8163 -46.7736,2.7004c-14.5445,-1.0425 -28.6743,-6.1273 -43.046,-9.0107c-7.128,-1.1118 -15.1858,1.1492 -21.4938,-2.9804c-3.8397,-2.5133 -6.0334,-9.2298 -4.9646,-14.4865c1.5583,-6.1092 11.2259,-5.8333 12.9664,-11.9911c1.7791,-6.3033 -6.1222,-13.7836 -3.9717,-20.5166c1.6284,-4.5705 7.9854,-4.2143 12.4991,-4.9906c7.7355,-1.3183 15.9615,2.3788 23.4797,0c9.0542,-2.9042 15.4615,-13.9388 24.6478,-16.2192z" fill="url(#color-15)"/><path d="M108.84315,1.43727c5.1579,-1.8207 10.8492,-2.0078 14.7291,1.2996c3.2744,2.3705 1.14,8.576 2.6283,12.476c1.1466,3.0112 2.7859,6.8294 5.366,9.0322c2.4049,1.5855 5.469,1.1813 8.4871,1.4945c4.8108,0.4614 10.34,-3.0085 14.5101,-0.4549c6.8784,4.0262 16.7234,9.821 16.1528,18.7141c-0.7972,12.411 -13.3811,19.1897 -19.6571,29.2407c-1.3382,2.5823 3.6774,0.6524 1.5233,0.8473c-8.6097,0.7759 -15.9119,2.5849 -24.0277,2.2067c-9.9907,-0.733 -19.5783,-2.1612 -30.0059,-5.5232c-7.5114,-2.5082 -13.2234,-10.5748 -20.9713,-12.4761c-7.8377,-1.9246 -16.8384,3.5596 -24.0376,0.4549c-3.3335,-1.4503 -6.4173,-7.9769 -4.4899,-11.5013c2.6775,-4.8033 11.6968,-0.6992 15.0029,-5.4583c2.1059,-3.1606 -2.3139,-7.5532 -1.9712,-11.5013c-0.4489,-4.6318 -1.9591,-11.708 1.6427,-13.6457c6.6692,-3.5947 14.9635,2.2301 22.0116,0c8.4882,-2.7226 14.6788,-12.2109 23.1068,-15.2052z" fill="url(#color-16)"/><path d="M293.97123,-5.44513c11.9314,-2.9624 25.5788,-4.3515 37.3805,0.6931c4.1469,2.0143 -1.3854,12.1991 1.4602,16.4965c1.5688,2.3677 5.5335,-3.7886 7.5345,-1.4556c8.0064,8.0625 19.5734,16.9401 19.6248,29.666c0.0537,13.078 -9.2541,26.5067 -19.3433,32.0947c-14.1275,7.8088 -31.2092,3.8163 -46.7736,2.7004c-14.5445,-1.0425 -28.6743,-6.1273 -43.046,-9.0107c-7.128,-1.1118 -15.1858,1.1492 -21.4938,-2.9804c-3.8397,-2.5133 -6.0334,-9.2298 -4.9646,-14.4865c1.5583,-6.1092 11.2259,-5.8333 12.9664,-11.9911c1.7791,-6.3033 -6.1222,-13.7836 -3.9717,-20.5166c1.6284,-4.5705 7.9854,-4.2143 12.4991,-4.9906c7.7355,-1.3183 15.9615,2.3788 23.4797,0c9.0542,-2.9042 15.4615,-13.9388 24.6478,-16.2192z" fill="url(#color-17)"/><path d="M296.13533,1.43727c5.1579,-1.8207 10.8492,-2.0078 14.7291,1.2996c3.2744,2.3705 1.14,8.576 2.6283,12.476c1.1466,3.0112 2.7859,6.8294 5.366,9.0322c2.4049,1.5855 5.469,1.1813 8.4871,1.4945c4.8108,0.4614 10.34,-3.0085 14.5101,-0.4549c6.8784,4.0262 16.7234,9.821 16.1528,18.7141c-0.7972,12.411 -13.3811,19.1897 -19.6571,29.2407c-1.3382,2.5823 3.6774,0.6524 1.5233,0.8473c-8.6097,0.7759 -15.9119,2.5849 -24.0277,2.2067c-9.9907,-0.733 -19.5783,-2.1612 -30.0059,-5.5232c-7.5114,-2.5082 -13.2234,-10.5748 -20.9713,-12.4761c-7.8377,-1.9246 -16.8384,3.5596 -24.0376,0.4549c-3.3335,-1.4503 -6.4173,-7.9769 -4.4899,-11.5013c2.6775,-4.8033 11.6968,-0.6992 15.0029,-5.4583c2.1059,-3.1606 -2.3139,-7.5532 -1.9712,-11.5013c-0.4489,-4.6318 -1.9591,-11.708 1.6427,-13.6457c6.6692,-3.5947 14.9635,2.2301 22.0116,0c8.4882,-2.7226 14.6788,-12.2109 23.1068,-15.2052z" fill="url(#color-18)"/><path d="M23.43808,-5.44513c11.9314,-2.9624 25.5788,-4.3515 37.3805,0.6931c4.1469,2.0143 -1.3854,12.1991 1.4602,16.4965c1.5688,2.3677 5.5335,-3.7886 7.5345,-1.4556c8.0064,8.0625 19.5734,16.9401 19.6248,29.666c0.0537,13.078 -9.2541,26.5067 -19.3433,32.0947c-14.1275,7.8088 -31.2092,3.8163 -46.7736,2.7004c-14.5445,-1.0425 -28.6743,-6.1273 -43.046,-9.0107c-7.128,-1.1118 -15.1858,1.1492 -21.4938,-2.9804c-3.8397,-2.5133 -6.0334,-9.2298 -4.9646,-14.4865c1.5583,-6.1092 11.2259,-5.8333 12.9664,-11.9911c1.7791,-6.3033 -6.1222,-13.7836 -3.9717,-20.5166c1.6284,-4.5705 7.9854,-4.2143 12.4991,-4.9906c7.7355,-1.3183 15.9615,2.3788 23.4797,0c9.0542,-2.9042 15.4615,-13.9388 24.6478,-16.2192z" fill="url(#color-19)"/><path d="M25.60218,1.43727c5.1579,-1.8207 10.8492,-2.0078 14.7291,1.2996c3.2744,2.3705 1.14,8.576 2.6283,12.476c1.1466,3.0112 2.7859,6.8294 5.366,9.0322c2.4049,1.5855 5.469,1.1813 8.4871,1.4945c4.8108,0.4614 10.34,-3.0085 14.5101,-0.4549c6.8784,4.0262 16.7234,9.821 16.1528,18.7141c-0.7972,12.411 -13.3811,19.1897 -19.6571,29.2407c-1.3382,2.5823 3.6774,0.6524 1.5233,0.8473c-8.6097,0.7759 -15.9119,2.5849 -24.0277,2.2067c-9.9907,-0.733 -19.5783,-2.1612 -30.0059,-5.5232c-7.5114,-2.5082 -13.2234,-10.5748 -20.9713,-12.4761c-7.8377,-1.9246 -16.8384,3.5596 -24.0376,0.4549c-3.3335,-1.4503 -6.4173,-7.9769 -4.4899,-11.5013c2.6775,-4.8033 11.6968,-0.6992 15.0029,-5.4583c2.1059,-3.1606 -2.3139,-7.5532 -1.9712,-11.5013c-0.4489,-4.6318 -1.9591,-11.708 1.6427,-13.6457c6.6692,-3.5947 14.9635,2.2301 22.0116,0c8.4882,-2.7226 14.6788,-12.2109 23.1068,-15.2052z" fill="url(#color-20)"/><path d="M377.2122,-5.44513c11.9314,-2.9624 25.5788,-4.3515 37.3805,0.6931c4.1469,2.0143 -1.3854,12.1991 1.4602,16.4965c1.5688,2.3677 5.5335,-3.7886 7.5345,-1.4556c8.0064,8.0625 19.5734,16.9401 19.6248,29.666c0.0537,13.078 -9.2541,26.5067 -19.3433,32.0947c-14.1275,7.8088 -31.2092,3.8163 -46.7736,2.7004c-14.5445,-1.0425 -28.6743,-6.1273 -43.046,-9.0107c-7.128,-1.1118 -15.1858,1.1492 -21.4938,-2.9804c-3.8397,-2.5133 -6.0334,-9.2298 -4.9646,-14.4865c1.5583,-6.1092 11.2259,-5.8333 12.9664,-11.9911c1.7791,-6.3033 -6.1222,-13.7836 -3.9717,-20.5166c1.6284,-4.5705 7.9854,-4.2143 12.4991,-4.9906c7.7355,-1.3183 15.9615,2.3788 23.4797,0c9.0542,-2.9042 15.4615,-13.9388 24.6478,-16.2192z" fill="url(#color-21)"/><path d="M379.3763,1.43727c5.1579,-1.8207 10.8492,-2.0078 14.7291,1.2996c3.2744,2.3705 1.14,8.576 2.6283,12.476c1.1466,3.0112 2.7859,6.8294 5.366,9.0322c2.4049,1.5855 5.469,1.1813 8.4871,1.4945c4.8108,0.4614 10.34,-3.0085 14.5101,-0.4549c6.8784,4.0262 16.7234,9.821 16.1528,18.7141c-0.7972,12.411 -13.3811,19.1897 -19.6571,29.2407c-1.3382,2.5823 3.6774,0.6524 1.5233,0.8473c-8.6097,0.7759 -15.9119,2.5849 -24.0277,2.2067c-9.9907,-0.733 -19.5783,-2.1612 -30.0059,-5.5232c-7.5114,-2.5082 -13.2234,-10.5748 -20.9713,-12.4761c-7.8377,-1.9246 -16.8384,3.5596 -24.0376,0.4549c-3.3335,-1.4503 -6.4173,-7.9769 -4.4899,-11.5013c2.6775,-4.8033 11.6968,-0.6992 15.0029,-5.4583c2.1059,-3.1606 -2.3139,-7.5532 -1.9712,-11.5013c-0.4489,-4.6318 -1.9591,-11.708 1.6427,-13.6457c6.6692,-3.5947 14.9635,2.2301 22.0116,0c8.4882,-2.7226 14.6788,-12.2109 23.1068,-15.2052z" fill="url(#color-22)"/><path d="M450.04805,-5.44513c11.9314,-2.9624 25.5788,-4.3515 37.3805,0.6931c4.1469,2.0143 -1.3854,12.1991 1.4602,16.4965c1.5688,2.3677 5.5335,-3.7886 7.5345,-1.4556c8.0064,8.0625 19.5734,16.9401 19.6248,29.666c0.0537,13.078 -9.2541,26.5067 -19.3433,32.0947c-14.1275,7.8088 -31.2092,3.8163 -46.7736,2.7004c-14.5445,-1.0425 -28.6743,-6.1273 -43.046,-9.0107c-7.128,-1.1118 -15.1858,1.1492 -21.4938,-2.9804c-3.8397,-2.5133 -6.0334,-9.2298 -4.9646,-14.4865c1.5583,-6.1092 11.2259,-5.8333 12.9664,-11.9911c1.7791,-6.3033 -6.1222,-13.7836 -3.9717,-20.5166c1.6284,-4.5705 7.9854,-4.2143 12.4991,-4.9906c7.7355,-1.3183 15.9615,2.3788 23.4797,0c9.0542,-2.9042 15.4615,-13.9388 24.6478,-16.2192z" fill="url(#color-23)"/><path d="M452.21215,1.43727c5.1579,-1.8207 10.8492,-2.0078 14.7291,1.2996c3.2744,2.3705 1.14,8.576 2.6283,12.476c1.1466,3.0112 2.7859,6.8294 5.366,9.0322c2.4049,1.5855 5.469,1.1813 8.4871,1.4945c4.8108,0.4614 10.34,-3.0085 14.5101,-0.4549c6.8784,4.0262 16.7234,9.821 16.1528,18.7141c-0.7972,12.411 -13.3811,19.1897 -19.6571,29.2407c-1.3382,2.5823 3.6774,0.6524 1.5233,0.8473c-8.6097,0.7759 -15.9119,2.5849 -24.0277,2.2067c-9.9907,-0.733 -19.5783,-2.1612 -30.0059,-5.5232c-7.5114,-2.5082 -13.2234,-10.5748 -20.9713,-12.4761c-7.8377,-1.9246 -16.8384,3.5596 -24.0376,0.4549c-3.3335,-1.4503 -6.4173,-7.9769 -4.4899,-11.5013c2.6775,-4.8033 11.6968,-0.6992 15.0029,-5.4583c2.1059,-3.1606 -2.3139,-7.5532 -1.9712,-11.5013c-0.4489,-4.6318 -1.9591,-11.708 1.6427,-13.6457c6.6692,-3.5947 14.9635,2.2301 22.0116,0c8.4882,-2.7226 14.6788,-12.2109 23.1068,-15.2052z" fill="url(#color-24)"/></g></g></svg>