<svg version="1.1" xmlns="http://www.w3.org/2000/svg" xmlns:xlink="http://www.w3.org/1999/xlink" width="584.25151" height="217.06209" viewBox="0,0,584.25151,217.06209"><defs><linearGradient x1="518.2097" y1="167.99712" x2="518.2097" y2="375.93402" gradientUnits="userSpaceOnUse" id="color-1"><stop offset="0" stop-color="#82c9ff"/><stop offset="1" stop-color="#0091ff"/></linearGradient><linearGradient x1="518.2097" y1="167.99712" x2="518.2097" y2="375.93402" gradientUnits="userSpaceOnUse" id="color-2"><stop offset="0" stop-color="#7dc7ff"/><stop offset="1" stop-color="#0091ff"/></linearGradient></defs><g transform="translate(-66.69443,-163.87193)"><g data-paper-data="{&quot;isPaintingLayer&quot;:true}" fill-rule="nonzero" stroke-linejoin="miter" stroke-miterlimit="10" stroke-dasharray="" stroke-dashoffset="0" style="mix-blend-mode: normal"><path d="M439.19443,375.93402c0,0 69,-34.54117 69,-67c0,-88.12445 -81,-100 -81,-100c0,0 60.34508,-106.25771 168.82665,27.3287c15.82535,19.48766 0.48379,16.63279 20.17335,48.6713c1.09182,1.77659 21,89 21,89" fill="url(#color-1)" stroke="url(#color-2)" stroke-width="10" stroke-linecap="round"/><path d="M66.69443,375.93402c0,-1.38071 1.11929,-2.5 2.5,-2.5c1.38071,0 2.5,1.11929 2.5,2.5c0,1.38071 -1.11929,2.5 -2.5,2.5c-1.38071,0 -2.5,-1.11929 -2.5,-2.5z" fill="#ffffff" stroke="none" stroke-width="0.5" stroke-linecap="butt"/><path d="M636.40861,345.4613c0.17366,0.00979 0.3451,0.02228 0.51356,0.03714c1.05399,-0.54987 2.09485,-1.21235 3.1354,-2.02121c1.00842,-0.78388 2.15191,-1.52049 3.17468,-2.37857c0.07719,-0.29243 0.1614,-0.58211 0.30403,-0.8369c0.26237,-0.46868 1.29741,-1.45158 1.74387,-2.32332c-0.22346,-0.54732 -0.49661,-1.07457 -0.8139,-1.57055c-0.23511,-0.04597 -0.51714,-0.07479 -0.85235,-0.08357c-0.44348,-0.01162 -0.72695,0.44449 -1.06776,0.7748c-0.56023,1.43661 -1.13631,2.89057 -2.15934,4.01597c-1.27915,1.40715 -3.20332,2.05053 -4.81755,3.05578c-0.45239,0.28173 -0.90417,0.56457 -1.35583,0.84768c0.7029,0.10016 1.43239,0.25915 2.19519,0.48275zM643.78817,370.58758c-1.47966,1.27958 -3.65082,1.77828 -5.60652,1.7342c-1.89451,-0.0427 -3.62115,-1.15909 -5.32878,-1.98068c-3.67096,-1.76619 -9.22194,-4.8909 -11.78987,-8.92584c-1.83056,0.38192 -3.66738,0.56339 -5.25346,0.67528c-1.97788,0.13953 -4.02896,0.42123 -6.08876,0.64848c-3.99621,1.65708 -8.08347,3.08647 -12.07215,3.74175c-0.21379,0.03512 -9.94705,0.04256 -10.40475,0.03518c-1.97645,-0.03185 -4.09166,0.55578 -5.92747,-0.17714c-0.95102,-0.37968 -1.7198,-1.05999 -2.43834,-1.8177c-2.71737,0.96133 -5.50075,1.80934 -8.3543,2.6343c-2.63569,0.76198 -5.17952,2.07021 -7.91721,2.25058c-1.02173,0.06732 -9.40277,-0.60088 -10.54653,-0.68734c-0.43465,-0.24914 -2.96354,-1.67494 -5.35169,-3.07307c-2.14643,0.84453 -4.29784,1.6409 -6.24297,2.49944c-0.60386,0.26653 -9.29718,4.12443 -9.6579,4.19366c-1.81984,0.34927 -3.70564,-0.06852 -5.55759,-0.13239c-2.28264,-0.07872 -4.82047,-0.55696 -7.21304,-1.46042c-3.89228,0.43433 -7.76832,0.55945 -11.49602,0.28415c-2.55038,-0.18835 -4.80029,-0.1813 -6.9249,-0.53673c-6.13936,2.66802 -13.49434,5.73714 -19.81885,2.52324c-1.67356,-0.85045 -2.82188,-2.47705 -4.20347,-3.74799c-0.92884,-0.85445 -2.12021,-1.52016 -2.72658,-2.62703c-0.40569,-0.74054 -0.67676,-1.53866 -0.90052,-2.35667c-2.33554,0.92202 -4.6738,1.74068 -6.87879,2.54317c-4.1254,1.5014 -9.28185,3.44204 -13.67534,3.65641c-0.19611,0.00957 -9.90635,-1.28395 -10.37025,-1.3652c-1.94793,-0.34118 -4.35674,0.13164 -5.80759,-1.21219c-0.3157,-0.29241 -1.00101,-2.4256 -1.67218,-4.74362c-2.77884,-2.42845 -2.67642,-5.73895 -3.30357,-9.36079l-0.84101,-3.55366c0,0 -0.57117,-2.43388 1.86271,-3.00505c0.96395,-0.22621 1.63571,0.01894 2.09553,0.39757c0.24534,-0.30721 0.47999,-0.61884 0.68977,-0.94075c0.95299,-1.30071 1.61298,-2.87863 2.85898,-3.90212c0.31645,-0.25994 8.81487,-4.44241 9.48323,-4.76629c1.68511,-0.81658 3.23936,-2.02818 5.07111,-2.41691c1.83174,-0.38873 3.74511,0.06233 5.61564,0.14898c1.42448,0.06598 2.97399,-0.28558 4.30384,0.16289c2.18105,-1.22812 4.63795,-1.97326 7.13087,-2.07175c2.19764,-0.08683 4.6874,-0.10278 6.49774,1.14615c0.66756,0.46054 1.23512,0.96248 1.71143,1.4977c0.64109,-0.89963 1.33587,-1.8113 2.08905,-2.76712c2.30658,-0.5209 4.59523,-1.9966 6.91975,-1.5627c1.66707,0.31118 2.92778,2.00588 3.657,3.53696c0.45096,0.94683 0.74901,1.95533 0.92498,2.99753c0.20353,-0.04083 0.4069,-0.08018 0.61018,-0.11805c2.14581,-1.51993 4.34353,-3.06261 4.54547,-3.20497c1.18833,-0.46579 2.36838,-0.92509 3.54476,-1.3707c1.89093,-3.11235 4.48325,-5.82287 7.05365,-7.34355c1.5435,-0.91316 3.33603,-1.31756 5.00404,-1.97634c5.0185,-1.87475 11.18914,-2.83862 16.47098,-0.61143c3.14157,1.3247 5.23282,4.17685 6.58629,7.46665c3.03402,-0.57814 8.34125,-1.44033 8.86292,-1.13878c1.08106,0.62492 1.90868,1.47033 2.5165,2.4469c1.04105,-0.27276 1.99682,-0.39198 2.97686,-0.43068c1.01733,-0.76346 2.03425,-1.52778 3.22551,-1.92475c1.78274,-0.59406 3.74561,-0.30853 5.61987,-0.44348c0.0623,-0.00449 0.28775,-0.01942 0.63236,-0.04189c0.15499,-0.05363 0.3208,-0.11096 0.49554,-0.17134c0.06606,-0.12631 0.13044,-0.25314 0.19263,-0.38069c0.5596,-1.14783 0.8668,-2.47943 1.73581,-3.4151c3.85018,-4.14548 5.10856,-3.74212 10.17224,-5.05248c1.68665,-0.3971 3.32719,-1.19252 5.05995,-1.1913c1.92193,0.00135 3.80213,0.63596 5.6398,1.19883c1.84956,0.56652 3.79964,1.06029 5.37956,2.17639c1.528,1.07942 2.51508,2.77309 3.6889,4.22983c0.25733,0.31935 0.54886,0.62667 0.85341,0.92995c1.59636,0.46751 3.15049,1.01452 4.42733,2.03403c0.04512,0.03603 0.09015,0.07248 0.13508,0.10935c0.79632,-0.78002 1.68606,-1.49186 2.45587,-2.2883c2.01648,-2.08622 3.5975,-4.82707 6.20029,-6.10927c4.45127,-2.19282 11.66554,-3.46315 16.3912,-1.67589c1.72715,0.65321 3.10165,2.00537 4.62695,3.04613c1.48681,1.0145 3.33781,1.67163 4.40812,3.11878c0.36443,0.49273 0.67177,0.9826 0.93083,1.47157c0.18302,-0.00985 0.42735,-0.02272 0.71943,-0.03783c0.40472,-0.09458 0.79823,-0.18771 1.17594,-0.28199c1.83934,-0.42374 3.6471,-1.52106 5.51801,-1.27121c4.63738,0.6193 6.53731,1.32634 6.94841,2.66334c3.5863,1.90444 6.42191,5.20779 5.56412,9.5904c-0.02391,0.12217 -0.05044,0.24272 -0.07949,0.36171c0.29721,1.39119 0.43543,2.82234 0.22826,4.20937c-0.30118,2.01649 -1.57742,3.76026 -2.36612,5.64039c-0.98616,0.9739 -1.82467,2.14303 -2.81352,3.11339c0.17384,1.15585 0.05083,2.40865 0.08227,3.60721c0.61289,0.24198 2.03174,1.02213 1.55191,2.94151c-0.20319,0.81277 -0.61066,1.28508 -1.06268,1.55384c0.41402,3.75306 0.49644,7.90535 -2.45071,10.45396zM631.94939,364.1913c1.28181,0.7174 2.43255,1.29794 3.14397,1.67988c1.07551,0.5774 3.87901,2.44102 5.41944,0.93858c0.97769,-0.95357 1.09156,-2.92807 0.94158,-4.92219c-2.0141,1.19242 -4.46692,1.76477 -6.59603,2.06337c-0.93286,0.13083 -1.91285,0.21484 -2.90897,0.24037zM629.46975,356.51123c-0.03079,0.05037 -0.06209,0.10028 -0.09387,0.14974c2.56093,-0.32532 5.05167,-0.88248 7.5476,-1.24423c-0.34723,-0.12139 -0.72112,-0.18541 -1.09996,-0.23832c-2.13949,0.48579 -4.24372,0.95175 -6.35377,1.33281zM445.02915,364.69383c2.03902,0.41962 4.07071,0.89698 6.13363,0.79683c3.90921,-0.18978 8.54609,-2.02189 12.21272,-3.36034c2.48058,-0.9055 4.93923,-1.78111 7.33301,-2.7766c-0.10717,-0.50534 -0.19298,-0.99803 -0.259,-1.48113c-1.42524,0.08909 -2.89203,-0.02871 -4.29572,-0.33039c-0.58647,0.31001 -1.16521,0.60211 -1.72849,0.87552c-0.31642,0.61697 -0.94132,1.2262 -2.17545,1.2262c-0.13256,0 -0.25809,-0.00703 -0.37697,-0.02034c-1.22817,0.66933 -2.49118,1.5927 -3.77467,1.24666c-1.15923,-0.31254 -2.09526,-0.64594 -2.85258,-1.00848c-0.9763,0.56651 -2.00309,1.14101 -3.08877,1.76569c-1.62522,0.93513 -3.09062,2.26007 -4.89415,2.77298c-0.72648,0.20661 -1.47549,0.27922 -2.23355,0.2934zM508.38114,366.13148c0.93297,0.04009 1.86811,0.05122 2.80455,0.03631c-0.35375,-0.41818 -0.67823,-0.85898 -0.96899,-1.32266c-0.479,0.32101 -0.92741,0.6298 -1.33151,0.92725c-0.1662,0.12234 -0.33427,0.24198 -0.50405,0.3591zM489.94918,364.27609c-0.72597,0.17169 -1.44374,0.33115 -2.14909,0.47966c-1.62223,0.34155 -3.21823,1.0817 -4.87356,0.99144c-1.89932,-0.10357 -3.70584,-0.82246 -5.53932,-1.36258c0.43788,0.47099 1.10431,0.75839 1.58726,1.20024c3.35584,3.07017 4.72374,4.30247 9.27104,3.30564c1.65002,-0.36171 3.3097,-0.7949 4.96196,-1.30093c-0.15995,-0.13317 -0.32024,-0.27206 -0.48096,-0.41693c-0.97589,-0.87965 -1.99715,-1.82254 -2.77732,-2.89654zM549.3323,358.48523c0.46803,-0.03522 0.93391,-0.07652 1.39782,-0.12372c0.37441,-0.21246 0.73871,-0.43207 1.09096,-0.65986c2.58132,-1.66923 4.55733,-4.12675 6.85627,-6.16745c0.49985,-0.86547 1.07981,-1.69196 1.66359,-2.5159c-0.67024,0.26585 -1.3323,0.50429 -1.98944,0.71874c-1.66767,1.60903 -3.6511,2.97455 -4.88069,3.93493c-0.65766,0.51367 -1.33552,1.03031 -2.03301,1.5352c-0.00064,0.00869 -0.00133,0.0174 -0.00207,0.02611c-0.11103,1.31583 -1.05151,2.31094 -2.10343,3.25194zM560.61207,356.46138c0.69727,-0.19407 1.39296,-0.3995 2.08775,-0.61562l-0.72259,-0.62732c-0.34535,0.31473 -0.82049,0.74755 -1.36515,1.24294zM533.31158,358.89418c-0.20923,-0.04879 -0.41874,-0.09479 -0.62865,-0.13687c-0.68274,-1.34034 -1.69684,-2.57405 -2.31939,-3.93376c-2.36917,1.22185 -4.83724,2.13228 -7.33832,2.197c-0.01428,0.00161 -0.02857,0.00317 -0.04287,0.00469c-0.01494,0.00159 -0.04813,0.00088 -0.09796,-0.00195c-0.78391,0.01027 -1.57094,-0.06344 -2.35906,-0.23756c-0.25497,-0.02804 -0.5223,-0.05773 -0.79823,-0.0886c-1.13891,2.03798 -3.19265,3.79901 -5.33214,5.33612c0.9106,1.54239 2.44101,2.7033 4.18304,3.53137c5.25524,-0.73665 10.47774,-2.04859 15.5109,-3.41666c0.60394,-0.16416 1.21822,-0.31287 1.83263,-0.46527c-0.33954,-0.24513 -0.6914,-0.52214 -1.05933,-0.83526c-0.63854,-0.54342 -1.12297,-1.22368 -1.55061,-1.95326zM552.54266,363.33074c0.32691,0.2036 0.65412,0.40671 0.98271,0.60747c2.84659,0.12731 5.68864,0.654 8.5338,0.49784c2.45512,-0.13475 4.71387,-1.40106 7.07596,-2.08394c1.91833,-0.55459 3.80495,-1.10832 5.66456,-1.70023c-0.08608,-0.07085 -0.17136,-0.14224 -0.25554,-0.21435c-1.44472,0.0328 -2.8771,-0.02841 -4.2707,-0.37702c-0.70018,-0.17515 -1.37183,-0.43404 -2.03074,-0.73035c-2.31784,0.96382 -4.68767,1.94379 -4.85733,1.99229c-3.44127,0.98363 -7.14203,1.64957 -10.84272,2.00829zM575.44901,328.27109c0.61136,-0.25311 1.22485,-0.50112 1.80939,-0.7842c0.97334,-0.47137 1.91585,-1.14316 2.90531,-1.60199c-0.11683,-0.03297 -0.23303,-0.06672 -0.34832,-0.10173c-2.5619,-0.77785 -5.44495,-0.628 -8.0319,0.06196c-1.61995,0.38438 -3.01342,0.84429 -4.22032,1.4329c1.35605,0.09994 2.71042,0.43869 4.06287,0.60771c1.26166,0.15767 2.60906,0.05313 3.82298,0.38535zM639.58838,332.75068c-0.70267,-0.15762 -1.44302,-0.20382 -2.21026,-0.11685c-1.78215,0.20202 -3.54307,0.62538 -5.25575,1.22129c0.02997,0.95962 0.01118,1.94325 0.00149,2.96386c1.07993,-0.65455 2.18206,-1.28489 3.30637,-1.89129c1.2112,-0.65326 2.64811,-1.48464 4.15816,-2.17701zM609.58284,354.33378c-1.22039,1.29472 -2.52528,2.44261 -3.57395,3.39106c0.89213,-0.05604 1.81853,-0.08313 2.76392,-0.09903c1.27096,-0.51552 2.53122,-1.05605 3.77891,-1.60429c-0.26314,-0.29528 -0.45728,-0.65338 -0.55711,-1.049c-0.80697,-0.18367 -1.61123,-0.39644 -2.41176,-0.63874zM621.67274,330.45659c-3.13722,-0.40339 -6.4951,0.08199 -9.48106,0.57211c-2.19746,0.3607 -4.42107,0.96813 -6.60848,1.78992c3.18143,0.98821 6.69461,1.98082 8.89987,4.24767c1.62693,-2.00316 3.52461,-3.80416 5.58535,-5.33139c0.55402,-0.38877 1.07818,-0.83544 1.60431,-1.2783zM623.56939,341.57651c0.3669,0.13767 0.73121,0.28197 1.09191,0.43365c0.77977,-0.62043 1.57388,-1.22488 2.38233,-1.81349c0.07634,-0.13826 0.1469,-0.27986 0.21042,-0.42552c0.14631,-0.33554 0.08827,-0.70421 0.00784,-1.07823c-1.18612,0.99678 -2.39728,1.84967 -3.2702,2.54141c-0.14186,0.11242 -0.28249,0.22667 -0.42229,0.34218zM619.45024,325.28561c-0.15508,-0.08275 -0.31381,-0.15887 -0.47705,-0.22682c-3.2198,-1.34037 -9.07203,-0.02338 -12.09074,1.37299c-0.51078,0.23627 -0.96423,0.55221 -1.38101,0.91951c3.65719,-1.25694 7.4293,-1.99669 11.14955,-2.09946c0.77991,-0.02154 1.74265,-0.0203 2.79926,0.03379zM585.56108,351.72216c-0.47178,0.09561 -0.94443,0.18888 -1.4179,0.28032c-0.09734,0.19532 -0.1883,0.39381 -0.27114,0.59632c-0.37236,0.91033 -0.5725,1.78632 -0.60291,2.59802c0.96366,-0.04313 1.9367,-0.11066 2.91392,-0.20358c-0.06137,-0.42141 -0.13193,-0.839 -0.22939,-1.24537c-0.14919,-0.68392 -0.28001,-1.35816 -0.39258,-2.02572zM566.06137,348.75956c-0.2671,0.46095 -0.54395,0.9351 -0.81981,1.40515l2.4772,-0.30209l0.04341,0.35593c2.08041,-0.49688 4.17176,-0.92911 6.26766,-1.3374c0.01493,-0.03261 0.02987,-0.06521 0.04482,-0.09779c-0.06065,-0.02624 -0.12095,-0.05339 -0.1809,-0.08148c-0.4385,0.13755 -0.88383,0.24729 -1.34009,0.31241c-2.12622,0.30348 -4.46799,0.40667 -6.4923,-0.25473zM569.44266,340.66913c0.054,-0.00381 0.10797,-0.00763 0.16189,-0.01146c0.02124,-1.58321 0.34094,-3.16269 0.71793,-4.72754c-0.88331,0.14173 -1.64903,0.40544 -2.2757,0.79897c0.7057,0.84214 1.19038,1.85695 1.36138,3.08065c0.04006,0.28668 0.05033,0.57351 0.03451,0.85938zM540.98702,334.98289c-0.03111,-0.01702 -0.06341,-0.03258 -0.09697,-0.04661c-0.84428,-0.35306 -1.68714,0.7311 -2.57557,0.95057c-0.89074,0.22004 -1.82122,0.27687 -2.7336,0.39971c0.14026,0.65833 0.25907,1.31424 0.35857,1.96025c0.33766,0.02138 0.66753,0.0494 0.98804,0.08466c0.59902,-0.4952 1.23732,-0.99709 1.91398,-1.52246c0.73654,-0.57187 1.41714,-1.23848 2.14554,-1.82611zM526.18731,335.2769c-0.64709,-0.68723 -1.38162,-1.35057 -2.27475,-1.57823c-1.1963,-0.30494 -2.45681,0.25142 -3.68867,0.33285c-6.09905,0.4032 -11.53244,1.8625 -17.07314,3.79803c0.13589,0.00489 0.27229,0.01011 0.4092,0.01566c1.50896,0.06108 3.25945,-0.49427 4.51774,0.34083c1.16609,0.77391 1.88982,2.01836 2.5834,3.28045c4.06911,-1.62662 8.57972,-2.83751 12.47153,-4.46323c0.20546,-0.11604 1.50545,-0.85217 3.05469,-1.72636zM527.34215,329.87568c-0.45028,-0.52118 -1.009,-0.9422 -1.73145,-1.19168c-1.35606,-0.46828 -2.85951,-0.24188 -4.28474,-0.40598c-1.45583,-0.16763 -2.90299,-0.77405 -4.35671,-0.589c-1.45372,0.18505 -2.71348,1.10779 -4.07021,1.66169c-0.83951,0.32027 -1.62278,0.64824 -2.35524,0.99368c3.04636,-0.71251 6.16533,-1.18708 9.43197,-1.30672c1.80055,-0.06594 3.71247,-0.73952 5.40397,-0.11891c0.63376,0.23253 1.3026,0.55594 1.96241,0.95692zM483.52835,357.98356c-1.03672,0.84652 -2.14509,1.61701 -3.30319,2.32551c1.57487,0.19156 3.13046,0.16999 4.66836,-0.00783c-0.37999,-0.47612 -0.73816,-1.01591 -1.07124,-1.62532c-0.1222,-0.22357 -0.2186,-0.45484 -0.29392,-0.69236zM495.35846,362.8787c1.01482,1.0728 2.35326,1.97572 3.76489,2.55986c3.33107,-1.41481 6.5421,-3.14839 9.48168,-5.21253c-0.2689,-1.92547 -0.05343,-3.51707 0.52535,-4.86096c-0.0193,-0.0092 -0.03864,-0.01845 -0.05802,-0.02773c-2.01857,2.66552 -5.62195,4.42443 -8.72514,5.76129c-1.56931,0.67606 -3.27,1.33846 -4.98876,1.78007zM451.38398,343.09192c-0.6244,0.33697 -1.22487,0.712 -1.79471,1.11849c-0.26344,0.18792 -2.97086,2.43106 -2.85385,3.51502c0.06898,0.63899 0.21263,1.183 0.41903,1.64482c0.34241,-0.86338 0.74429,-1.70953 1.09378,-2.50922c0.3911,-0.8949 1.0855,-1.61501 1.84268,-2.26975c0.36169,-0.52473 0.75314,-0.99075 1.16367,-1.37871c0.04313,-0.04075 0.08626,-0.08097 0.1294,-0.12065zM442.04689,345.79127c-1.43021,0.91051 -2.71922,2.05482 -3.90164,3.80048c-0.82345,1.02573 -2.17518,1.79536 -2.47035,3.07718c-0.24194,1.0507 0.75084,2.02316 1.0579,3.05671c0.42426,1.42805 0.83794,2.86169 1.17071,4.31372c1.13728,0.3201 2.4108,-0.36417 3.61539,-0.41995c1.45715,-0.06747 2.97297,0.37076 4.37605,-0.02827c1.40308,-0.39903 2.4834,-1.53125 3.73602,-2.27877c0.10046,-0.05995 0.20151,-0.11907 0.30309,-0.17745c-0.17937,-0.16182 -0.34592,-0.33249 -0.50014,-0.51115c-3.94207,-1.08287 -7.41194,-4.56273 -7.69724,-8.78597c-0.04613,-0.68292 0.07341,-1.37177 0.31021,-2.04653zM504.60841,352.47596c-0.19396,-0.18539 -0.37861,-0.3778 -0.55177,-0.57751c-0.35899,0.02285 -0.71635,0.02166 -1.07525,-0.01023c-2.313,0.85503 -4.69451,1.57258 -6.75788,2.89877c-1.48173,0.95235 -2.28435,2.0303 -2.57634,3.13367c0.73257,-0.28298 1.46154,-0.57731 2.1871,-0.87603c3.29208,-1.35539 5.45408,-1.95281 8.28175,-4.16208c0.14329,-0.11195 0.30974,-0.24887 0.49238,-0.40658zM488.53843,356.94874c0.0619,-0.26001 0.13635,-0.51318 0.22257,-0.75979c-0.16978,0.04315 -0.33983,0.08533 -0.51014,0.12658c0.01566,0.04717 0.03286,0.09409 0.0517,0.14072c0.07144,0.17677 0.15025,0.34071 0.23587,0.49249zM546.22979,345.66567c0.12416,0.32542 0.25618,0.64485 0.40169,0.95403c2.32241,-0.28334 4.4063,-0.47788 6.49772,-0.8446c-0.64104,-0.04885 -1.28238,-0.1042 -1.92341,-0.11586c-1.65828,-0.03015 -3.31742,-0.02552 -4.97599,0.00643zM552.84675,337.52656c-0.19645,0.18005 -0.38588,0.36872 -0.56986,0.56412c0.67905,-0.17188 1.36093,-0.34596 2.04494,-0.52596c-0.25839,-0.00284 -0.53184,-0.0076 -0.82263,-0.01526c-0.22164,-0.00583 -0.43895,-0.01372 -0.65245,-0.02291zM580.46693,338.93084c-0.03726,-0.19476 -0.09454,-0.3671 -0.17014,-0.52348c-1.67625,-0.51611 -3.30102,-1.22556 -4.96097,-1.81044c-0.31133,1.19548 -0.65053,2.3844 -0.71959,3.59211c1.41381,-0.18182 2.8355,-0.42125 4.29662,-0.75879c0.5295,-0.12232 1.04255,-0.30849 1.55407,-0.49941zM580.00682,331.64236c0.43392,0.36362 0.87212,0.73363 1.29511,1.09445c1.56389,0.6356 3.09073,1.42221 4.45631,2.34666c0.0332,0.01888 0.06624,0.03792 0.09909,0.0571c0.56826,-0.39105 1.13678,-0.7521 1.73418,-1.09337c0.49979,-0.33918 1.03836,-0.63142 1.60048,-0.87667c-0.00673,-0.02907 -0.01424,-0.0577 -0.0225,-0.0859c-1.04074,-0.34572 -2.10792,-0.67353 -3.14503,-1.09579c-1.24082,-0.5052 -2.33891,-1.62063 -3.67863,-1.61908c-0.89176,0.00103 -1.58234,0.73501 -2.339,1.2726zM606.21775,343.5554c-0.40198,-0.33305 -0.84267,-0.65027 -1.30933,-0.9525c-0.74759,-0.01496 -1.49565,-0.01778 -2.24353,-0.02501c0.06269,0.32461 0.11545,0.6469 0.15775,0.96586c0.20057,0.08068 0.39091,0.17519 0.56948,0.28479c0.8798,-0.01603 1.72689,-0.11597 2.4145,-0.21327c0.13796,-0.01952 0.275,-0.03948 0.41114,-0.05989zM597.46742,348.7041c0.03638,-0.10253 0.07118,-0.20577 0.10427,-0.30989c-1.41814,0.54341 -2.8504,1.02156 -4.29478,1.44979c0.11884,0.42855 0.28206,0.86402 0.48219,1.29971c0.17784,-0.12043 0.35633,-0.23979 0.53566,-0.3578c1.0565,-0.69526 2.098,-1.41536 3.17266,-2.08181zM481.81857,337.81584c1.03798,-0.02441 2.06344,-0.00093 3.06583,0.08591c-0.00463,-0.02935 -0.00937,-0.05868 -0.01423,-0.088c-0.05338,-0.32177 -0.17786,-0.84677 -0.50393,-0.83876c-0.89426,0.02195 -1.70509,0.52242 -2.54766,0.84085zM577.22322,355.22903c0.37481,0.00187 0.76064,0.00291 1.16009,0.00497c0.00964,-0.61445 0.06813,-1.24943 0.1766,-1.90266c-0.37206,0.27005 -0.78198,0.56505 -1.20739,0.86961c-0.07592,0.36034 -0.12245,0.70665 -0.1293,1.02808zM536.51087,351.79083c-0.41974,0.05516 -0.84393,0.1041 -1.26981,0.14769c-0.05611,0.03565 -0.11232,0.07134 -0.16862,0.10706c0.00487,0.08348 0.01095,0.16697 0.01825,0.25047c0.39252,0.84782 0.80347,1.70466 1.28362,2.50997c1.08896,0.06017 2.12204,0.0226 3.10969,-0.0984c-0.22462,-0.7147 -0.47238,-1.51563 -0.71235,-2.31626c-0.75424,-0.21566 -1.50853,-0.42082 -2.26078,-0.60053zM620.59814,345.50902c-0.36969,-0.10771 -0.7426,-0.20645 -1.11774,-0.29901c-0.01494,0.02321 -0.02956,0.0466 -0.04383,0.07017c0.15918,0.14801 0.31034,0.31226 0.4589,0.47994c0.11873,0.02766 0.235,0.05476 0.34843,0.08121c0.1177,-0.1112 0.23578,-0.22197 0.35425,-0.33231zM512.54314,350.48299c-0.04829,0.10462 -0.09811,0.20852 -0.14941,0.3117c0.20717,0.03612 0.41466,0.06598 0.6218,0.08953c-0.06383,-0.13635 -0.12385,-0.27417 -0.17983,-0.41335c-0.09905,0.0079 -0.19681,0.01255 -0.29255,0.01212zM496.99578,347.87648c0.04288,-0.0142 0.08577,-0.02835 0.12867,-0.04247c-0.0216,-0.0463 -0.04273,-0.09291 -0.06341,-0.13981c-0.02063,0.06089 -0.04241,0.12164 -0.06526,0.18228zM467.26858,338.9641c0.07918,0.06875 0.15754,0.13891 0.23504,0.21049c0.28736,0.06317 0.71138,0.18652 1.21646,0.35864c1.03694,-0.16519 2.11187,-0.35144 3.21129,-0.5389c-1.23334,-0.56555 -2.9184,-0.49544 -4.6628,-0.03023z" fill="#ffffff" stroke="none" stroke-width="0.5" stroke-linecap="butt"/></g></g></svg>