<svg version="1.1" xmlns="http://www.w3.org/2000/svg" xmlns:xlink="http://www.w3.org/1999/xlink" width="33.375" height="26.625" viewBox="0,0,33.375,26.625"><defs><radialGradient cx="244.27431" cy="180.99176" r="16.44024" gradientUnits="userSpaceOnUse" id="color-1"><stop offset="0" stop-color="#d3d3d3"/><stop offset="1" stop-color="#ffffff"/></radialGradient></defs><g transform="translate(-219.9375,-166.56249)"><g data-paper-data="{&quot;isPaintingLayer&quot;:true}" fill-rule="nonzero" stroke="none" stroke-width="0" stroke-linecap="butt" stroke-linejoin="miter" stroke-miterlimit="10" stroke-dasharray="" stroke-dashoffset="0" style="mix-blend-mode: normal"><path d="M219.9375,180l7.99426,-4.25577l-7.49974,-4.7819c0,0 15.4066,-4.39984 19.56798,-4.39984c7.35229,0 13.3125,5.96021 13.3125,13.3125c0,7.35229 -5.96021,13.3125 -13.3125,13.3125c-3.66936,0 -18.8917,-3.01524 -18.8917,-3.01524l6.97519,-5.25914z" fill="url(#color-1)"/><path d="M249.6875,174.375c0,1.86396 -1.79086,3.375 -4,3.375c-2.20914,0 -4,-1.51104 -4,-3.375c0,-1.86396 1.79086,-3.375 4,-3.375c2.20914,0 4,1.51104 4,3.375z" fill="#000000"/><path d="M249.6875,185.625c0,1.86396 -1.79086,3.375 -4,3.375c-2.20914,0 -4,-1.51104 -4,-3.375c0,-1.86396 1.79086,-3.375 4,-3.375c2.20914,0 4,1.51104 4,3.375z" fill="#000000"/></g></g></svg>