<svg version="1.1" xmlns="http://www.w3.org/2000/svg" xmlns:xlink="http://www.w3.org/1999/xlink" width="89.55882" height="9.59559" viewBox="0,0,89.55882,9.59559"><g transform="translate(-259.45455,-175.2022)"><g data-paper-data="{&quot;isPaintingLayer&quot;:true}" fill="#ffffff" fill-rule="nonzero" stroke="none" stroke-width="0" stroke-linecap="butt" stroke-linejoin="miter" stroke-miterlimit="10" stroke-dasharray="" stroke-dashoffset="0" style="mix-blend-mode: normal"><path d="M259.45455,180c0,-2.64975 2.14805,-4.79779 4.79779,-4.79779c2.64975,0 4.79779,2.14805 4.79779,4.79779c0,2.64975 -2.14805,4.79779 -4.79779,4.79779c-2.64975,0 -4.79779,-2.14805 -4.79779,-4.79779z"/><path d="M275.44719,180c0,-2.64975 2.14805,-4.7978 4.7978,-4.7978c2.64975,0 4.7978,2.14804 4.7978,4.7978c0,2.64975 -2.14804,4.7978 -4.7978,4.7978c-2.64975,0 -4.7978,-2.14804 -4.7978,-4.7978z"/><path d="M291.43984,180c0,-2.64975 2.14805,-4.7978 4.7978,-4.7978c2.64975,0 4.7978,2.14804 4.7978,4.7978c0,2.64975 -2.14804,4.7978 -4.7978,4.7978c-2.64975,0 -4.7978,-2.14804 -4.7978,-4.7978z"/><path d="M307.43249,180c0,-2.64975 2.14805,-4.7978 4.7978,-4.7978c2.64975,0 4.7978,2.14804 4.7978,4.7978c0,2.64975 -2.14804,4.7978 -4.7978,4.7978c-2.64975,0 -4.7978,-2.14804 -4.7978,-4.7978z"/><path d="M323.42513,180c0,-2.64975 2.14805,-4.7978 4.7978,-4.7978c2.64975,0 4.79779,2.14804 4.79779,4.7978c0,2.64975 -2.14805,4.7978 -4.79779,4.7978c-2.64975,0 -4.7978,-2.14804 -4.7978,-4.7978z"/><path d="M339.41778,180c0,-2.64975 2.14805,-4.7978 4.7978,-4.7978c2.64975,0 4.7978,2.14804 4.7978,4.7978c0,2.64975 -2.14805,4.7978 -4.7978,4.7978c-2.64975,0 -4.7978,-2.14804 -4.7978,-4.7978z"/></g></g></svg>