<svg version="1.1" xmlns="http://www.w3.org/2000/svg" xmlns:xlink="http://www.w3.org/1999/xlink" width="52.09295" height="58.53766" viewBox="0,0,52.09295,58.53766"><g transform="translate(-212.7407,-151.98872)"><g data-paper-data="{&quot;isPaintingLayer&quot;:true}" fill-rule="nonzero" stroke="#000000" stroke-width="2" stroke-linejoin="miter" stroke-miterlimit="10" stroke-dasharray="" stroke-dashoffset="0" style="mix-blend-mode: normal"><path d="M224.57954,209.52637v-56.53764h28.70824v56.53765z" fill="#000000" stroke-linecap="butt"/><path d="M224.28658,182.28284c0,2.58859 -2.36078,4.68706 -5.27294,4.68706c-2.91216,0 -5.27294,-2.09847 -5.27294,-4.68706c0,-2.58859 2.36078,-4.68706 5.27294,-4.68706c2.91216,0 5.27294,2.09847 5.27294,4.68706z" fill="#ffffff" stroke-linecap="butt"/><path d="M263.83365,182.28283c0,2.58859 -2.36077,4.68706 -5.27294,4.68706c-2.91216,0 -5.27294,-2.09847 -5.27294,-4.68706c0,-2.58859 2.36078,-4.68705 5.27294,-4.68705c2.91217,0 5.27294,2.09846 5.27294,4.68705z" fill="#ffffff" stroke-linecap="butt"/><path d="M224.57954,179.64636v-26.65764h28.70824v26.65765z" fill="#ffffff" stroke-linecap="butt"/><path d="M238.34775,163.24161v7.03059" fill="#ffd499" stroke-linecap="round"/><path d="M247.74189,163.26164v7.03059" fill="#ffd499" stroke-linecap="round"/></g></g></svg>