<svg version="1.1" xmlns="http://www.w3.org/2000/svg" xmlns:xlink="http://www.w3.org/1999/xlink" width="52.09294" height="58.53768" viewBox="0,0,52.09294,58.53768"><defs><linearGradient x1="238.93366" y1="152.98871" x2="238.93366" y2="209.52637" gradientUnits="userSpaceOnUse" id="color-1"><stop offset="0" stop-color="#ffff00"/><stop offset="1" stop-color="#ff0200"/></linearGradient><linearGradient x1="238.93366" y1="152.98871" x2="238.93366" y2="209.52637" gradientUnits="userSpaceOnUse" id="color-2"><stop offset="0" stop-color="#ffff00"/><stop offset="1" stop-color="#ff0200"/></linearGradient><linearGradient x1="219.01365" y1="177.59577" x2="219.01365" y2="186.96989" gradientUnits="userSpaceOnUse" id="color-3"><stop offset="0" stop-color="#ffff00"/><stop offset="1" stop-color="#ff0200"/></linearGradient><linearGradient x1="219.01365" y1="177.59577" x2="219.01365" y2="186.96989" gradientUnits="userSpaceOnUse" id="color-4"><stop offset="0" stop-color="#ffff00"/><stop offset="1" stop-color="#ff0200"/></linearGradient><linearGradient x1="258.56071" y1="177.59577" x2="258.56071" y2="186.96988" gradientUnits="userSpaceOnUse" id="color-5"><stop offset="0" stop-color="#ffff00"/><stop offset="1" stop-color="#ff0200"/></linearGradient><linearGradient x1="258.56071" y1="177.59577" x2="258.56071" y2="186.96988" gradientUnits="userSpaceOnUse" id="color-6"><stop offset="0" stop-color="#ffff00"/><stop offset="1" stop-color="#ff0200"/></linearGradient><linearGradient x1="238.93366" y1="152.98869" x2="238.93366" y2="179.64636" gradientUnits="userSpaceOnUse" id="color-7"><stop offset="0" stop-color="#ffff00"/><stop offset="1" stop-color="#ff0200"/></linearGradient><linearGradient x1="238.93366" y1="152.98869" x2="238.93366" y2="179.64636" gradientUnits="userSpaceOnUse" id="color-8"><stop offset="0" stop-color="#ffff00"/><stop offset="1" stop-color="#ff0200"/></linearGradient><linearGradient x1="238.34775" y1="163.24161" x2="238.34775" y2="170.27222" gradientUnits="userSpaceOnUse" id="color-9"><stop offset="0" stop-color="#ffff00"/><stop offset="1" stop-color="#ff0200"/></linearGradient><linearGradient x1="247.74189" y1="163.26163" x2="247.74189" y2="170.29223" gradientUnits="userSpaceOnUse" id="color-10"><stop offset="0" stop-color="#ffff00"/><stop offset="1" stop-color="#ff0200"/></linearGradient><linearGradient x1="238.62187" y1="152.98869" x2="238.62187" y2="190.07073" gradientUnits="userSpaceOnUse" id="color-11"><stop offset="0" stop-color="#ffff00"/><stop offset="1" stop-color="#ff0200"/></linearGradient><linearGradient x1="238.62187" y1="152.98869" x2="238.62187" y2="190.07073" gradientUnits="userSpaceOnUse" id="color-12"><stop offset="0" stop-color="#ffff00"/><stop offset="1" stop-color="#ff0200"/></linearGradient></defs><g transform="translate(-212.7407,-151.98868)"><g data-paper-data="{&quot;isPaintingLayer&quot;:true}" fill-rule="nonzero" stroke-width="2" stroke-linejoin="miter" stroke-miterlimit="10" stroke-dasharray="" stroke-dashoffset="0" style="mix-blend-mode: normal"><path d="M224.57954,209.52636v-56.53764h28.70824v56.53765z" fill="url(#color-1)" stroke="url(#color-2)" stroke-linecap="butt"/><path d="M224.28658,182.28283c0,2.58859 -2.36078,4.68706 -5.27294,4.68706c-2.91216,0 -5.27294,-2.09847 -5.27294,-4.68706c0,-2.58859 2.36078,-4.68706 5.27294,-4.68706c2.91216,0 5.27294,2.09847 5.27294,4.68706z" fill="url(#color-3)" stroke="url(#color-4)" stroke-linecap="butt"/><path d="M263.83365,182.28282c0,2.58859 -2.36077,4.68706 -5.27294,4.68706c-2.91216,0 -5.27294,-2.09847 -5.27294,-4.68706c0,-2.58859 2.36078,-4.68705 5.27294,-4.68705c2.91217,0 5.27294,2.09846 5.27294,4.68705z" fill="url(#color-5)" stroke="url(#color-6)" stroke-linecap="butt"/><path d="M224.57954,179.64635v-26.65764h28.70824v26.65765z" fill="url(#color-7)" stroke="url(#color-8)" stroke-linecap="butt"/><path d="M238.34775,163.2416v7.03059" fill="#ffd499" stroke="url(#color-9)" stroke-linecap="round"/><path d="M247.74189,170.29222v-7.03059" fill="#ffd499" stroke="url(#color-10)" stroke-linecap="round"/><path d="M223.95596,190.07073v-37.08204h29.33182v7.98178l-23.56555,0.04807l0.23094,29.05219z" fill="url(#color-11)" stroke="url(#color-12)" stroke-linecap="butt"/></g></g></svg>