<svg version="1.1" xmlns="http://www.w3.org/2000/svg" xmlns:xlink="http://www.w3.org/1999/xlink" width="52.09294" height="58.53769" viewBox="0,0,52.09294,58.53769"><defs><linearGradient x1="224.57954" y1="181.25755" x2="253.28776" y2="181.25755" gradientUnits="userSpaceOnUse" id="color-1"><stop offset="0" stop-color="#003fff"/><stop offset="1" stop-color="#fb0004"/></linearGradient></defs><g transform="translate(-212.7407,-151.98868)"><g data-paper-data="{&quot;isPaintingLayer&quot;:true}" fill-rule="nonzero" stroke="#000000" stroke-width="2" stroke-linejoin="miter" stroke-miterlimit="10" stroke-dasharray="" stroke-dashoffset="0" style="mix-blend-mode: normal"><path d="M224.57954,209.52637v-56.53764h28.70824v56.53765z" fill="url(#color-1)" stroke-linecap="butt"/><path d="M224.28658,182.28283c0,2.58859 -2.36078,4.68706 -5.27294,4.68706c-2.91216,0 -5.27294,-2.09847 -5.27294,-4.68706c0,-2.58859 2.36078,-4.68706 5.27294,-4.68706c2.91216,0 5.27294,2.09847 5.27294,4.68706z" fill="#663b00" stroke-linecap="butt"/><path d="M263.83365,182.28282c0,2.58859 -2.36077,4.68706 -5.27294,4.68706c-2.91216,0 -5.27294,-2.09847 -5.27294,-4.68706c0,-2.58859 2.36078,-4.68705 5.27294,-4.68705c2.91217,0 5.27294,2.09846 5.27294,4.68705z" fill="#663b00" stroke-linecap="butt"/><path d="M224.57954,179.64636v-26.65764h28.70824v26.65765z" fill="#663b00" stroke-linecap="butt"/><path d="M238.34775,170.27222v-7.03059" fill="#ffd499" stroke-linecap="round"/><path d="M247.74189,163.26163v7.03059" fill="#ffd499" stroke-linecap="round"/><path d="M223.95596,190.07073v-37.08204h29.33182v7.98178l-23.56555,0.04807l0.23094,29.05219z" fill="#5f2c18" stroke-linecap="butt"/></g></g></svg>