<svg version="1.1" xmlns="http://www.w3.org/2000/svg" xmlns:xlink="http://www.w3.org/1999/xlink" width="91.001" height="54.672" viewBox="0,0,91.001,54.672"><defs><linearGradient x1="194.5004" y1="180.0002" x2="285.5004" y2="180.0002" gradientUnits="userSpaceOnUse" id="color-1"><stop offset="0.012" stop-color="#a7a9ac"/><stop offset="1" stop-color="#414042"/></linearGradient><linearGradient x1="197.9135" y1="179.9993" x2="282.0864" y2="179.9993" gradientUnits="userSpaceOnUse" id="color-2"><stop offset="0" stop-color="#d1d2d3"/><stop offset="1" stop-color="#a4a5a8"/></linearGradient></defs><g transform="translate(-194.4995,-152.664)"><g data-paper-data="{&quot;isPaintingLayer&quot;:true}" fill-rule="nonzero" stroke="none" stroke-linecap="butt" stroke-linejoin="miter" stroke-miterlimit="10" stroke-dasharray="" stroke-dashoffset="0" style="mix-blend-mode: normal"><path d="M285.5005,198.731c0,4.752 -3.854,8.605 -8.605,8.605h-73.792c-4.752,0 -8.604,-3.854 -8.604,-8.605v-37.463c0,-4.752 3.852,-8.604 8.604,-8.604h73.791c4.754,0 8.605,3.852 8.605,8.604v37.463z" fill="url(#color-1)" stroke-width="1"/><path d="M282.0855,161.268v37.462c0,2.862 -2.327,5.19 -5.191,5.19h-73.791c-2.861,0 -5.19,-2.328 -5.19,-5.19v-37.463c0,-2.862 2.329,-5.19 5.19,-5.19h73.791c2.864,0 5.191,2.329 5.191,5.191z" fill="url(#color-2)" stroke-width="1"/><text transform="translate(256.11082,169.07765) scale(0.31556,0.31556)" font-size="40" xml:space="preserve" fill="#000000" fill-rule="nonzero" stroke="none" stroke-width="1" stroke-linecap="butt" stroke-linejoin="miter" stroke-miterlimit="10" stroke-dasharray="" stroke-dashoffset="0" font-family="Sans Serif" font-weight="normal" text-anchor="start" style="mix-blend-mode: normal"><tspan x="0" dy="0">Fly</tspan><tspan x="0" dy="46.150000000000006px">30s</tspan><tspan x="0" dy="46.150000000000006px">$20</tspan></text><g stroke-width="2.6533"><g><path d="M228.0822,193.59508c-0.13603,0 -0.2657,-0.01449 -0.38531,-0.04346c-0.83635,-0.2039 -1.19335,-2.24496 -1.06096,-6.06752c0.49488,-2.84881 1.75764,-3.06607 2.1329,-3.06607c0.03379,0 0.06666,0.00227 0.0977,0.00781c0.12967,-0.45899 0.3296,-0.86789 0.57795,-1.17203c0.32781,-0.40222 0.70308,-0.644 1.00439,-0.77434c-0.10045,-0.13928 -0.14976,-0.29637 -0.14701,-0.47016c0.01005,-0.64173 0.60445,-0.98488 2.34106,-1.33583c0.19722,-0.38883 0.64007,-0.65622 1.34861,-0.81553c0.12416,-0.02784 0.27117,-0.05572 0.43005,-0.08465c0.00819,-0.03342 0.01917,-0.06576 0.03193,-0.09805l-0.20086,-0.06685l0.58346,-0.38551c0.08032,-0.0624 0.18899,-0.13479 0.31315,-0.20054l0.76058,-0.49133l-0.33142,-0.11808l4.25393,-3.36021c8.24946,-2.2505 12.19753,-6.73151 12.2368,-6.77719l1.1249,-1.30908l-0.29312,1.79932c-0.02006,0.13034 -0.23097,1.1609 -1.87357,3.15072c0.98976,-0.64618 1.46179,-1.07511 1.46727,-1.08183l1.26551,-1.17761l-0.48759,1.77479c-0.05386,0.19273 -0.46656,0.98265 -3.40295,3.7401l1.25818,-0.90018l-0.71856,1.72688c-0.05386,0.13034 -1.26458,2.99473 -4.4475,5.02801l0.86285,-0.01226l-0.38259,0.83115c-1.13856,2.46444 -3.96267,3.12511 -5.52033,3.29891c0.27482,0.40109 0.43187,0.67293 0.45379,0.71081l0.20816,0.36431l-0.2584,0.31753c-0.79798,0.98378 -2.18036,1.33251 -3.32353,1.44169c0.11139,0.2451 0.17898,0.40554 0.19357,0.44228l0.11415,0.27634l-0.14701,0.25845c-0.88384,1.55086 -2.64784,1.69123 -3.44862,1.66453c-0.00547,0.0178 -0.01277,0.03565 -0.01917,0.05236c-0.19997,0.50804 -0.63184,0.68851 -1.08928,0.87902c-0.24013,0.10027 -0.50311,0.21058 -0.76147,0.37325c-0.65923,0.41553 -1.49194,0.54255 -2.3073,0.37434c-0.45472,0.67848 -1.59604,1.29573 -2.45431,1.29573zM228.76883,184.97397c-0.28122,0 -1.23079,0.18606 -1.64807,2.57475c-0.12144,3.61312 0.252,5.35335 0.6784,5.45698c0.76147,0.1916 2.13015,-0.56821 2.40954,-1.14868l0.08951,-0.18492l0.17987,0.04678c0.74506,0.19051 1.52845,0.09691 2.12832,-0.27965c0.29037,-0.18383 0.57341,-0.30191 0.82176,-0.40554c0.43917,-0.18383 0.70851,-0.30749 0.81808,-0.58601c0.01827,-0.04455 0.03104,-0.09691 0.03926,-0.15931l0.03562,-0.24959l0.22186,0.01562c0.63459,0.04233 2.38494,0.04346 3.20759,-1.40045c-0.02285,-0.05681 -0.14976,-0.35985 -0.35703,-0.79214l-0.18534,-0.38996l0.38896,-0.02116c0.90669,-0.049 2.55018,-0.28297 3.36826,-1.29237v0c-0.01001,-0.01785 -0.26841,-0.46458 -0.71309,-1.07289l-0.30861,-0.42339l0.48301,-0.03229c1.29472,-0.08692 4.43291,-0.55708 5.58062,-3.04377l0.00182,-0.00223l-0.37895,0.00554c0,0 -0.00089,0 -0.00182,0c-0.16707,0 -0.40995,-0.00332 -0.68294,-0.0089l-0.09863,-0.53143c3.70426,-1.9386 5.06289,-5.15058 5.1186,-5.28764c-0.26022,0.18606 -1.02445,0.6317 -1.98407,1.12861l-0.25293,-0.47239c4.49134,-4.02643 5.02456,-5.03692 5.07476,-5.14945c-0.0511,0.04678 -1.0144,0.91135 -3.02858,2.02993l-0.27303,-0.45458c2.66158,-2.78306 2.91447,-4.16457 2.91722,-4.17793v-0.00223v0c-0.03926,0.04569 -4.05214,4.63251 -12.3911,6.8875l-3.34999,2.66607l0.45651,0.16154l-1.76039,1.13642c-0.11593,0.06349 -0.20269,0.11921 -0.28029,0.17938l-0.06301,0.049c-0.11779,0.10586 -0.13786,0.17157 -0.14243,0.19496l0.02829,0.26962l-0.23466,0.08247c-0.22461,0.03674 -0.43094,0.07466 -0.59623,0.1114c-0.59805,0.13483 -0.95962,0.34759 -1.04544,0.61389l-0.04838,0.1515l-0.13971,0.02788c-1.36317,0.26739 -2.0562,0.54369 -2.06077,0.82107c-0.00182,0.1237 0.16253,0.26185 0.45197,0.37993l0.32416,0.1326l-0.37619,0.59605l-0.26205,-0.16489c-0.13603,-0.05459 -0.68205,0.12479 -1.1249,0.66957c-0.13878,0.17048 -0.39168,0.5515 -0.52682,1.19432l-0.05936,0.28188l-0.2456,-0.07911c-0.11232,-0.03565 -0.16163,-0.05236 -0.20362,-0.05236z" fill="#000000"/><g><path d="M236.68046,178.21908l3.43127,-2.70953c8.36271,-2.24164 12.30803,-6.84518 12.30803,-6.84518c0,0 -0.46842,2.86889 -8.26684,8.87397c-2.96378,2.28174 -7.47336,0.68074 -7.47247,0.68074z" fill="#e5e5e5"/><path d="M240.08709,179.04242c-0.00182,0 0,0 -0.00182,0c-1.88365,0 -3.41393,-0.53479 -3.47876,-0.55817l-0.47843,-0.16935l3.84305,-3.03487c8.26956,-2.23605 12.23222,-6.76493 12.27148,-6.81062l0.56243,-0.65509l-0.14608,0.90018c-0.0201,0.12144 -0.57613,3.05272 -8.36908,9.05335c-1.0984,0.84673 -2.51274,1.27457 -4.20279,1.27457zM237.25387,178.10209c0.59165,0.15822 1.64896,0.38438 2.83229,0.38438c1.59146,0 2.91358,-0.3955 3.93073,-1.17874c4.69585,-3.61757 6.70638,-6.08868 7.55554,-7.4479c-1.68186,1.50072 -5.44913,4.32502 -11.40409,5.92043l-2.91447,2.32184z" fill="#cccccc"/></g><g><path d="M235.49531,179.4357l3.63307,-2.34409c9.57433,-1.99541 13.67667,-5.82574 13.67667,-5.82574c0,0 -0.30586,1.11412 -8.09151,7.79327c-2.85786,2.45218 -9.21823,0.3777 -9.21823,0.37657z" fill="#e5e5e5"/><path d="M240.58469,180.53424v0c-2.58212,0 -5.05284,-0.79664 -5.15694,-0.83006l-0.55971,-0.1827l4.13982,-2.67053c9.4629,-1.98982 13.6009,-5.76225 13.64198,-5.80013l0.63274,-0.58828l-0.2447,0.88687c-0.03376,0.12253 -0.54963,1.38819 -8.17823,7.93251c-0.96877,0.83115 -2.40682,1.25231 -4.27496,1.25231zM236.14267,179.33542c0.88567,0.23733 2.657,0.64173 4.44203,0.64173v0c1.75946,0 3.09892,-0.38324 3.98094,-1.14087c3.53355,-3.03038 5.51397,-4.90658 6.62331,-6.04522c-2.03978,1.31022 -5.91205,3.30227 -12.01584,4.5757l-3.03044,1.96866z" fill="#cccccc"/></g><g><path d="M236.49512,179.10259c-0.01917,0.02339 3.93985,-0.37212 5.91934,-0.25513c1.98042,0.11585 6.83791,-2.57588 7.55189,-3.08723c0,0 -1.77498,4.27043 -6.7356,5.98837c-4.96065,1.71798 -7.59208,-1.13079 -8.22664,-1.59873c-0.63184,-0.46685 1.49101,-1.04727 1.49101,-1.04727z" fill="#e5e5e5"/><path d="M240.20303,182.57307c-2.73095,0 -4.39454,-1.40381 -5.10673,-2.00318c-0.09312,-0.07802 -0.16707,-0.14151 -0.22461,-0.18497c-0.23466,-0.17266 -0.24102,-0.38215 -0.22461,-0.49242c0.07488,-0.49246 1.01533,-0.84786 1.7905,-1.05953l0.20362,-0.05572l0.01463,0.03901c0.07853,-0.00558 0.18441,-0.01449 0.31136,-0.02452c1.08471,-0.08692 3.89966,-0.31085 5.46008,-0.22062l0.11686,0.00336c1.97495,0 6.59867,-2.55245 7.29259,-3.04713l0.71034,-0.50804l-0.35974,0.86235c-0.07302,0.17938 -1.87904,4.4019 -6.88536,6.13546c-1.06643,0.36766 -2.11005,0.55595 -3.09892,0.55595zM235.1803,179.94818c0.06576,0.05236 0.13242,0.10808 0.20912,0.17271c0.67107,0.56708 2.24429,1.894 4.81361,1.894c0.94045,0 1.93479,-0.17938 2.95559,-0.53365c3.45498,-1.19659 5.34411,-3.68442 6.13483,-4.9935c-1.62708,0.93029 -5.0419,2.64046 -6.75026,2.64046l-0.1415,-0.00445c-1.54215,-0.09024 -4.32606,0.13479 -5.40075,0.22057c-0.24653,0.02007 -0.41453,0.03233 -0.47843,0.03565c-0.58163,0.1638 -1.15229,0.40777 -1.34221,0.56821z" fill="#cccccc"/></g><g><path d="M233.12685,181.44782c0,0 -0.59168,-0.69636 0.95962,-1.04505c1.5513,-0.34873 3.91975,-0.44119 5.71572,0.4178c1.79601,0.85895 6.20606,0.76649 6.20606,0.76649c-1.50928,3.27329 -6.3485,3.06385 -6.3485,3.06385c-2.18493,-0.11698 -6.53291,-3.20309 -6.53291,-3.20309z" fill="#e5e5e5"/><path d="M239.83327,184.93165v0l-0.18355,-0.00223c-2.22509,-0.11808 -6.47265,-3.1173 -6.65253,-3.24541c-0.07302,-0.07357 -0.30314,-0.3599 -0.19997,-0.73533c0.10685,-0.38774 0.51315,-0.65513 1.24176,-0.81776c0.5232,-0.11698 1.3632,-0.2574 2.39041,-0.2574c1.32119,0 2.52093,0.23955 3.46685,0.69187c1.44996,0.693 4.75339,0.7465 5.73128,0.7465l0.78886,-0.01117l-0.19264,0.41671c-1.41069,3.05826 -5.56964,3.21421 -6.39048,3.21421zM233.30308,181.25395c0.0137,0 4.27674,3.00813 6.36856,3.11843l0.16253,0.00223v0c0.73136,0 4.28043,-0.12702 5.73857,-2.50676c-1.31664,-0.00227 -4.39364,-0.08692 -5.86456,-0.78992c-0.88752,-0.42448 -2.02061,-0.64845 -3.2779,-0.64845c-0.98794,0 -1.79415,0.13483 -2.29543,0.24736c-0.7761,0.1738 -0.86192,0.41222 -0.87015,0.43896c-0.01734,0.06126 0.03744,0.13701 0.03837,0.13815v0z" fill="#cccccc"/></g><g><path d="M231.73991,182.5519c0,0 -2.91905,-0.64173 1.49012,-1.43056c4.40916,-0.78878 7.73634,5.03696 7.73634,5.03696c-1.20525,1.48624 -4.16446,1.30018 -4.16446,1.30018z" fill="#e5e5e5"/><path d="M237.11966,187.74481v0c-0.20912,0 -0.33146,-0.00781 -0.33146,-0.00781l-0.08307,-0.00445l-5.07662,-4.92107c-0.51223,-0.12034 -1.08835,-0.35431 -1.08195,-0.79882c0.00637,-0.42784 0.45104,-0.77211 2.6442,-1.16539c0.28486,-0.05123 0.57613,-0.07684 0.86375,-0.07684c4.07774,0 6.9931,5.02356 7.11547,5.23746l0.10317,0.18161l-0.12967,0.15931c-1.01987,1.26008 -3.1537,1.396 -4.02382,1.396zM236.89595,187.18441c0.05203,0.00109 0.12874,0.00332 0.22371,0.00332v0c0.59805,0 2.55108,-0.0802 3.52622,-1.06285c-0.61085,-0.97484 -3.61479,-5.40236 -7.37842,-4.7272c-1.5449,0.27629 -2.03156,0.51358 -2.18128,0.62053c0.13145,0.08914 0.42365,0.20054 0.69939,0.26072l0.11229,0.06126l4.99809,4.84422z" fill="#cccccc"/></g><g><path d="M232.20922,182.49173c3.06148,0.06907 5.54136,6.16221 5.54136,6.16221c-1.00986,1.77589 -3.46324,1.37484 -3.46324,1.37484c-0.55514,-0.60944 -5.1396,-7.60612 -2.07812,-7.53705z" fill="#e5e5e5"/><path d="M234.88174,190.34626c-0.37891,0 -0.62909,-0.04119 -0.62909,-0.04119l-0.13514,-0.07579c-0.25747,-0.28297 -3.79466,-5.3578 -3.10804,-7.28746c0.11779,-0.33202 0.41542,-0.72975 1.15501,-0.72975c3.22858,0.07243 5.70571,6.06975 5.80888,6.32488l0.05661,0.13928l-0.07306,0.1292c-0.7624,1.34032 -2.25341,1.54082 -3.07518,1.54082zM234.40148,189.76361c0.39354,0.04455 2.19863,0.18492 3.06513,-1.13419c-0.39171,-0.90468 -2.64237,-5.80013 -5.26379,-5.85917c0,0 -0.00089,0 -0.00182,0c-0.54509,0 -0.68023,0.21726 -0.73866,0.38102c-0.49853,1.40272 2.31917,5.84468 2.93914,6.61234z" fill="#cccccc"/></g><g><path d="M229.19523,185.92656c-0.16528,-2.44995 1.54397,-3.05268 1.75853,-3.01703c0.21459,0.03565 2.63325,4.94445 3.18385,6.51094c0.55056,1.56644 -0.42915,1.32243 -1.5312,2.01876c-1.10205,0.69632 -2.33834,0.21839 -2.33834,0.21839c0,0 -0.90666,-3.28219 -1.07283,-5.73105z" fill="#e5e5e5"/><path d="M231.24413,192.09658v0c-0.59623,0 -1.03632,-0.16712 -1.05549,-0.17493l-0.11779,-0.04569l-0.03744,-0.13479c-0.03744,-0.13483 -0.91764,-3.34014 -1.08381,-5.79345c-0.08672,-1.28124 0.31866,-2.07003 0.67293,-2.50563c0.49488,-0.60722 1.10573,-0.81221 1.30935,-0.81221c0.53322,0.08247 3.16189,5.91934 3.43217,6.68696c0.19357,0.5515 0.22554,0.93587 0.10499,1.24446c-0.15702,0.4 -0.52592,0.55372 -0.95139,0.73088c-0.24288,0.10136 -0.5168,0.21503 -0.79437,0.39105c-0.43187,0.27407 -0.9304,0.41335 -1.47914,0.41335zM230.46346,191.43032c0.15159,0.04346 0.43734,0.10808 0.78067,0.10808v0c0.46474,0 0.88291,-0.11589 1.24359,-0.34314c0.31043,-0.19609 0.60352,-0.31866 0.86192,-0.42561c0.336,-0.13928 0.59987,-0.25068 0.672,-0.4356c0.06026,-0.15377 0.02282,-0.42674 -0.11229,-0.81108c-0.54144,-1.5386 -2.62324,-5.72769 -3.04506,-6.32824c-0.15613,0.04237 -0.55603,0.21839 -0.89296,0.63951c-0.41178,0.51471 -0.59075,1.21108 -0.53322,2.07003c0.14333,2.10458 0.85187,4.87206 1.02535,5.52606z" fill="#cccccc"/></g><g><path d="M229.30022,185.2425c0.33782,0.52252 1.13402,5.98841 0.94957,6.54545c-0.18441,0.55708 -1.59235,1.42829 -2.44973,1.21885c-0.85734,-0.20945 -0.67382,-5.50154 -0.67382,-5.50154c0.48941,-2.78528 1.83706,-2.78528 2.17399,-2.26276z" fill="#e5e5e5"/><path d="M228.0822,193.31651v0c-0.11869,0 -0.23101,-0.01226 -0.33418,-0.03788c-0.95597,-0.23283 -0.92493,-4.12334 -0.86739,-5.78451c0.45469,-2.59923 1.55949,-2.79868 1.8882,-2.79868c0.30221,0 0.5743,0.1426 0.72771,0.38215c0.39901,0.61835 1.19699,6.1544 0.98061,6.80839c-0.21914,0.66848 -1.49559,1.43052 -2.39495,1.43052zM228.76883,185.25254c-0.48208,0 -1.10387,0.60608 -1.40336,2.30731c-0.09587,2.85217 0.1753,5.09936 0.48483,5.17401c0.06937,0.0178 0.14701,0.02561 0.23101,0.02561c0.81808,0 1.82701,-0.73533 1.93751,-1.06957c0.13786,-0.53479 -0.63184,-5.82352 -0.91764,-6.28364c-0.04474,-0.07017 -0.15978,-0.15373 -0.33235,-0.15373z" fill="#cccccc"/></g></g><g><path d="M232.3617,177.93275c1.99047,-0.76539 6.49186,-3.06271 11.08454,-4.87429c4.59265,-1.81153 8.17551,-6.05858 8.17551,-6.05858c-0.88842,4.21248 -9.55423,9.39985 -12.33996,10.6187c-2.78573,1.21885 -10.56316,8.46062 -11.36483,9.76525c-0.8026,1.30463 -2.07629,-0.19051 -2.56663,-2.76748c-0.4903,-2.57693 1.51568,-5.33442 1.51568,-5.33442c0,0 3.50522,-0.58488 5.49569,-1.34918z" fill="#ffffff"/><path d="M227.23855,188.00217v0c-0.80167,0 -1.62432,-1.37929 -1.99962,-3.35572c-0.4976,-2.61707 1.45818,-5.34332 1.54125,-5.45808c0.10499,-0.05127 3.58833,-0.63728 5.5459,-1.39155c0.81812,-0.3153 2.09274,-0.90354 3.56823,-1.58538c2.1457,-0.9916 4.81364,-2.22379 7.51538,-3.28891c4.51508,-1.77924 8.09519,-5.98283 8.13077,-6.02515l0.29037,-0.34537l-0.10045,0.48016c-0.93315,4.42978 -9.94594,9.63604 -12.41209,10.71565c-2.73553,1.19655 -10.45906,8.32915 -11.31187,9.71847c-0.21456,0.35095 -0.48026,0.53588 -0.76787,0.53588zM226.88246,179.41898c0.03379,0.00445 -1.88913,2.6995 -1.42071,5.16507c0.44922,2.36417 1.65079,3.87602 2.36388,2.71512c0.86196,-1.40268 8.65762,-8.60548 11.41779,-9.8132c3.01857,-1.32021 10.74121,-6.10535 12.12269,-10.01484c-0.99799,1.08183 -4.11972,4.23256 -7.8861,5.7177c-2.69533,1.06285 -5.36145,2.29396 -7.5044,3.28329c-1.47917,0.68297 -2.75652,1.27347 -3.5801,1.59096c-1.96855,0.75872 -5.45278,1.34587 -5.51304,1.3559z" fill="#000000"/></g></g><g stroke-width="2.6533"><g><path d="M224.67982,193.44131c-0.87108,0 -2.03066,-0.61721 -2.49265,-1.2935c-0.82816,0.16825 -1.67457,0.0401 -2.34474,-0.37434c-0.26298,-0.16267 -0.52957,-0.27294 -0.77338,-0.37321c-0.46474,-0.19055 -0.9039,-0.37102 -1.10659,-0.87906c-0.0064,-0.01671 -0.0137,-0.03452 -0.0192,-0.05236c-0.81354,0.02675 -2.60586,-0.11363 -3.5034,-1.66449l-0.14973,-0.25849l0.11504,-0.27629c0.01463,-0.03678 0.084,-0.19832 0.19632,-0.44232c-1.16052,-0.10917 -2.5657,-0.4579 -3.37649,-1.44164l-0.26298,-0.31753l0.21091,-0.36431c0.02192,-0.03792 0.1817,-0.30976 0.46109,-0.71081c-1.58231,-0.17384 -4.45115,-0.83451 -5.60891,-3.29895l-0.38896,-0.83111l0.87655,0.01226c-3.23313,-2.03551 -4.46302,-4.89881 -4.5178,-5.02915l-0.72954,-1.72688l1.27827,0.90018c-2.98388,-2.75744 -3.40295,-3.54736 -3.45684,-3.7401l-0.49578,-1.77479l1.28557,1.17652c0.0064,0.00668 0.48576,0.4356 1.49105,1.08179c-1.66816,-1.98978 -1.88272,-3.02034 -1.90375,-3.15072l-0.29763,-1.80041l1.14314,1.30908c0.04016,0.04569 4.05124,4.5267 12.43308,6.77719l4.32152,3.36021l-0.33693,0.11808l0.77245,0.49133c0.12691,0.06685 0.23741,0.13815 0.31776,0.20054l0.59258,0.38551l-0.20362,0.06685c0.0137,0.03229 0.02374,0.06458 0.03286,0.098c0.1616,0.02788 0.30954,0.05685 0.43645,0.08469c0.71949,0.15931 1.1696,0.4267 1.36957,0.81553c1.76493,0.35095 2.36849,0.6941 2.37761,1.33583c0.00365,0.1738 -0.04656,0.33088 -0.14883,0.47016c0.30589,0.13034 0.68756,0.37212 1.01991,0.7743c0.2529,0.30418 0.45651,0.71308 0.58707,1.17207c0.03197,-0.00445 0.06483,-0.00781 0.09863,-0.00781c0.38167,0 1.66448,0.21839 2.16852,3.06607c0.13421,3.82256 -0.22829,5.86362 -1.07834,6.06752c-0.11962,0.03006 -0.25018,0.04455 -0.38986,0.04455zM223.98222,184.82025c-0.04198,0 -0.0913,0.01671 -0.20634,0.05459l-0.24835,0.07911l-0.06026,-0.28188c-0.13789,-0.64287 -0.39443,-1.02389 -0.53507,-1.19432c-0.45011,-0.54482 -1.00435,-0.7242 -1.14314,-0.66962l-0.26659,0.16489l-0.38167,-0.59605l0.32871,-0.13256c0.29398,-0.11812 0.46109,-0.25627 0.45834,-0.37993c-0.00365,-0.27743 -0.70762,-0.55372 -2.09271,-0.82112l-0.14247,-0.02784l-0.04928,-0.15154c-0.08675,-0.26739 -0.45379,-0.48016 -1.06189,-0.61385c-0.168,-0.03678 -0.37709,-0.07466 -0.60627,-0.11144l-0.2383,-0.08243l0.02829,-0.26962c-0.00365,-0.02339 -0.02464,-0.09024 -0.14515,-0.19496l-0.06394,-0.04904c-0.07853,-0.06017 -0.16618,-0.11585 -0.28393,-0.17938l-1.78871,-1.13638l0.46384,-0.16158l-3.40388,-2.66607c-8.47224,-2.25608 -12.54905,-6.84291 -12.58921,-6.88859v0v0.00109c0.00182,0.01339 0.2593,1.39487 2.96468,4.17797l-0.27846,0.45568c-2.04708,-1.11971 -3.0259,-1.98424 -3.077,-2.02993c0.05021,0.11253 0.59165,1.12302 5.15512,5.14945l-0.25658,0.47239c-0.97514,-0.49691 -1.75216,-0.94364 -2.01604,-1.12861c0.05754,0.13706 1.43808,3.34904 5.20078,5.28764l-0.10045,0.53143c-0.27664,0.00558 -0.52499,0.0089 -0.69392,0.0089c-0.00089,0 -0.00182,0 -0.00182,0l-0.38438,-0.00554l0.00182,0.00223c1.16506,2.48669 4.35438,2.95686 5.67009,3.04377l0.4912,0.03229l-0.31408,0.42339c-0.45197,0.60831 -0.71491,1.05504 -0.72407,1.07289v0c0.83088,1.00827 2.50087,1.24223 3.42215,1.29237l0.39626,0.02116l-0.18899,0.38996c-0.21002,0.43338 -0.33965,0.73533 -0.3625,0.79214c0.83546,1.44391 2.61409,1.44278 3.25873,1.40045l0.2255,-0.01562l0.03655,0.24959c0.00912,0.0624 0.02189,0.11476 0.04016,0.15931c0.11046,0.27852 0.38438,0.40218 0.83088,0.58601c0.25293,0.10363 0.53962,0.22171 0.83546,0.40554c0.60899,0.3777 1.40608,0.4713 2.16212,0.27965l0.18259,-0.04678l0.09133,0.18492c0.28393,0.58047 1.67364,1.34028 2.44791,1.14868c0.4337,-0.10363 0.81261,-1.845 0.68934,-5.45698c-0.4264,-2.38978 -1.39149,-2.57584 -1.67639,-2.57584z" fill="#000000"/><g><path d="M208.35252,177.38461c-7.92351,-6.00512 -8.39829,-8.87397 -8.39829,-8.87397c0,0 4.0083,4.60354 12.50521,6.84513l3.48606,2.70953c-0.00089,0 -4.58171,1.601 -7.59298,-0.6807z" fill="#e5e5e5"/><path d="M212.48318,178.88978c-1.71655,0 -3.1537,-0.42893 -4.27038,-1.27457c-7.91893,-6.00176 -8.48412,-8.93191 -8.50328,-9.05335l-0.14976,-0.90132l0.57159,0.65509c0.04019,0.04569 4.06766,4.5757 12.46963,6.81175l3.90423,3.03487l-0.48576,0.16935c-0.06483,0.02339 -1.61975,0.55817 -3.53444,0.55817c-0.00182,0 -0.00089,0 -0.00182,0zM215.36207,177.94837l-2.96014,-2.32075c-6.05176,-1.5965 -9.87929,-4.42084 -11.58761,-5.92152c0.86282,1.35922 2.90625,3.83033 7.67698,7.44786c1.03267,0.78215 2.37578,1.17874 3.99281,1.17874c1.2025,0 2.27533,-0.22725 2.87796,-0.38433z" fill="#cccccc"/></g><g><path d="M207.78276,178.90536c-7.9107,-6.67801 -8.22207,-7.79214 -8.22207,-7.79214c0,0 4.16811,3.83033 13.89581,5.82574l3.6915,2.34409c0.00093,0 -6.46171,2.07448 -9.36524,-0.3777z" fill="#e5e5e5"/><path d="M211.97736,180.38047c-1.89824,0 -3.36004,-0.42112 -4.34433,-1.2534c-7.75093,-6.54432 -8.27503,-7.80998 -8.30882,-7.93251l-0.24835,-0.88574l0.64278,0.58824c0.04202,0.03788 4.24663,3.8103 13.86112,5.80013l4.20648,2.67057l-0.56883,0.1827c-0.10592,0.03342 -2.61684,0.83002 -5.23915,0.83002c-0.00089,0 -0.00089,0 -0.00089,0zM216.49058,179.18279l-3.07789,-1.96975c-6.20242,-1.27234 -10.13676,-3.26548 -12.2094,-4.57461c1.12669,1.13755 3.13908,3.01484 6.72923,6.04522c0.89661,0.75763 2.25706,1.14087 4.04484,1.14087v0c1.81332,-0.00109 3.61386,-0.40441 4.51323,-0.64173z" fill="#cccccc"/></g><g><path d="M217.64652,179.99723c-0.64278,0.4679 -3.31713,3.31671 -8.3572,1.59873c-5.04008,-1.71794 -6.84427,-5.98837 -6.84427,-5.98837c0.72586,0.51026 5.66187,3.20422 7.67333,3.08723c2.01146,-0.11698 6.03438,0.27852 6.01428,0.25513c0,0 2.15757,0.57934 1.51386,1.04727z" fill="#e5e5e5"/><path d="M212.3645,182.4193c-1.00435,0 -2.06353,-0.18715 -3.14913,-0.55704c-5.08574,-1.73356 -6.92098,-5.95721 -6.99586,-6.13546l-0.36432,-0.86344l0.72131,0.50804c0.70579,0.49578 5.40347,3.04709 7.41039,3.04709l0.11869,-0.00332c1.58509,-0.09024 4.44567,0.13479 5.54776,0.22057c0.12963,0.01004 0.23648,0.01894 0.3159,0.02452l0.01463,-0.03901l0.20726,0.05572c0.78704,0.21167 1.74301,0.56708 1.81879,1.05953c0.01645,0.11031 0.01005,0.31975 -0.22826,0.49246c-0.05754,0.04342 -0.13331,0.10695 -0.22826,0.18492c-0.72314,0.60163 -2.41322,2.0054 -5.18891,2.0054zM217.46848,179.79555c-0.19357,-0.16154 -0.77245,-0.40441 -1.3641,-0.56598c-0.06483,-0.00332 -0.23648,-0.01671 -0.48576,-0.03565c-1.092,-0.08688 -3.91975,-0.31081 -5.48836,-0.22057l-0.14336,0.00445c-1.73482,0 -5.20443,-1.71017 -6.85797,-2.64046c0.80256,1.30908 2.72183,3.79691 6.23253,4.9935c1.03722,0.35318 2.04708,0.53365 3.00305,0.53365c2.61133,0 4.20919,-1.32693 4.89217,-1.894c0.0776,-0.06685 0.14426,-0.12257 0.21181,-0.17493z" fill="#cccccc"/></g><g><path d="M212.91781,184.49713c0,0 -4.91592,0.20949 -6.44984,-3.0638c0,0 4.48036,0.09246 6.30558,-0.76653c1.82519,-0.85899 4.23108,-0.76653 5.80702,-0.4178c1.57594,0.34759 0.97517,1.04505 0.97517,1.04505c0,0 -4.41921,3.08723 -6.63794,3.20309z" fill="#e5e5e5"/><path d="M212.74066,184.77792c-0.8336,0 -5.05924,-0.15599 -6.49365,-3.21539l-0.19539,-0.41667l0.80167,0.01113c0.99341,0 4.3507,-0.05345 5.82257,-0.74646c0.96144,-0.45232 2.17946,-0.69187 3.52164,-0.69187c1.04455,0 1.89824,0.14041 2.42967,0.2574c0.73955,0.16263 1.15319,0.43115 1.26183,0.81776c0.10499,0.37543 -0.12967,0.66176 -0.20362,0.73529c-0.18259,0.12815 -4.49863,3.12738 -6.75934,3.24545l-0.18538,0.00336v0zM219.37587,181.10018v0c0.00089,0 0.05661,-0.07684 0.03834,-0.13924c-0.00822,-0.02566 -0.09494,-0.26408 -0.88384,-0.43896c-0.50947,-0.11253 -1.32848,-0.24736 -2.33287,-0.24736c-1.27735,0 -2.42871,0.22393 -3.329,0.64845c-1.49466,0.703 -4.62097,0.78878 -5.95861,0.78987c1.48189,2.37979 5.08756,2.50681 5.82987,2.50681v0l0.16525,-0.00223c2.12653,-0.10922 6.45717,-3.11734 6.47087,-3.11734z" fill="#cccccc"/></g><g><path d="M215.82134,187.30585c0,0 -3.00669,0.18606 -4.23022,-1.30018c0,0 3.38014,-5.82574 7.8596,-5.03696c4.4804,0.78883 1.51386,1.43056 1.51386,1.43056z" fill="#e5e5e5"/><path d="M215.4981,187.59218c-0.88384,0 -3.05143,-0.13706 -4.08958,-1.39709l-0.13149,-0.15935l0.10499,-0.18161c0.12419,-0.2139 3.08615,-5.23746 7.22958,-5.23746c0.29219,0 0.58804,0.02561 0.87748,0.07688c2.22784,0.39328 2.68071,0.73756 2.68621,1.16535c0.0073,0.44455 -0.57981,0.67852 -1.09844,0.79882l-5.15876,4.92111l-0.08307,0.00445c0,0 -0.12509,0.0089 -0.33693,0.0089v0zM215.72546,187.03065l5.07752,-4.84418l0.11411,-0.06126c0.28032,-0.06017 0.57523,-0.17157 0.70944,-0.26072c-0.15155,-0.10695 -0.6455,-0.34428 -2.21597,-0.62057c-3.82388,-0.67402 -6.87624,3.75349 -7.49711,4.7272c0.99155,0.98269 2.97566,1.06289 3.58282,1.06289v0c0.09863,0.00109 0.17622,-0.00113 0.22919,-0.00336z" fill="#cccccc"/></g><g><path d="M218.37606,189.87501c0,0 -2.49265,0.40109 -3.51892,-1.37484c0,0 2.52004,-6.09313 5.63083,-6.16221c3.11079,-0.06907 -1.54765,6.9276 -2.11191,7.53705z" fill="#e5e5e5"/><path d="M217.77161,190.19254c-0.83453,0 -2.34928,-0.20054 -3.12356,-1.54082l-0.07488,-0.12925l0.05754,-0.13928c0.10499,-0.25513 2.62228,-6.25131 5.902,-6.32484c0.75142,0 1.05274,0.3966 1.17328,0.72975c0.69664,1.92965 -2.89623,7.00449 -3.15735,7.28746l-0.13789,0.07575c0,0 -0.25382,0.04123 -0.63914,0.04123zM218.2592,189.60984c0.62998,-0.76653 3.49242,-5.20962 2.9866,-6.6123c-0.06026,-0.16267 -0.19815,-0.38102 -0.75146,-0.38102c-0.00089,0 -0.00089,0 -0.00182,0c-2.66336,0.05904 -4.94875,4.95449 -5.34776,5.85917c0.88109,1.31912 2.71543,1.1787 3.11444,1.13415z" fill="#cccccc"/></g><g><path d="M222.45924,191.50385c0,0 -1.25542,0.47797 -2.37575,-0.21835c-1.12032,-0.69632 -2.11556,-0.45236 -1.55588,-2.0188c0.55971,-1.56644 3.01767,-6.47529 3.23499,-6.51094c0.21731,-0.03565 1.95485,0.56712 1.78685,3.01707c-0.168,2.44995 -1.09021,5.73101 -1.09021,5.73101z" fill="#e5e5e5"/><path d="M221.46769,191.94281c-0.55789,0 -1.06371,-0.13924 -1.50474,-0.41335c-0.28211,-0.17489 -0.56154,-0.28965 -0.80714,-0.39105c-0.4328,-0.17825 -0.80714,-0.33088 -0.96691,-0.73084c-0.12237,-0.30863 -0.0904,-0.693 0.10682,-1.2445c0.27392,-0.76762 2.94551,-6.60562 3.48695,-6.68692c0.20726,0 0.82723,0.205 1.33034,0.81217c0.36067,0.4356 0.77245,1.22443 0.68387,2.50567c-0.168,2.45327 -1.06189,5.65862 -1.10116,5.79341l-0.03651,0.13483l-0.12051,0.04569c-0.01827,0.00777 -0.46659,0.17489 -1.07101,0.17489v0zM222.26113,191.27769c0.17712,-0.65509 0.89661,-3.42257 1.04087,-5.52606c0.05936,-0.85895 -0.12234,-1.55531 -0.54051,-2.07003c-0.3424,-0.42112 -0.74963,-0.59714 -0.90759,-0.63951c-0.42823,0.60054 -2.54468,4.78964 -3.09345,6.32824c-0.13786,0.38433 -0.17622,0.65731 -0.11411,0.81108c0.07395,0.18492 0.3424,0.29523 0.68387,0.4356c0.26205,0.10808 0.56061,0.23061 0.87562,0.42561c0.36615,0.22838 0.79162,0.34314 1.26368,0.34314v0c0.34605,0 0.63821,-0.06576 0.79162,-0.10808z" fill="#cccccc"/></g><g><path d="M225.65221,187.35153c0,0 0.18717,5.29205 -0.6848,5.50154c-0.87197,0.20945 -2.3018,-0.66181 -2.48896,-1.21885c-0.1872,-0.55708 0.62179,-6.02297 0.96416,-6.54549c0.3424,-0.52252 1.71201,-0.52252 2.20961,2.2628z" fill="#e5e5e5"/><path d="M224.67982,193.16279c-0.91306,0 -2.20961,-0.76208 -2.43421,-1.43056c-0.21914,-0.65395 0.59075,-6.19005 0.99706,-6.80839c0.1552,-0.23842 0.43277,-0.38211 0.73866,-0.38211c0.33418,0 1.45722,0.19941 1.91924,2.79864c0.05754,1.66117 0.08947,5.55167 -0.88109,5.78455c-0.10499,0.02561 -0.21914,0.03788 -0.33965,0.03788v0zM223.98222,185.09877c-0.17437,0 -0.29126,0.08356 -0.33872,0.15377c-0.28944,0.46013 -1.07194,5.74772 -0.93133,6.28364c0.11232,0.33424 1.13677,1.06953 1.96765,1.06953c0.08582,0 0.16525,-0.00777 0.23466,-0.02561c0.31497,-0.07466 0.58982,-2.32184 0.49302,-5.17397c-0.30403,-1.70014 -0.93587,-2.30735 -1.42528,-2.30735z" fill="#cccccc"/></g></g><g><path d="M225.91608,179.1282c0,0 2.03796,2.75744 1.54032,5.33442c-0.4976,2.57584 -1.79232,4.07211 -2.60676,2.76748c-0.81447,-1.30463 -8.71605,-8.54644 -11.54745,-9.76529c-2.83047,-1.21885 -11.63507,-6.40617 -12.53629,-10.6187c0,0 3.63947,4.24704 8.3061,6.05862c4.66571,1.81044 9.23922,4.10885 11.26073,4.87425c2.02151,0.7643 5.58334,1.34922 5.58334,1.34922z" fill="#ffffff"/><path d="M225.53717,187.84954c-0.29126,0 -0.56061,-0.18492 -0.77975,-0.53479c-0.8665,-1.38928 -8.71423,-8.52188 -11.49449,-9.71847c-2.50452,-1.07956 -11.66063,-6.28696 -12.60841,-10.71561l-0.10224,-0.47575l0.29126,0.33983c0.03651,0.04233 3.67505,4.24704 8.26226,6.02629c2.74372,1.06508 5.4555,2.29732 7.63496,3.28887c1.49927,0.68183 2.79489,1.27121 3.62577,1.58542c1.98954,0.75313 5.52949,1.34028 5.56507,1.34582c0.1543,0.16044 2.14205,2.88669 1.6362,5.50376c-0.38256,1.97425 -1.21709,3.35463 -2.03063,3.35463zM201.02066,167.31296c1.39972,3.90944 9.25109,8.69795 12.31897,10.01929c2.80401,1.20658 10.72476,8.40939 11.60038,9.81207c0.72224,1.15867 1.94756,-0.34873 2.405,-2.71512c0.47754,-2.47002 -1.48643,-5.17175 -1.51383,-5.20853c0.03376,0.04682 -3.53079,-0.55259 -5.53313,-1.31131c-0.83728,-0.31644 -2.13472,-0.9069 -3.63764,-1.58987c-2.17671,-0.98933 -4.88574,-2.22153 -7.62491,-3.28442c-3.83121,-1.48624 -7.0068,-4.64477 -8.01484,-5.72211z" fill="#000000"/></g></g></g></g></svg>