<svg version="1.1" xmlns="http://www.w3.org/2000/svg" xmlns:xlink="http://www.w3.org/1999/xlink" width="526.5" height="90.61042" viewBox="0,0,526.5,90.61042"><g transform="translate(23.05557,17.46551)"><g data-paper-data="{&quot;isPaintingLayer&quot;:true}" fill-rule="nonzero" stroke-linecap="butt" stroke-linejoin="miter" stroke-miterlimit="10" stroke-dasharray="" stroke-dashoffset="0" style="mix-blend-mode: normal"><path d="M-21.80557,46.93402v-54h524v54z" fill="#00f9ff" stroke="#000000" stroke-width="2.5"/><text transform="translate(23.3307,37.26875) scale(0.89003,0.89003)" font-size="40" xml:space="preserve" fill="#000000" fill-rule="nonzero" stroke="none" stroke-width="1" stroke-linecap="butt" stroke-linejoin="miter" stroke-miterlimit="10" stroke-dasharray="" stroke-dashoffset="0" font-family="Marker" font-weight="normal" text-anchor="start" style="mix-blend-mode: normal"><tspan x="0" dy="0">WARNING!</tspan></text><text transform="translate(195.19005,35.62817) scale(0.80218,0.83451)" font-size="40" xml:space="preserve" fill="#000000" fill-rule="nonzero" stroke="none" stroke-width="1" stroke-linecap="butt" stroke-linejoin="miter" stroke-miterlimit="10" stroke-dasharray="" stroke-dashoffset="0" font-family="Sans Serif" font-weight="normal" text-anchor="start" style="mix-blend-mode: normal"><tspan x="0" dy="0">Double Disaster</tspan></text><path d="M2.97309,44.83025c0,0 8.92333,-4.35256 11.52636,-8.37924c2.59873,-4.02003 4.07896,-15.76091 4.07896,-15.76091c0,0 2.70987,11.82247 5.5652,16.23943c2.13235,3.29857 10.78227,7.90072 10.78227,7.90072c0,0 -8.38516,2.7779 -10.87015,6.62198c-2.69907,4.17523 -5.47732,15.29169 -5.47732,15.29169c0,0 -1.74835,-11.74974 -4.24349,-15.60953c-2.69171,-4.16385 -11.36183,-6.30414 -11.36183,-6.30414z" fill="#ffffff" stroke="#000000" stroke-width="2.5"/><path d="M437.97309,13.83025c0,0 8.92332,-4.35256 11.52636,-8.37924c2.59873,-4.02003 4.07896,-15.76091 4.07896,-15.76091c0,0 2.70988,11.82247 5.5652,16.23943c2.13234,3.29856 10.78228,7.90072 10.78228,7.90072c0,0 -8.38516,2.7779 -10.87016,6.62199c-2.69906,4.17524 -5.47733,15.29169 -5.47733,15.29169c0,0 -1.74834,-11.74974 -4.24349,-15.60953c-2.69171,-4.16385 -11.36183,-6.30414 -11.36183,-6.30414z" fill="#ffffff" stroke="#000000" stroke-width="2.5"/></g></g></svg>