<svg version="1.1" xmlns="http://www.w3.org/2000/svg" xmlns:xlink="http://www.w3.org/1999/xlink" width="584.11261" height="415.5" viewBox="0,0,584.11261,415.5"><g transform="translate(65.36261,50.27252)"><g data-paper-data="{&quot;isPaintingLayer&quot;:true}" fill-rule="nonzero" stroke-linejoin="miter" stroke-miterlimit="10" stroke-dasharray="" stroke-dashoffset="0" style="mix-blend-mode: normal"><path d="M-1.07594,360.04408v-360.08811h482.15188v360.08811z" fill-opacity="0.6" fill="#8c8c8c" stroke="none" stroke-width="0" stroke-linecap="butt"/><path d="M255.25,142.22748l-30.5,30.5" fill="none" stroke="#3b9bff" stroke-width="5" stroke-linecap="round"/><path d="M320.25,132.22748l-30.5,30.5" fill="none" stroke="#3b9bff" stroke-width="5" stroke-linecap="round"/><path d="M200.25,87.22748l-30.5,30.5" fill="none" stroke="#3b9bff" stroke-width="5" stroke-linecap="round"/><path d="M265.25,77.22748l-30.5,30.5" fill="none" stroke="#3b9bff" stroke-width="5" stroke-linecap="round"/><path d="M99.75,167.72748l30.5,-30.5" fill="none" stroke="#3b9bff" stroke-width="5" stroke-linecap="round"/><path d="M195.25,127.22748l-30.5,30.5" fill="none" stroke="#3b9bff" stroke-width="5" stroke-linecap="round"/><path d="M380.25,222.22748l-30.5,30.5" fill="none" stroke="#3b9bff" stroke-width="5" stroke-linecap="round"/><path d="M414.75,242.72748l30.5,-30.5" fill="none" stroke="#3b9bff" stroke-width="5" stroke-linecap="round"/><path d="M294.75,197.72748l30.5,-30.5" fill="none" stroke="#3b9bff" stroke-width="5" stroke-linecap="round"/><path d="M390.25,157.22748l-30.5,30.5" fill="none" stroke="#3b9bff" stroke-width="5" stroke-linecap="round"/><path d="M255.25,217.22748l-30.5,30.5" fill="none" stroke="#3b9bff" stroke-width="5" stroke-linecap="round"/><path d="M320.25,207.22748l-30.5,30.5" fill="none" stroke="#3b9bff" stroke-width="5" stroke-linecap="round"/><path d="M200.25,252.22748l-30.5,30.5" fill="none" stroke="#3b9bff" stroke-width="5" stroke-linecap="round"/><path d="M265.25,242.22748l-30.5,30.5" fill="none" stroke="#3b9bff" stroke-width="5" stroke-linecap="round"/><path d="M145.25,197.22748l-30.5,30.5" fill="none" stroke="#3b9bff" stroke-width="5" stroke-linecap="round"/><path d="M179.75,217.72748l30.5,-30.5" fill="none" stroke="#3b9bff" stroke-width="5" stroke-linecap="round"/><path d="M75.25,247.22748l-30.5,30.5" fill="none" stroke="#3b9bff" stroke-width="5" stroke-linecap="round"/><path d="M325.25,332.22748l-30.5,30.5" fill="none" stroke="#3b9bff" stroke-width="5" stroke-linecap="round"/><path d="M390.25,322.22748l-30.5,30.5" fill="none" stroke="#3b9bff" stroke-width="5" stroke-linecap="round"/><path d="M270.25,277.22748l-30.5,30.5" fill="none" stroke="#3b9bff" stroke-width="5" stroke-linecap="round"/><path d="M335.25,267.22748l-30.5,30.5" fill="none" stroke="#3b9bff" stroke-width="5" stroke-linecap="round"/><path d="M200.25,327.22748l-30.5,30.5" fill="none" stroke="#3b9bff" stroke-width="5" stroke-linecap="round"/><path d="M265.25,317.22748l-30.5,30.5" fill="none" stroke="#3b9bff" stroke-width="5" stroke-linecap="round"/><path d="M326.25,17.22748l-30.5,30.5" fill="none" stroke="#3b9bff" stroke-width="5" stroke-linecap="round"/><path d="M360.75,37.72748l30.5,-30.5" fill="none" stroke="#3b9bff" stroke-width="5" stroke-linecap="round"/><path d="M271.25,-37.77252l-30.5,30.5" fill="none" stroke="#3b9bff" stroke-width="5" stroke-linecap="round"/><path d="M336.25,-47.77252l-30.5,30.5" fill="none" stroke="#3b9bff" stroke-width="5" stroke-linecap="round"/><path d="M201.25,12.22748l-30.5,30.5" fill="none" stroke="#3b9bff" stroke-width="5" stroke-linecap="round"/><path d="M266.25,2.22748l-30.5,30.5" fill="none" stroke="#3b9bff" stroke-width="5" stroke-linecap="round"/><path d="M451.25,97.22748l-30.5,30.5" fill="none" stroke="#3b9bff" stroke-width="5" stroke-linecap="round"/><path d="M516.25,87.22748l-30.5,30.5" fill="none" stroke="#3b9bff" stroke-width="5" stroke-linecap="round"/><path d="M365.75,72.72748l30.5,-30.5" fill="none" stroke="#3b9bff" stroke-width="5" stroke-linecap="round"/><path d="M461.25,32.22748l-30.5,30.5" fill="none" stroke="#3b9bff" stroke-width="5" stroke-linecap="round"/><path d="M326.25,92.22748l-30.5,30.5" fill="none" stroke="#3b9bff" stroke-width="5" stroke-linecap="round"/><path d="M360.75,112.72748l30.5,-30.5" fill="none" stroke="#3b9bff" stroke-width="5" stroke-linecap="round"/><path d="M147.63739,147.22748l-30.5,30.5" fill="none" stroke="#3b9bff" stroke-width="5" stroke-linecap="round"/><path d="M62.13739,122.72748l30.5,-30.5" fill="none" stroke="#3b9bff" stroke-width="5" stroke-linecap="round"/><path d="M157.63739,82.22748l-30.5,30.5" fill="none" stroke="#3b9bff" stroke-width="5" stroke-linecap="round"/><path d="M22.63739,142.22748l-30.5,30.5" fill="none" stroke="#3b9bff" stroke-width="5" stroke-linecap="round"/><path d="M87.63739,132.22748l-30.5,30.5" fill="none" stroke="#3b9bff" stroke-width="5" stroke-linecap="round"/><path d="M147.63739,222.22748l-30.5,30.5" fill="none" stroke="#3b9bff" stroke-width="5" stroke-linecap="round"/><path d="M62.13739,287.72748l30.5,-30.5" fill="none" stroke="#3b9bff" stroke-width="5" stroke-linecap="round"/><path d="M127.13739,277.72748l30.5,-30.5" fill="none" stroke="#3b9bff" stroke-width="5" stroke-linecap="round"/><path d="M37.63739,202.22748l-30.5,30.5" fill="none" stroke="#3b9bff" stroke-width="5" stroke-linecap="round"/><path d="M102.63739,192.22748l-30.5,30.5" fill="none" stroke="#3b9bff" stroke-width="5" stroke-linecap="round"/><path d="M-62.86261,282.72748l30.5,-30.5" fill="none" stroke="#3b9bff" stroke-width="5" stroke-linecap="round"/><path d="M2.13739,272.72748l30.5,-30.5" fill="none" stroke="#3b9bff" stroke-width="5" stroke-linecap="round"/><path d="M162.63739,282.22748l-30.5,30.5" fill="none" stroke="#3b9bff" stroke-width="5" stroke-linecap="round"/><path d="M92.63739,332.22748l-30.5,30.5" fill="none" stroke="#3b9bff" stroke-width="5" stroke-linecap="round"/><path d="M127.13739,352.72748l30.5,-30.5" fill="none" stroke="#3b9bff" stroke-width="5" stroke-linecap="round"/><path d="M163.63739,-32.77252l-30.5,30.5" fill="none" stroke="#3b9bff" stroke-width="5" stroke-linecap="round"/><path d="M93.63739,17.22748l-30.5,30.5" fill="none" stroke="#3b9bff" stroke-width="5" stroke-linecap="round"/><path d="M158.63739,7.22748l-30.5,30.5" fill="none" stroke="#3b9bff" stroke-width="5" stroke-linecap="round"/></g></g></svg>