<svg version="1.1" xmlns="http://www.w3.org/2000/svg" xmlns:xlink="http://www.w3.org/1999/xlink" width="50.59294" height="57.03766" viewBox="0,0,50.59294,57.03766"><g transform="translate(-213.49069,-152.73869)"><g data-paper-data="{&quot;isPaintingLayer&quot;:true}" fill="#edff74" fill-rule="nonzero" stroke-linejoin="miter" stroke-miterlimit="10" stroke-dasharray="" stroke-dashoffset="0" style="mix-blend-mode: normal"><path d="M224.57953,209.52635v-56.53764h28.70824v56.53765z" stroke="#edff74" stroke-width="0.5" stroke-linecap="butt"/><path d="M224.28658,182.28282c0,2.58859 -2.36078,4.68706 -5.27294,4.68706c-2.91216,0 -5.27294,-2.09847 -5.27294,-4.68706c0,-2.58859 2.36078,-4.68706 5.27294,-4.68706c2.91216,0 5.27294,2.09847 5.27294,4.68706z" stroke="#edff74" stroke-width="0.5" stroke-linecap="butt"/><path d="M263.83364,182.28281c0,2.58859 -2.36077,4.68706 -5.27294,4.68706c-2.91216,0 -5.27294,-2.09847 -5.27294,-4.68706c0,-2.58859 2.36078,-4.68705 5.27294,-4.68705c2.91217,0 5.27294,2.09846 5.27294,4.68705z" stroke="#edff74" stroke-width="0.5" stroke-linecap="butt"/><path d="M224.57953,179.64634v-26.65764h28.70824v26.65765z" stroke="#edff74" stroke-width="0.5" stroke-linecap="butt"/><path d="M238.34775,163.24161v7.03059" stroke="#bbc95b" stroke-width="2" stroke-linecap="round"/><path d="M247.74188,163.26162v7.03059" stroke="#bbc95b" stroke-width="2" stroke-linecap="round"/></g></g></svg>