<svg version="1.1" xmlns="http://www.w3.org/2000/svg" xmlns:xlink="http://www.w3.org/1999/xlink" width="160.31854" height="64.7538" viewBox="0,0,160.31854,64.7538"><g transform="translate(-160.90493,-121.6841)"><g data-paper-data="{&quot;isPaintingLayer&quot;:true}" fill-rule="nonzero" stroke="none" stroke-width="2.6533" stroke-linecap="butt" stroke-linejoin="miter" stroke-miterlimit="10" stroke-dasharray="" stroke-dashoffset="0" style="mix-blend-mode: normal"><g><g><path d="M246.60477,186.4379c-0.3953,0 -0.7721,-0.0345 -1.1197,-0.1035c-2.4304,-0.4856 -3.4678,-5.3464 -3.0831,-14.4499c1.4381,-6.7845 5.1076,-7.3019 6.1981,-7.3019c0.0982,0 0.1937,0.0054 0.2839,0.0186c0.3768,-1.0931 0.9578,-2.0669 1.6795,-2.7912c0.9526,-0.9579 2.0431,-1.5337 2.9187,-1.8441c-0.2919,-0.3317 -0.4352,-0.7058 -0.4272,-1.1197c0.0292,-1.5283 1.7565,-2.3455 6.803,-3.1813c0.5731,-0.926 1.86,-1.5628 3.919,-1.9422c0.3608,-0.0663 0.788,-0.1327 1.2497,-0.2016c0.0238,-0.0796 0.0557,-0.1566 0.0928,-0.2335l-0.5837,-0.1592l1.6955,-0.9181c0.2334,-0.1486 0.5492,-0.321 0.91,-0.4776l2.2102,-1.1701l-0.9631,-0.2812l12.3617,-8.0024c23.9725,-5.3596 35.4454,-16.0312 35.5595,-16.14l3.2689,-3.1176l-0.8518,4.2851c-0.0583,0.3104 -0.6712,2.7647 -5.4445,7.5035c2.8762,-1.5389 4.2479,-2.5604 4.2638,-2.5764l3.6775,-2.8045l-1.4169,4.2267c-0.1565,0.459 -1.3558,2.3402 -9.8888,8.9071l3.6562,-2.1438l-2.0881,4.1126c-0.1565,0.3104 -3.6748,7.132 -12.9242,11.9743l2.5074,-0.0292l-1.1118,1.9794c-3.3086,5.8691 -11.5153,7.4425 -16.0418,7.8564c0.7986,0.9552 1.255,1.6026 1.3187,1.6928l0.6049,0.8676l-0.7509,0.7562c-2.3189,2.3429 -6.336,3.1734 -9.658,3.4334c0.3237,0.5837 0.5201,0.9658 0.5625,1.0533l0.3317,0.6581l-0.4272,0.6155c-2.5684,3.6934 -7.6945,4.0277 -10.0215,3.9641c-0.0159,0.0424 -0.0371,0.0849 -0.0557,0.1247c-0.5811,1.2099 -1.8361,1.6397 -3.1654,2.0934c-0.6978,0.2388 -1.462,0.5015 -2.2128,0.8889c-1.9157,0.9896 -4.3355,1.2921 -6.7049,0.8915c-1.3214,1.6158 -4.638,3.0858 -7.1321,3.0858zM248.60007,165.9066c-0.8172,0 -3.5766,0.4431 -4.7892,6.1318c-0.3529,8.6047 0.7323,12.7491 1.9714,12.9959c2.2128,0.4563 6.1901,-1.3532 7.002,-2.7356l0.2601,-0.4404l0.5227,0.1114c2.1651,0.4537 4.4416,0.2308 6.1848,-0.666c0.8438,-0.4378 1.6663,-0.719 2.388,-0.9658c1.2762,-0.4378 2.0589,-0.7323 2.3773,-1.3956c0.0531,-0.1061 0.0902,-0.2308 0.1141,-0.3794l0.1035,-0.5944l0.6447,0.0372c1.8441,0.1008 6.9305,0.1035 9.3211,-3.3352c-0.0664,-0.1353 -0.4352,-0.857 -1.0375,-1.8865l-0.5386,-0.9287l1.1303,-0.0504c2.6348,-0.1167 7.4107,-0.6739 9.788,-3.0778v0c-0.0291,-0.0425 -0.78,-1.1064 -2.0722,-2.5551l-0.8968,-1.0083l1.4036,-0.0769c3.7624,-0.207 12.8818,-1.3267 16.217,-7.2488l0.0053,-0.0053l-1.1012,0.0132c0,0 -0.0026,0 -0.0053,0c-0.4855,0 -1.1913,-0.0079 -1.9846,-0.0212l-0.2866,-1.2656c10.7644,-4.6168 14.7125,-12.2662 14.8744,-12.5926c-0.7562,0.4431 -2.977,1.5044 -5.7656,2.6878l-0.735,-1.125c13.0516,-9.589 14.6011,-11.9955 14.747,-12.2635c-0.1485,0.1114 -2.9478,2.1704 -8.8009,4.8343l-0.7934,-1.0826c7.7344,-6.6279 8.4693,-9.918 8.4773,-9.9498v-0.0053v0c-0.1141,0.1088 -11.7753,11.0324 -36.0079,16.4027l-9.7349,6.3493l1.3266,0.3847l-5.1156,2.7064c-0.3369,0.1512 -0.589,0.2839 -0.8145,0.4272l-0.1831,0.1167c-0.3423,0.2521 -0.4006,0.4086 -0.4139,0.4643l0.0822,0.6421l-0.6819,0.1964c-0.6527,0.0875 -1.2523,0.1778 -1.7326,0.2653c-1.7379,0.3211 -2.7886,0.8278 -3.038,1.462l-0.1406,0.3608l-0.406,0.0664c-3.9613,0.6368 -5.9752,1.2948 -5.9885,1.9554c-0.0053,0.2946 0.4723,0.6236 1.3134,0.9048l0.942,0.3158l-1.0932,1.4195l-0.7615,-0.3927c-0.3953,-0.13 -1.982,0.2972 -3.2689,1.5946c-0.4033,0.406 -1.1382,1.3134 -1.5309,2.8443l-0.1725,0.6713l-0.7137,-0.1884c-0.3264,-0.0849 -0.4697,-0.1247 -0.5917,-0.1247z" fill="#000000"/><g><path d="M271.59087,149.8197l9.9711,-6.4528c24.3016,-5.3385 35.7665,-16.3019 35.7665,-16.3019c0,0 -1.3612,6.8323 -24.023,21.1335c-8.6126,5.434 -21.7172,1.6212 -21.7146,1.6212z" fill="#e5e5e5"/><path d="M281.49037,151.7805c-0.0053,0 0,0 -0.0053,0c-5.4738,0 -9.9207,-1.2736 -10.1091,-1.3293l-1.3903,-0.4033l11.1677,-7.2276c24.0309,-5.3252 35.5462,-16.1108 35.6603,-16.2196l1.6344,-1.5601l-0.4245,2.1438c-0.0584,0.2892 -1.6742,7.2701 -24.3201,21.5607c-3.1919,2.0165 -7.3019,3.0354 -12.2131,3.0354zM273.25717,149.5411c1.7193,0.3768 4.7918,0.9154 8.2305,0.9154c4.6247,0 8.4667,-0.9419 11.4225,-2.8072c13.6459,-8.6153 19.4884,-14.5003 21.956,-17.7373c-4.8874,3.574 -15.8349,10.3001 -33.1397,14.0996l-8.4693,5.5295z" fill="#cccccc"/></g><g><path d="M268.14687,152.7171l10.5575,-5.5825c27.8225,-4.7521 39.7437,-13.8741 39.7437,-13.8741c0,0 -0.8888,2.6533 -23.5135,18.5598c-8.3048,5.8399 -26.7877,0.8995 -26.7877,0.8968z" fill="#e5e5e5"/><path d="M282.93637,155.3333v0c-7.5035,0 -14.6833,-1.8972 -14.9858,-1.9768l-1.6265,-0.4351l12.0301,-6.3599c27.4987,-4.7388 39.5235,-13.7229 39.6429,-13.8131l1.8387,-1.401l-0.7111,2.1121c-0.0981,0.2918 -1.5972,3.306 -23.7655,18.8914c-2.8152,1.9794 -6.9941,2.9824 -12.4228,2.9824zM270.02807,152.4783c2.5737,0.5652 7.7211,1.5283 12.9083,1.5283v0c5.1129,0 9.0053,-0.9127 11.5684,-2.717c10.2683,-7.2169 16.0233,-11.6851 19.247,-14.3968c-5.9275,3.1203 -17.1801,7.8644 -34.9174,10.8971l-8.8063,4.6884z" fill="#cccccc"/></g><g><path d="M271.05227,151.9238c-0.0557,0.0557 11.449,-0.8862 17.2013,-0.6076c5.755,0.2759 19.8706,-6.1345 21.9454,-7.3523c0,0 -5.158,10.1701 -19.5733,14.2614c-14.4154,4.0914 -22.0622,-2.693 -23.9062,-3.8074c-1.8361,-1.1118 4.3328,-2.4941 4.3328,-2.4941z" fill="#e5e5e5"/><path d="M281.82727,160.1888c-7.936,0 -12.7703,-3.3432 -14.8399,-4.7706c-0.2706,-0.1858 -0.4855,-0.337 -0.6527,-0.4405c-0.6819,-0.4112 -0.7004,-0.9101 -0.6527,-1.1727c0.2176,-1.1728 2.9505,-2.0192 5.2031,-2.5233l0.5917,-0.1327l0.0425,0.0929c0.2282,-0.0133 0.5359,-0.0345 0.9048,-0.0584c3.1521,-0.207 11.3322,-0.7403 15.8667,-0.5254l0.3396,0.008c5.7391,0 19.1754,-6.0787 21.1919,-7.2568l2.0642,-1.2099l-1.0454,2.0537c-0.2122,0.4272 -5.4604,10.4832 -20.0085,14.6117c-3.099,0.8756 -6.1317,1.324 -9.0053,1.324zM267.23147,153.9376c0.1911,0.1247 0.3848,0.2574 0.6077,0.4113c1.9501,1.3505 6.5218,4.5106 13.9881,4.5106c2.7329,0 5.6224,-0.4272 8.5888,-1.2709c10.04,-2.8497 15.5297,-8.7745 17.8275,-11.8921c-4.7282,2.2155 -14.6515,6.2883 -19.6159,6.2883l-0.4112,-0.0106c-4.4814,-0.2149 -12.5713,0.321 -15.6943,0.5253c-0.7164,0.0478 -1.2046,0.077 -1.3903,0.0849c-1.6902,0.3901 -3.3485,0.9711 -3.9004,1.3532z" fill="#cccccc"/></g><g><path d="M261.26427,157.509c0,0 -1.7194,-1.6584 2.7886,-2.4888c4.508,-0.8305 11.3906,-1.0507 16.6096,0.995c5.2191,2.0456 18.0345,1.8254 18.0345,1.8254c-4.3859,7.7954 -18.4484,7.2966 -18.4484,7.2966c-6.3493,-0.2786 -18.9843,-7.6282 -18.9843,-7.6282z" fill="#e5e5e5"/><path d="M280.75277,165.8058v0l-0.5334,-0.0053c-6.466,-0.2812 -18.8092,-7.4239 -19.3319,-7.729c-0.2122,-0.1752 -0.8809,-0.8571 -0.5811,-1.7512c0.3105,-0.9234 1.4912,-1.5602 3.6085,-1.9475c1.5204,-0.2786 3.9614,-0.613 6.9464,-0.613c3.8393,0 7.3257,0.5705 10.0745,1.6477c4.2135,1.6504 13.8131,1.7778 16.6548,1.7778l2.2924,-0.0266l-0.5598,0.9924c-4.0994,7.2833 -16.1851,7.6547 -18.5704,7.6547zM261.77637,157.0473c0.0398,0 12.428,7.1639 18.5067,7.4266l0.4723,0.0053v0c2.1253,0 12.4387,-0.3025 16.676,-5.9699c-3.8261,-0.0054 -12.7677,-0.207 -17.0421,-1.8812c-2.5791,-1.0109 -5.8718,-1.5443 -9.5254,-1.5443c-2.8709,0 -5.2137,0.3211 -6.6704,0.5891c-2.2553,0.4139 -2.5047,0.9817 -2.5286,1.0454c-0.0504,0.1459 0.1088,0.3263 0.1115,0.329v0z" fill="#cccccc"/></g><g><path d="M257.23387,160.1384c0,0 -8.4826,-1.5283 4.3302,-3.4069c12.8128,-1.8785 22.4814,11.9956 22.4814,11.9956c-3.5024,3.5395 -12.1017,3.0964 -12.1017,3.0964z" fill="#e5e5e5"/><path d="M272.86717,172.5054v0c-0.6077,0 -0.9632,-0.0186 -0.9632,-0.0186l-0.2414,-0.0106l-14.7524,-11.7196c-1.4885,-0.2866 -3.1627,-0.8438 -3.1441,-1.9024c0.0185,-1.0189 1.3107,-1.8388 7.6839,-2.7754c0.8278,-0.122 1.6742,-0.183 2.51,-0.183c11.8497,0 20.3216,11.9637 20.6772,12.4731l0.2998,0.4325l-0.3768,0.3794c-2.9637,3.0009 -9.1645,3.3246 -11.693,3.3246zM272.21707,171.1708c0.1512,0.0026 0.3741,0.0079 0.6501,0.0079v0c1.7379,0 7.4133,-0.191 10.247,-2.5312c-1.7751,-2.3216 -10.5044,-12.8658 -21.4413,-11.2579c-4.4894,0.658 -5.9036,1.2231 -6.3387,1.4778c0.382,0.2123 1.2311,0.4776 2.0324,0.6209l0.3263,0.1459l14.5242,11.5366z" fill="#cccccc"/></g><g><path d="M258.59767,159.9951c8.8965,0.1645 16.1029,14.6754 16.1029,14.6754c-2.9346,4.2293 -10.064,3.2742 -10.064,3.2742c-1.6132,-1.4514 -14.9354,-18.1141 -6.0389,-17.9496z" fill="#e5e5e5"/><path d="M266.36387,178.7008c-1.1011,0 -1.8281,-0.0981 -1.8281,-0.0981l-0.3927,-0.1805c-0.7482,-0.6739 -11.0271,-12.7597 -9.0318,-17.3552c0.3423,-0.7907 1.2072,-1.7379 3.3564,-1.7379c9.3821,0.1725 16.5805,14.4552 16.8803,15.0628l0.1645,0.3317l-0.2123,0.3077c-2.2155,3.192 -6.5483,3.6695 -8.9363,3.6695zM264.96827,177.3132c1.1436,0.1061 6.3891,0.4404 8.9071,-2.7011c-1.1383,-2.1545 -7.6786,-13.8131 -15.2963,-13.9537c0,0 -0.0026,0 -0.0053,0c-1.584,0 -1.9767,0.5174 -2.1465,0.9074c-1.4487,3.3406 6.7394,13.9192 8.541,15.7474z" fill="#cccccc"/></g><g><path d="M249.83917,168.1752c-0.4803,-5.8346 4.4867,-7.27 5.1102,-7.1851c0.6236,0.0849 7.6521,11.7753 9.2521,15.5059c1.5999,3.7305 -1.2471,3.1494 -4.4496,4.8077c-3.2025,1.6583 -6.7951,0.5201 -6.7951,0.5201c0,0 -2.6347,-7.8166 -3.1176,-13.6486z" fill="#e5e5e5"/><path d="M255.79317,182.8692v0c-1.7326,0 -3.0115,-0.398 -3.0672,-0.4166l-0.3423,-0.1088l-0.1088,-0.321c-0.1088,-0.3211 -2.6666,-7.9546 -3.1495,-13.7972c-0.252,-3.0513 0.926,-4.9298 1.9555,-5.9672c1.4381,-1.4461 3.2132,-1.9343 3.8049,-1.9343c1.5495,0.1964 9.1883,14.097 9.9737,15.9251c0.5625,1.3134 0.6554,2.2288 0.3051,2.9637c-0.4563,0.9526 -1.5283,1.3187 -2.7647,1.7406c-0.7058,0.2414 -1.5018,0.5121 -2.3084,0.9313c-1.255,0.6527 -2.7037,0.9844 -4.2983,0.9844zM253.52457,181.2825c0.4405,0.1035 1.2709,0.2574 2.2686,0.2574v0c1.3505,0 2.5657,-0.276 3.6138,-0.8172c0.9021,-0.467 1.7538,-0.7589 2.5047,-1.0136c0.9764,-0.3317 1.7432,-0.597 1.9528,-1.0374c0.1751,-0.3662 0.0663,-1.0163 -0.3263,-1.9316c-1.5734,-3.6642 -7.623,-13.6406 -8.8488,-15.0708c-0.4537,0.1009 -1.6158,0.5201 -2.5949,1.523c-1.1966,1.2258 -1.7167,2.8842 -1.5495,4.9298c0.4165,5.0121 2.4755,11.6029 2.9796,13.1604z" fill="#cccccc"/></g><g><path d="M250.14427,166.5461c0.9817,1.2444 3.2954,14.2615 2.7594,15.5881c-0.5359,1.3267 -4.6273,3.4015 -7.1188,2.9027c-2.4914,-0.4988 -1.9581,-13.102 -1.9581,-13.102c1.4222,-6.6332 5.3384,-6.6332 6.3175,-5.3888z" fill="#e5e5e5"/><path d="M246.60477,185.7745v0c-0.3449,0 -0.6713,-0.0292 -0.9711,-0.0902c-2.778,-0.5545 -2.6878,-9.8198 -2.5206,-13.7759c1.3213,-6.1901 4.5318,-6.6651 5.487,-6.6651c0.8782,0 1.6689,0.3396 2.1147,0.9101c1.1595,1.4726 3.4784,14.6568 2.8496,16.2143c-0.6368,1.592 -4.3461,3.4068 -6.9596,3.4068zM248.60007,166.57c-1.4009,0 -3.2078,1.4434 -4.0781,5.4949c-0.2786,6.7925 0.5094,12.1442 1.4089,12.322c0.2016,0.0424 0.4272,0.061 0.6713,0.061c2.3773,0 5.3092,-1.7512 5.6303,-2.5472c0.4006,-1.2736 -1.8361,-13.8688 -2.6666,-14.9646c-0.13,-0.1671 -0.4643,-0.3661 -0.9658,-0.3661z" fill="#cccccc"/></g></g><g><path d="M259.04077,149.1378c5.7842,-1.8228 18.865,-7.2939 32.2111,-11.6082c13.346,-4.3142 23.7576,-14.4286 23.7576,-14.4286c-2.5817,10.0321 -27.7641,22.3859 -35.8593,25.2886c-8.0952,2.9027 -30.696,20.1491 -33.0256,23.2561c-2.3323,3.107 -6.0336,-0.4537 -7.4585,-6.5908c-1.4248,-6.137 4.4045,-12.704 4.4045,-12.704c0,0 10.186,-1.3929 15.9702,-3.2131z" fill="#ffffff"/><path d="M244.15317,173.1183v0c-2.3296,0 -4.7202,-3.2848 -5.8108,-7.9917c-1.446,-6.2326 4.2374,-12.7252 4.4788,-12.9985c0.3051,-0.1221 10.4275,-1.5177 16.1161,-3.314c2.3774,-0.7509 6.0814,-2.1518 10.3691,-3.7756c6.2353,-2.3615 13.9882,-5.296 21.8393,-7.8326c13.1206,-4.2373 23.5242,-14.2482 23.6276,-14.349l0.8438,-0.8225l-0.2919,1.1435c-2.7117,10.5496 -28.9024,22.9484 -36.0689,25.5195c-7.9493,2.8496 -30.3935,19.836 -32.8717,23.1447c-0.6235,0.8358 -1.3956,1.2762 -2.2314,1.2762zM243.11837,152.6773c0.0982,0.0106 -5.4897,6.4289 -4.1285,12.3007c1.3054,5.6303 4.7971,9.2308 6.8693,6.4661c2.5048,-3.3405 25.1586,-20.4941 33.1795,-23.3703c8.7718,-3.1441 31.2134,-14.54 35.2279,-23.8505c-2.9001,2.5764 -11.9717,10.0799 -22.9166,13.6168c-7.8325,2.5312 -15.5801,5.4631 -21.8074,7.8192c-4.2984,1.6265 -8.0103,3.0328 -10.4036,3.7889c-5.7205,1.8069 -15.8455,3.2052 -16.0206,3.2291z" fill="#000000"/></g></g><g><g><path d="M236.71763,186.0717c-2.5313,0 -5.901,-1.4699 -7.2435,-3.0805c-2.4066,0.4007 -4.8662,0.0955 -6.8137,-0.8915c-0.7642,-0.3874 -1.5389,-0.65 -2.2474,-0.8888c-1.3505,-0.4538 -2.6267,-0.8836 -3.2157,-2.0935c-0.0186,-0.0398 -0.0398,-0.0822 -0.0558,-0.1247c-2.3641,0.0637 -7.5725,-0.2706 -10.1807,-3.964l-0.4351,-0.6156l0.3343,-0.658c0.0425,-0.0876 0.2441,-0.4723 0.5705,-1.0534c-3.3724,-0.26 -7.4558,-1.0905 -9.8119,-3.4333l-0.7642,-0.7562l0.6129,-0.8676c0.0637,-0.0903 0.528,-0.7377 1.3399,-1.6928c-4.5981,-0.414 -12.9348,-1.9874 -16.2992,-7.8565l-1.1303,-1.9793l2.5472,0.0292c-9.3953,-4.8476 -12.9693,-11.6666 -13.1285,-11.977l-2.12,-4.1126l3.7146,2.1438c-8.671,-6.5669 -9.8888,-8.4481 -10.0454,-8.9071l-1.4407,-4.2267l3.7358,2.8019c0.0186,0.0159 1.4116,1.0374 4.3329,2.5763c-4.8476,-4.7387 -5.4711,-7.193 -5.5322,-7.5035l-0.8649,-4.2877l3.3219,3.1176c0.1167,0.1088 11.7727,10.7804 36.1299,16.14l12.5581,8.0024l-0.9791,0.2812l2.2447,1.1701c0.3688,0.1592 0.6899,0.329 0.9234,0.4776l1.722,0.9181l-0.5917,0.1592c0.0398,0.0769 0.069,0.1538 0.0955,0.2334c0.4696,0.0664 0.8995,0.1354 1.2683,0.2017c2.0908,0.3794 3.3988,1.0162 3.9799,1.9422c5.1288,0.8358 6.8827,1.653 6.9092,3.1813c0.0106,0.4139 -0.1353,0.788 -0.4325,1.1197c0.8889,0.3104 1.998,0.8862 2.9638,1.844c0.7349,0.7244 1.3266,1.6982 1.706,2.7913c0.0929,-0.0106 0.1884,-0.0186 0.2866,-0.0186c1.1091,0 4.8369,0.5201 6.3016,7.3019c0.39,9.1035 -0.6634,13.9643 -3.1336,14.4499c-0.3476,0.0716 -0.727,0.1061 -1.1329,0.1061zM234.69043,165.5405c-0.122,0 -0.2653,0.0398 -0.5996,0.13l-0.7217,0.1884l-0.1751,-0.6713c-0.4007,-1.531 -1.1462,-2.4384 -1.5549,-2.8443c-1.308,-1.2975 -2.9186,-1.7247 -3.3219,-1.5947l-0.7747,0.3927l-1.1091,-1.4195l0.9552,-0.3157c0.8543,-0.2813 1.3399,-0.6103 1.3319,-0.9048c-0.0106,-0.6607 -2.0563,-1.3187 -6.0813,-1.9555l-0.414,-0.0663l-0.1432,-0.3609c-0.2521,-0.6368 -1.3187,-1.1435 -3.0858,-1.4619c-0.4882,-0.0876 -1.0958,-0.1778 -1.7618,-0.2654l-0.6925,-0.1963l0.0822,-0.6421c-0.0106,-0.0557 -0.0716,-0.2149 -0.4218,-0.4643l-0.1858,-0.1168c-0.2282,-0.1433 -0.4829,-0.2759 -0.8251,-0.4272l-5.1979,-2.7063l1.3479,-0.3848l-9.8915,-6.3493c-24.6199,-5.3729 -36.4669,-16.2965 -36.5836,-16.4053v0v0.0026c0.0053,0.0319 0.7535,3.3219 8.6152,9.9499l-0.8092,1.0852c-5.9487,-2.6666 -8.7931,-4.7255 -8.9416,-4.8343c0.1459,0.268 1.7193,2.6745 14.9805,12.2635l-0.7456,1.125c-2.8337,-1.1834 -5.0917,-2.2473 -5.8585,-2.6878c0.1672,0.3264 4.179,7.9758 15.1132,12.5926l-0.2919,1.2656c-0.8039,0.0133 -1.5256,0.0212 -2.0165,0.0212c-0.0026,0 -0.0053,0 -0.0053,0l-1.117,-0.0132l0.0053,0.0053c3.3856,5.9221 12.6536,7.0418 16.477,7.2488l1.4274,0.0769l-0.9127,1.0083c-1.3134,1.4487 -2.0775,2.5126 -2.1041,2.5551v0c2.4145,2.4012 7.2674,2.9584 9.9446,3.0778l1.1515,0.0504l-0.5492,0.9287c-0.6103,1.0321 -0.987,1.7512 -1.0534,1.8865c2.4278,3.4387 7.5964,3.436 9.4697,3.3352l0.6553,-0.0372l0.1062,0.5944c0.0265,0.1486 0.0636,0.2733 0.1167,0.3794c0.321,0.6633 1.117,0.9578 2.4145,1.3956c0.735,0.2468 1.5681,0.528 2.4278,0.9658c1.7697,0.8995 4.086,1.1224 6.283,0.666l0.5306,-0.1114l0.2654,0.4404c0.8251,1.3824 4.8635,3.1919 7.1135,2.7356c1.2603,-0.2468 2.3614,-4.3939 2.0032,-12.9959c-1.2391,-5.6913 -4.0436,-6.1344 -4.8715,-6.1344z" fill="#000000"/><g><path d="M189.27133,147.8324c-23.0253,-14.3013 -24.405,-21.1335 -24.405,-21.1335c0,0 11.6479,10.9634 36.3395,16.3018l10.1303,6.4528c-0.0026,0 -13.3142,3.8128 -22.0648,-1.6211z" fill="#e5e5e5"/><path d="M201.27483,151.417c-4.9882,0 -9.1645,-1.0215 -12.4095,-3.0354c-23.012,-14.2933 -24.6544,-21.2715 -24.7101,-21.5607l-0.4352,-2.1465l1.661,1.5601c0.1168,0.1088 11.8204,10.8971 36.2361,16.2223l11.3455,7.2276l-1.4116,0.4033c-0.1884,0.0557 -4.7069,1.3293 -10.2709,1.3293c-0.0053,0 -0.0026,0 -0.0053,0zM209.64073,149.175l-8.602,-5.5269c-17.5861,-3.8021 -28.7087,-10.5283 -33.673,-14.1022c2.5073,3.237 8.4454,9.122 22.3089,17.7372c3.0009,1.8627 6.9039,2.8072 11.6029,2.8072c3.4944,0 6.612,-0.5412 8.3632,-0.9153z" fill="#cccccc"/></g><g><path d="M187.61563,151.4541c-22.9881,-15.9038 -23.8929,-18.5571 -23.8929,-18.5571c0,0 12.1123,9.122 40.3805,13.8741l10.7273,5.5825c0.0027,0 -18.7774,4.9404 -27.2149,-0.8995z" fill="#e5e5e5"/><path d="M199.80493,154.9671c-5.5162,0 -9.7641,-1.0029 -12.6244,-2.985c-22.5238,-15.5854 -24.0468,-18.5996 -24.145,-18.8914l-0.7217,-2.1094l1.8679,1.4009c0.1221,0.0902 12.3405,9.0743 40.2797,13.8131l12.2238,6.36l-1.653,0.4351c-0.3078,0.0796 -7.6044,1.9767 -15.2247,1.9767c-0.0026,0 -0.0026,0 -0.0026,0zM212.92013,152.1148l-8.9442,-4.691c-18.0239,-3.0301 -29.4569,-7.7768 -35.4799,-10.8945c3.2741,2.7091 9.122,7.1799 19.5548,14.3968c2.6055,1.8043 6.5589,2.717 11.7541,2.717v0c5.2694,-0.0026 10.5017,-0.9631 13.1152,-1.5283z" fill="#cccccc"/></g><g><path d="M216.27923,154.0544c-1.8679,1.1143 -9.6394,7.8988 -24.2856,3.8074c-14.6462,-4.0913 -19.8891,-14.2614 -19.8891,-14.2614c2.1093,1.2152 16.4531,7.6309 22.2983,7.3523c5.8452,-0.2786 17.5356,0.6633 17.4772,0.6076c0,0 6.2698,1.3797 4.3992,2.4941z" fill="#e5e5e5"/><path d="M200.92993,159.8226c-2.9186,0 -5.9965,-0.4457 -9.1512,-1.3266c-14.7789,-4.1285 -20.112,-14.1872 -20.3296,-14.6117l-1.0587,-2.0563l2.0961,1.2099c2.051,1.1807 15.7022,7.2567 21.5342,7.2567l0.3449,-0.0079c4.6062,-0.2149 12.9189,0.321 16.1215,0.5253c0.3767,0.0239 0.6872,0.0451 0.918,0.0584l0.0425,-0.0929l0.6023,0.1327c2.2871,0.5041 5.0651,1.3505 5.2853,2.5233c0.0478,0.2627 0.0292,0.7615 -0.6633,1.1728c-0.1672,0.1034 -0.3874,0.2547 -0.6633,0.4404c-2.1014,1.4328 -7.0127,4.7759 -15.0787,4.7759zM215.76183,153.5741c-0.5625,-0.3847 -2.2447,-0.9631 -3.964,-1.3479c-0.1884,-0.0079 -0.6872,-0.0398 -1.4116,-0.0849c-3.1733,-0.2069 -11.3906,-0.7402 -15.9489,-0.5253l-0.4166,0.0106c-5.0413,0 -15.1238,-4.0728 -19.9289,-6.2883c2.3322,3.1176 7.9095,9.0424 18.1114,11.8921c3.0141,0.8411 5.9487,1.2709 8.7267,1.2709c7.5884,0 12.2317,-3.1601 14.2164,-4.5106c0.2255,-0.1592 0.4192,-0.2919 0.6155,-0.4166z" fill="#cccccc"/></g><g><path d="M202.53783,164.771c0,0 -14.2854,0.4989 -18.7429,-7.2965c0,0 13.0197,0.2202 18.3237,-1.8255c5.3039,-2.0457 12.2953,-1.8255 16.8749,-0.995c4.5796,0.8278 2.8338,2.4888 2.8338,2.4888c0,0 -12.842,7.3523 -19.2895,7.6282z" fill="#e5e5e5"/><path d="M202.02303,165.4397c-2.4224,0 -14.7019,-0.3715 -18.8702,-7.6575l-0.5678,-0.9923l2.3296,0.0265c2.8868,0 12.6429,-0.1273 16.9201,-1.7777c2.7939,-1.0772 6.3334,-1.6477 10.2337,-1.6477c3.0354,0 5.5162,0.3344 7.0605,0.613c2.1491,0.3873 3.3511,1.0268 3.6668,1.9475c0.3051,0.8941 -0.3768,1.576 -0.5917,1.7511c-0.5306,0.3052 -13.0728,7.4479 -19.6423,7.7291l-0.5387,0.008v0zM221.30463,156.6811v0c0.0026,0 0.1645,-0.183 0.1114,-0.3316c-0.0239,-0.0611 -0.2759,-0.6289 -2.5684,-1.0454c-1.4805,-0.268 -3.8605,-0.5891 -6.7792,-0.5891c-3.7119,0 -7.0577,0.5333 -9.6739,1.5443c-4.3434,1.6742 -13.4283,1.8785 -17.3154,1.8811c4.3063,5.6675 14.7842,5.97 16.9413,5.97v0l0.4802,-0.0053c6.1796,-0.2601 18.7642,-7.424 18.804,-7.424z" fill="#cccccc"/></g><g><path d="M210.97533,171.46c0,0 -8.7373,0.4431 -12.2928,-3.0964c0,0 9.8225,-13.8741 22.8396,-11.9956c13.0198,1.8786 4.3992,3.4069 4.3992,3.4069z" fill="#e5e5e5"/><path d="M210.03603,172.1419c-2.5684,0 -8.8673,-0.3264 -11.8841,-3.3272l-0.3821,-0.3795l0.3051,-0.4325c0.3609,-0.5094 8.9682,-12.4731 21.0088,-12.4731c0.8491,0 1.7088,0.061 2.5499,0.1831c6.474,0.9366 7.79,1.7565 7.806,2.7753c0.0212,1.0587 -1.6849,1.6159 -3.192,1.9024l-14.9911,11.7197l-0.2414,0.0106c0,0 -0.3635,0.0212 -0.9791,0.0212v0zM210.69673,170.8046l14.755,-11.5365l0.3316,-0.1459c0.8146,-0.1433 1.6716,-0.4086 2.0616,-0.6209c-0.4404,-0.2547 -1.8758,-0.8199 -6.4395,-1.4779c-11.112,-1.6052 -19.982,8.939 -21.7862,11.2579c2.8814,2.3403 8.6471,2.5313 10.4115,2.5313v0c0.2866,0.0026 0.5121,-0.0027 0.666,-0.008z" fill="#cccccc"/></g><g><path d="M218.39923,177.5785c0,0 -7.2435,0.9552 -10.2258,-3.2742c0,0 7.3231,-14.5109 16.3629,-14.6754c9.0398,-0.1645 -4.4974,16.4982 -6.1371,17.9496z" fill="#e5e5e5"/><path d="M216.64273,178.3347c-2.4251,0 -6.8269,-0.4776 -9.0769,-3.6695l-0.2176,-0.3078l0.1672,-0.3317c0.3051,-0.6076 7.6202,-14.8876 17.1509,-15.0627c2.1836,0 3.0592,0.9445 3.4095,1.7379c2.0244,4.5955 -8.4163,16.6813 -9.1751,17.3552l-0.4007,0.1804c0,0 -0.7376,0.0982 -1.8573,0.0982zM218.05963,176.947c1.8307,-1.8255 10.1488,-12.4068 8.6789,-15.7473c-0.1751,-0.3874 -0.5758,-0.9074 -2.1837,-0.9074c-0.0026,0 -0.0026,0 -0.0053,0c-7.7396,0.1406 -14.3808,11.7992 -15.5403,13.9537c2.5604,3.1415 7.8909,2.8071 9.0504,2.701z" fill="#cccccc"/></g><g><path d="M230.26473,181.4576c0,0 -3.6482,1.1383 -6.9038,-0.52c-3.2556,-1.6583 -6.1477,-1.0773 -4.5213,-4.8078c1.6265,-3.7305 8.7692,-15.421 9.4007,-15.5059c0.6315,-0.0849 5.6807,1.3506 5.1925,7.1852c-0.4882,5.8346 -3.1681,13.6485 -3.1681,13.6485z" fill="#e5e5e5"/><path d="M227.38333,182.503c-1.6212,0 -3.0911,-0.3316 -4.3727,-0.9844c-0.8198,-0.4165 -1.6318,-0.6898 -2.3455,-0.9313c-1.2577,-0.4245 -2.3455,-0.788 -2.8098,-1.7405c-0.3556,-0.735 -0.2627,-1.6504 0.3104,-2.9638c0.796,-1.8281 8.5595,-15.7314 10.1329,-15.925c0.6023,0 2.4039,0.4882 3.8659,1.9342c1.0481,1.0374 2.2447,2.916 1.9873,5.9673c-0.4882,5.8425 -3.0858,13.4761 -3.1999,13.7971l-0.1061,0.3211l-0.3502,0.1088c-0.0531,0.0185 -1.3559,0.4165 -3.1123,0.4165v0zM229.68903,180.919c0.5147,-1.5601 2.6055,-8.1509 3.0247,-13.1604c0.1725,-2.0456 -0.3555,-3.704 -1.5707,-4.9298c-0.995,-1.0029 -2.1784,-1.4221 -2.6374,-1.523c-1.2444,1.4302 -7.3947,11.4066 -8.9894,15.0708c-0.4006,0.9153 -0.5121,1.5654 -0.3316,1.9316c0.2149,0.4404 0.995,0.7031 1.9873,1.0374c0.7615,0.2574 1.6291,0.5492 2.5445,1.0136c1.064,0.5439 2.3004,0.8172 3.6722,0.8172v0c1.0056,0 1.8546,-0.1566 2.3004,-0.2574z" fill="#cccccc"/></g><g><path d="M239.54333,171.5688c0,0 0.5439,12.6031 -1.99,13.102c-2.5339,0.4988 -6.6889,-1.5761 -7.2328,-2.9027c-0.544,-1.3267 1.8069,-14.3438 2.8018,-15.5882c0.995,-1.2444 4.975,-1.2444 6.421,5.3889z" fill="#e5e5e5"/><path d="M236.71763,185.4084c-2.6533,0 -6.421,-1.8149 -7.0737,-3.4069c-0.6368,-1.5574 1.7167,-14.7417 2.8974,-16.2143c0.451,-0.5678 1.2576,-0.91 2.1465,-0.91c0.9711,0 4.2346,0.4749 5.5772,6.665c0.1672,3.9561 0.26,13.2214 -2.5604,13.776c-0.3051,0.061 -0.6368,0.0902 -0.987,0.0902v0zM234.69043,166.2038c-0.5067,0 -0.8464,0.199 -0.9843,0.3662c-0.8411,1.0958 -3.115,13.6883 -2.7064,14.9646c0.3264,0.796 3.3034,2.5471 5.7179,2.5471c0.2494,0 0.4802,-0.0185 0.6819,-0.061c0.9153,-0.1778 1.714,-5.5295 1.4327,-12.3219c-0.8835,-4.0489 -2.7196,-5.495 -4.1418,-5.495z" fill="#cccccc"/></g></g><g><path d="M240.31013,151.9848c0,0 5.9222,6.5669 4.4761,12.704c-1.446,6.1344 -5.2084,9.6978 -7.5751,6.5908c-2.3668,-3.107 -25.3284,-20.3535 -33.5563,-23.2562c-8.2252,-2.9027 -33.8109,-15.2564 -36.4298,-25.2886c0,0 10.5761,10.1144 24.1371,14.4287c13.5583,4.3116 26.8487,9.7853 32.7231,11.6081c5.8744,1.8202 16.2249,3.2132 16.2249,3.2132z" fill="#ffffff"/><path d="M239.20903,172.7548c-0.8464,0 -1.6291,-0.4404 -2.2659,-1.2736c-2.518,-3.3086 -25.3231,-20.295 -33.4024,-23.1447c-7.278,-2.571 -33.8852,-14.9725 -36.6394,-25.5194l-0.2971,-1.133l0.8464,0.8093c0.1061,0.1008 10.6795,10.1144 24.0097,14.3517c7.9731,2.5365 15.8534,5.4711 22.1868,7.8325c4.3568,1.6238 8.1218,3.0274 10.5363,3.7757c5.7815,1.7936 16.0684,3.1919 16.1718,3.2051c0.4484,0.3821 6.2247,6.8747 4.7547,13.1073c-1.1117,4.7017 -3.5368,7.9891 -5.9009,7.9891zM167.96533,123.8466c4.0675,9.3104 26.8832,20.7143 35.7983,23.8611c8.1483,2.8735 31.1656,20.0271 33.7101,23.3676c2.0988,2.7594 5.6595,-0.8305 6.9888,-6.4661c1.3877,-5.8824 -4.3195,-12.3166 -4.3991,-12.4042c0.0981,0.1115 -10.2603,-1.316 -16.079,-3.1229c-2.4331,-0.7536 -6.2034,-2.1598 -10.5708,-3.7863c-6.3254,-2.3561 -14.1977,-5.2906 -22.1576,-7.8219c-11.1333,-3.5395 -20.3614,-11.0616 -23.2907,-13.6273z" fill="#000000"/></g></g></g></g></svg>