<svg version="1.1" xmlns="http://www.w3.org/2000/svg" xmlns:xlink="http://www.w3.org/1999/xlink" width="61.94697" height="32.79714" viewBox="0,0,61.94697,32.79714"><g transform="translate(-209.02651,-163.60143)"><g data-paper-data="{&quot;isPaintingLayer&quot;:true}" fill-rule="nonzero" stroke="none" stroke-width="1" stroke-linecap="butt" stroke-linejoin="miter" stroke-miterlimit="10" stroke-dasharray="" stroke-dashoffset="0" style="mix-blend-mode: normal"><g><path d="M209.31106,172.78115c0,0 15.09023,-10.57598 21.8918,-9.02427c6.00159,1.5783 15.50256,2.44767 20.30473,4.65845c4.80217,2.21079 19.10475,4.69835 19.10475,4.69835c0,0 0.92074,21.89585 -0.17812,23.11759c-1.09886,1.22174 -20.50473,-4.65181 -22.80469,-4.57535c-2.29996,0.07646 -14.49416,6.40791 -18.19859,1.79021c-4.10498,-5.197 -19.19914,1.23086 -19.19914,1.23086c0,0 -1.91063,-11.19602 -0.92074,-21.89585z" fill="#694932"/><path d="M211.01721,179.24311c0,0 0.49943,-0.60921 1.49885,-1.23504c0.89942,-0.62251 2.19828,-1.8509 3.79714,-3.08927c1.59885,-1.23837 3.3977,-2.48338 5.39655,-3.73504c1.99885,-1.25166 4.09769,-2.50665 6.29822,-1.9872c4.30049,0.44964 8.60155,1.49187 11.80262,2.57067c3.20107,1.0788 5.30216,2.19416 5.30216,2.19416c0,0 -2.10053,-0.52278 -5.30048,-0.4164c-3.20051,-0.48621 -7.50156,-1.52844 -11.70206,-1.98141c-1.09998,0.03657 -2.09997,0.06981 -3.19939,0.69897c-0.99942,0.62583 -2.09941,0.6624 -3.09883,1.28823c-1.99885,1.25166 -3.89826,1.90741 -5.49711,3.14578c-3.09883,1.28823 -5.29767,2.54654 -5.29767,2.54654z" fill="#4f3726"/><path d="M220.31706,178.93395c0,0 0.49943,-0.60921 1.39886,-1.23172c0.79943,-0.61918 1.89885,-1.24834 2.99883,-1.28491c1.09998,-0.03657 2.20053,0.51945 3.00164,1.67803c0.80055,0.56599 1.30166,1.73455 1.30166,1.73455c0,0 -0.49999,0.01662 -1.39998,0.04654c-0.79999,0.02659 -1.89997,0.06316 -2.99995,0.09973c-1.09998,0.03657 -2.19997,0.07314 -2.99995,0.09973c-0.70111,-1.16191 -1.3011,-1.14196 -1.3011,-1.14196z" fill="#4f3726"/><path d="M232.52248,184.45426c0,0 0.79943,-0.61918 1.99941,-0.65908c1.19998,-0.03989 2.79939,-0.68567 4.39993,-0.14627c3.19995,-0.10638 6.40046,0.37983 6.40046,0.37983c0,0 -0.79943,0.61918 -1.99885,1.25166c-1.19942,0.63248 -2.79883,1.27826 -4.39937,0.73886c-1.59997,0.05319 -3.20051,-0.48621 -4.40105,-1.03891c-1.19998,0.03989 -2.00053,-0.5261 -2.00053,-0.5261z" fill="#4f3726"/><path d="M241.51841,180.00695c0,0 1.49942,-0.64245 3.69882,-1.30818c2.1994,-0.66572 5.0988,-1.35472 8.09987,-0.26927c1.50054,0.54272 2.90108,1.08877 4.30105,1.04223c1.40054,0.54605 2.70052,0.50283 3.8005,0.46626c2.20053,0.51945 3.70106,1.06218 3.70106,1.06218c0,0 -5.89822,1.9739 -11.79981,0.39227c-1.50054,-0.54272 -2.90108,-1.08877 -4.30105,-1.04223c-1.39998,0.04654 -2.69996,0.08976 -3.79994,0.12632c-2.20053,-0.51945 -3.7005,-0.46959 -3.7005,-0.46959z" fill="#4f3726"/><path d="M267.92697,188.61074c0,0 -0.89942,0.62251 -2.1994,0.66572c-1.29998,0.04322 -3.09939,0.69564 -4.89992,0.16289c-1.79997,0.05984 -3.6005,-0.47291 -4.90161,-1.61487c-0.70055,-0.56932 -1.20054,-0.5527 -1.6011,-1.13199c-0.40055,-0.57929 -0.60055,-0.57264 -0.60055,-0.57264c0,0 0.2,-0.00665 0.59999,-0.01995c0.39999,-0.0133 0.89999,-0.02992 1.59997,-0.05319c1.29998,-0.04322 3.09995,-0.10305 4.89992,-0.16289c1.79997,-0.05984 3.6005,0.47291 4.90104,1.02228c1.4011,1.13864 2.20165,1.70463 2.20165,1.70463z" fill="#4f3726"/><path d="M249.91267,173.80183c0,0 -0.2,0.00665 -0.49943,0.60921c-0.3,0.00997 -0.59999,0.01995 -0.99942,0.62583c-0.39999,0.0133 -0.69999,0.02327 -1.00055,-0.55934c-0.3,0.00997 -0.50055,-0.57597 -0.50055,-0.57597c0,0 0.2,-0.00665 0.49943,-0.60921c0.3,-0.00997 0.59999,-0.01995 0.99942,-0.62583c0.39999,-0.0133 0.69999,-0.02327 1.00055,0.55934c0.3,-0.00997 0.50055,0.57597 0.50055,0.57597z" fill="#4f3726"/><path d="M251.22387,185.61038c0,0 -0.1,0.00332 -0.39943,0.60589c-0.2,0.00665 -0.49999,0.01662 -0.79943,0.61918c-0.3,0.00997 -0.59999,0.01995 -0.80055,-0.56599c-0.2,0.00665 -0.40055,-0.57929 -0.40055,-0.57929c0,0 0.1,-0.00332 0.39943,-0.60589c0.2,-0.00665 0.49999,-0.01662 0.79943,-0.61918c0.3,-0.00997 0.59999,-0.01995 0.80055,0.56599c0.20056,0.58594 0.40055,0.57929 0.40055,0.57929z" fill="#4f3726"/><path d="M234.61684,178.45857c0,0 -0.2,0.00665 -0.59943,0.61253c-0.39999,0.0133 -0.79999,0.02659 -1.29942,0.6358c-0.49999,0.01662 -0.99998,0.03324 -1.30054,-0.54937c-0.39999,0.0133 -0.60055,-0.57264 -0.60055,-0.57264c0,0 0.2,-0.00665 0.59943,-0.61253c0.39999,-0.0133 0.79999,-0.02659 1.29942,-0.6358c0.49999,-0.01662 0.99998,-0.03324 1.30054,0.54937c0.30056,0.58262 0.60055,0.57264 0.60055,0.57264z" fill="#4f3726"/><path d="M218.01822,180.19558c0,0 -0.09944,0.59591 -0.29943,0.60256c-0.19944,0.59924 -0.39943,0.60589 -0.69887,1.20845c-0.3,0.00997 -0.49943,0.60921 -0.69999,0.02327c-0.2,0.00665 -0.3,0.00997 -0.3,0.00997c0,0 0.09944,-0.59591 0.29943,-0.60256c0.19944,-0.59924 0.39943,-0.60589 0.69887,-1.20845c0.3,-0.00997 0.49943,-0.60921 0.69999,-0.02327c0.09944,-0.59591 0.3,-0.00997 0.3,-0.00997z" fill="#4f3726"/><path d="M210.72282,185.17897c0,0 0.19944,-0.59924 0.39943,-0.60589c0.29943,-0.60256 0.59943,-0.61253 0.99886,-1.21842c0.39999,-0.0133 0.69943,-0.61586 0.99942,-0.62583c0.3,-0.00997 0.39999,-0.0133 0.39999,-0.0133c0,0 -0.19944,0.59924 -0.39943,0.60589c-0.29943,0.60256 -0.59943,0.61253 -0.99886,1.21842c-0.39999,0.0133 -0.69943,0.61586 -0.99942,0.62583c-0.19944,0.59924 -0.39999,0.0133 -0.39999,0.0133z" fill="#4f3726"/><path d="M268.8191,180.28459c0,0 -0.1,0.00332 -0.29943,0.60256c-0.2,0.00665 -0.39999,0.0133 -0.69943,0.61586c-0.2,0.00665 -0.49999,0.01662 -0.70055,-0.56932c-0.2,0.00665 -0.30056,-0.58262 -0.30056,-0.58262c0,0 0.1,-0.00332 0.29943,-0.60256c0.2,-0.00665 0.39999,-0.0133 0.69943,-0.61586c0.2,-0.00665 0.49999,-0.01662 0.70055,0.56932c0.2,-0.00665 0.30056,0.58262 0.30056,0.58262z" fill="#4f3726"/><path d="M220.02268,184.8698c0,0 0.69887,-1.20845 1.79829,-1.8376c1.09942,-0.62916 2.49884,-1.26829 3.99938,-0.72556c0.70055,0.56932 1.40054,0.54605 2.10109,1.11537c0.70055,0.56932 1.3011,1.14196 1.80222,2.31052c0.50055,0.57597 1.00167,1.74452 1.30222,2.32714c0.30056,0.58262 0.50111,1.16856 0.50111,1.16856c0,0 -0.70055,-0.56932 -1.80109,-1.12534c-1.10054,-0.55602 -2.50164,-1.69466 -3.90218,-2.2407c-2.90108,-1.08877 -5.80103,-0.99237 -5.80103,-0.99237z" fill="#4f3726"/></g></g></g></svg>