<svg version="1.1" xmlns="http://www.w3.org/2000/svg" xmlns:xlink="http://www.w3.org/1999/xlink" width="591.4836" height="415.5" viewBox="0,0,591.4836,415.5"><g transform="translate(110.40766,5.22748)"><g data-paper-data="{&quot;isPaintingLayer&quot;:true}" fill-rule="nonzero" stroke-linejoin="miter" stroke-miterlimit="10" stroke-dasharray="" stroke-dashoffset="0" style="mix-blend-mode: normal"><path d="M-1.07594,360.04408v-360.08811h482.15188v360.08811z" fill-opacity="0.6" fill="#8c8c8c" stroke="none" stroke-width="0" stroke-linecap="butt"/><path d="M210.20495,187.27252l-30.5,30.5" fill="none" stroke="#3b9bff" stroke-width="5" stroke-linecap="round"/><path d="M275.20495,177.27252l-30.5,30.5" fill="none" stroke="#3b9bff" stroke-width="5" stroke-linecap="round"/><path d="M155.20495,132.27252l-30.5,30.5" fill="none" stroke="#3b9bff" stroke-width="5" stroke-linecap="round"/><path d="M220.20495,122.27252l-30.5,30.5" fill="none" stroke="#3b9bff" stroke-width="5" stroke-linecap="round"/><path d="M85.20495,182.27252l-30.5,30.5" fill="none" stroke="#3b9bff" stroke-width="5" stroke-linecap="round"/><path d="M150.20495,172.27252l-30.5,30.5" fill="none" stroke="#3b9bff" stroke-width="5" stroke-linecap="round"/><path d="M335.20495,267.27252l-30.5,30.5" fill="none" stroke="#3b9bff" stroke-width="5" stroke-linecap="round"/><path d="M400.20495,257.27252l-30.5,30.5" fill="none" stroke="#3b9bff" stroke-width="5" stroke-linecap="round"/><path d="M280.20495,212.27252l-30.5,30.5" fill="none" stroke="#3b9bff" stroke-width="5" stroke-linecap="round"/><path d="M345.20495,202.27252l-30.5,30.5" fill="none" stroke="#3b9bff" stroke-width="5" stroke-linecap="round"/><path d="M210.20495,262.27252l-30.5,30.5" fill="none" stroke="#3b9bff" stroke-width="5" stroke-linecap="round"/><path d="M275.20495,252.27252l-30.5,30.5" fill="none" stroke="#3b9bff" stroke-width="5" stroke-linecap="round"/><path d="M155.20495,297.27252l-30.5,30.5" fill="none" stroke="#3b9bff" stroke-width="5" stroke-linecap="round"/><path d="M220.20495,287.27252l-30.5,30.5" fill="none" stroke="#3b9bff" stroke-width="5" stroke-linecap="round"/><path d="M100.20495,242.27252l-30.5,30.5" fill="none" stroke="#3b9bff" stroke-width="5" stroke-linecap="round"/><path d="M165.20495,232.27252l-30.5,30.5" fill="none" stroke="#3b9bff" stroke-width="5" stroke-linecap="round"/><path d="M30.20495,292.27252l-30.5,30.5" fill="none" stroke="#3b9bff" stroke-width="5" stroke-linecap="round"/><path d="M280.20495,377.27252l-30.5,30.5" fill="none" stroke="#3b9bff" stroke-width="5" stroke-linecap="round"/><path d="M345.20495,367.27252l-30.5,30.5" fill="none" stroke="#3b9bff" stroke-width="5" stroke-linecap="round"/><path d="M225.20495,322.27252l-30.5,30.5" fill="none" stroke="#3b9bff" stroke-width="5" stroke-linecap="round"/><path d="M290.20495,312.27252l-30.5,30.5" fill="none" stroke="#3b9bff" stroke-width="5" stroke-linecap="round"/><path d="M155.20495,372.27252l-30.5,30.5" fill="none" stroke="#3b9bff" stroke-width="5" stroke-linecap="round"/><path d="M220.20495,362.27252l-30.5,30.5" fill="none" stroke="#3b9bff" stroke-width="5" stroke-linecap="round"/><path d="M281.20495,62.27252l-30.5,30.5" fill="none" stroke="#3b9bff" stroke-width="5" stroke-linecap="round"/><path d="M346.20495,52.27252l-30.5,30.5" fill="none" stroke="#3b9bff" stroke-width="5" stroke-linecap="round"/><path d="M226.20495,7.27252l-30.5,30.5" fill="none" stroke="#3b9bff" stroke-width="5" stroke-linecap="round"/><path d="M291.20495,-2.72748l-30.5,30.5" fill="none" stroke="#3b9bff" stroke-width="5" stroke-linecap="round"/><path d="M156.20495,57.27252l-30.5,30.5" fill="none" stroke="#3b9bff" stroke-width="5" stroke-linecap="round"/><path d="M221.20495,47.27252l-30.5,30.5" fill="none" stroke="#3b9bff" stroke-width="5" stroke-linecap="round"/><path d="M406.20495,142.27252l-30.5,30.5" fill="none" stroke="#3b9bff" stroke-width="5" stroke-linecap="round"/><path d="M471.20495,132.27252l-30.5,30.5" fill="none" stroke="#3b9bff" stroke-width="5" stroke-linecap="round"/><path d="M351.20495,87.27252l-30.5,30.5" fill="none" stroke="#3b9bff" stroke-width="5" stroke-linecap="round"/><path d="M416.20495,77.27252l-30.5,30.5" fill="none" stroke="#3b9bff" stroke-width="5" stroke-linecap="round"/><path d="M281.20495,137.27252l-30.5,30.5" fill="none" stroke="#3b9bff" stroke-width="5" stroke-linecap="round"/><path d="M346.20495,127.27252l-30.5,30.5" fill="none" stroke="#3b9bff" stroke-width="5" stroke-linecap="round"/><path d="M102.59234,192.27252l-30.5,30.5" fill="none" stroke="#3b9bff" stroke-width="5" stroke-linecap="round"/><path d="M47.59234,137.27252l-30.5,30.5" fill="none" stroke="#3b9bff" stroke-width="5" stroke-linecap="round"/><path d="M112.59234,127.27252l-30.5,30.5" fill="none" stroke="#3b9bff" stroke-width="5" stroke-linecap="round"/><path d="M-22.40766,187.27252l-30.5,30.5" fill="none" stroke="#3b9bff" stroke-width="5" stroke-linecap="round"/><path d="M42.59234,177.27252l-30.5,30.5" fill="none" stroke="#3b9bff" stroke-width="5" stroke-linecap="round"/><path d="M102.59234,267.27252l-30.5,30.5" fill="none" stroke="#3b9bff" stroke-width="5" stroke-linecap="round"/><path d="M47.59234,302.27252l-30.5,30.5" fill="none" stroke="#3b9bff" stroke-width="5" stroke-linecap="round"/><path d="M112.59234,292.27252l-30.5,30.5" fill="none" stroke="#3b9bff" stroke-width="5" stroke-linecap="round"/><path d="M-7.40766,247.27252l-30.5,30.5" fill="none" stroke="#3b9bff" stroke-width="5" stroke-linecap="round"/><path d="M57.59234,237.27252l-30.5,30.5" fill="none" stroke="#3b9bff" stroke-width="5" stroke-linecap="round"/><path d="M-77.40766,297.27252l-30.5,30.5" fill="none" stroke="#3b9bff" stroke-width="5" stroke-linecap="round"/><path d="M-12.40766,287.27252l-30.5,30.5" fill="none" stroke="#3b9bff" stroke-width="5" stroke-linecap="round"/><path d="M117.59234,327.27252l-30.5,30.5" fill="none" stroke="#3b9bff" stroke-width="5" stroke-linecap="round"/><path d="M47.59234,377.27252l-30.5,30.5" fill="none" stroke="#3b9bff" stroke-width="5" stroke-linecap="round"/><path d="M112.59234,367.27252l-30.5,30.5" fill="none" stroke="#3b9bff" stroke-width="5" stroke-linecap="round"/><path d="M118.59234,12.27252l-30.5,30.5" fill="none" stroke="#3b9bff" stroke-width="5" stroke-linecap="round"/><path d="M48.59234,62.27252l-30.5,30.5" fill="none" stroke="#3b9bff" stroke-width="5" stroke-linecap="round"/><path d="M113.59234,52.27252l-30.5,30.5" fill="none" stroke="#3b9bff" stroke-width="5" stroke-linecap="round"/></g></g></svg>