<svg version="1.1" xmlns="http://www.w3.org/2000/svg" xmlns:xlink="http://www.w3.org/1999/xlink" width="52.09294" height="61.23983" viewBox="0,0,52.09294,61.23983"><g transform="translate(-212.74068,-149.2865)"><g data-paper-data="{&quot;isPaintingLayer&quot;:true}" fill-rule="nonzero" stroke-linejoin="miter" stroke-miterlimit="10" stroke-dasharray="" stroke-dashoffset="0" style="mix-blend-mode: normal"><path d="M224.57952,209.52633v-56.53764h28.70824v56.53765z" fill="#000000" stroke="#000000" stroke-width="2" stroke-linecap="butt"/><path d="M224.28657,182.2828c0,2.58859 -2.36078,4.68706 -5.27294,4.68706c-2.91216,0 -5.27294,-2.09847 -5.27294,-4.68706c0,-2.58859 2.36078,-4.68706 5.27294,-4.68706c2.91216,0 5.27294,2.09847 5.27294,4.68706z" fill="#ffffff" stroke="#000000" stroke-width="2" stroke-linecap="butt"/><path d="M263.83363,182.28279c0,2.58859 -2.36077,4.68706 -5.27294,4.68706c-2.91216,0 -5.27294,-2.09847 -5.27294,-4.68706c0,-2.58859 2.36078,-4.68705 5.27294,-4.68705c2.91217,0 5.27294,2.09846 5.27294,4.68705z" fill="#ffffff" stroke="#000000" stroke-width="2" stroke-linecap="butt"/><path d="M224.57952,179.64632v-26.65764h28.70824v26.65765z" fill="#ffffff" stroke="#000000" stroke-width="2" stroke-linecap="butt"/><path d="M238.34775,163.24158v7.03059" fill="#ffd499" stroke="#000000" stroke-width="2" stroke-linecap="round"/><path d="M247.74187,163.26161v7.03059" fill="#ffd499" stroke="#000000" stroke-width="2" stroke-linecap="round"/><path d="M224.57954,160.97045v-10.68395h28.70824v10.68395z" fill="#331100" stroke="#000000" stroke-width="2" stroke-linecap="butt"/><path d="M248.10651,173.03672c0,0 -3.67809,3.5336 -5.40434,3.5336c-1.58792,0 -4.5729,-3.5336 -4.5729,-3.5336" fill="none" stroke="#000000" stroke-width="2" stroke-linecap="round"/><path d="M229.57954,160.98185v-2.99316h28.70824v2.99316z" fill="#ff6300" stroke="#000000" stroke-width="2" stroke-linecap="butt"/><path d="M241.85052,149.56167c0.10295,0 0.20589,0 0.30884,0c0.03902,0.68171 0.39438,1.04685 0.51472,1.64713c-0.19981,0.71877 -0.6924,0.8145 -1.13239,1.44124c0.75047,0.82799 1.84776,1.30926 1.95596,2.77952c0,0.13723 0,0.27457 0,0.41178c-0.42443,1.73741 -1.03079,3.29292 -2.47069,4.01489c-0.17162,0 -0.34312,0 -0.51473,0c-0.5064,-0.52308 -0.91838,-1.14054 -1.23535,-1.85303c0.65628,-0.65947 1.74729,-1.00979 1.75008,-1.95597c0.0034,-1.14557 -1.87877,-1.50413 -1.95597,-2.77952c0,-0.17162 0,-0.34312 0,-0.51473c0.50289,-1.48747 1.22094,-2.75967 2.77954,-3.19132zM239.89456,151.4147c-0.02955,1.26118 -0.24635,1.73237 0.41178,2.47069c0.4438,0.49796 1.17069,0.64867 1.3383,1.1324c0.3392,0.97922 -0.33118,2.04656 -1.23535,2.57365c0.11509,0.50258 0.22967,1.00567 0.72062,1.1324c1.01947,-1.06858 2.49879,-2.1809 1.95596,-3.91194c-0.33745,-1.07608 -2.09246,-1.35517 -2.16185,-2.36774c-0.0521,-0.75964 0.71402,-1.19829 1.33828,-1.23535c-0.18015,-0.40324 -0.20877,-0.95791 -0.51472,-1.23535c-0.68593,0.4122 -1.42189,0.77426 -1.85302,1.44124z" fill="#000000" stroke="none" stroke-width="0.7942" stroke-linecap="butt"/><path d="M241.74758,149.97346c0.30595,0.27744 0.33457,0.83211 0.51472,1.23535c-0.62426,0.03706 -1.39038,0.47571 -1.33828,1.23535c0.06939,1.01257 1.8244,1.29166 2.16185,2.36774c0.54283,1.73104 -0.93649,2.84336 -1.95596,3.91194c-0.49096,-0.12673 -0.60553,-0.62982 -0.72062,-1.1324c0.90417,-0.52708 1.57455,-1.59443 1.23535,-2.57365c-0.1676,-0.48374 -0.8945,-0.63445 -1.3383,-1.1324c-0.65813,-0.73831 -0.44134,-1.2095 -0.41178,-2.47069c0.43114,-0.66698 1.16709,-1.02904 1.85302,-1.44124z" fill="#ff9400" stroke="none" stroke-width="0.7942" stroke-linecap="butt"/><text transform="translate(224.56919,191.35572) scale(0.17353,0.17353)" font-size="40" xml:space="preserve" fill="#ff9400" fill-rule="nonzero" stroke="none" stroke-width="1" stroke-linecap="butt" stroke-linejoin="miter" stroke-miterlimit="10" stroke-dasharray="" stroke-dashoffset="0" font-family="Marker" font-weight="normal" text-anchor="start" style="mix-blend-mode: normal"><tspan x="0" dy="0">SCRATCH</tspan></text></g></g></svg>