<svg version="1.1" xmlns="http://www.w3.org/2000/svg" xmlns:xlink="http://www.w3.org/1999/xlink" width="52.09294" height="58.53765" viewBox="0,0,52.09294,58.53765"><g transform="translate(-212.74069,-151.98866)"><g data-paper-data="{&quot;isPaintingLayer&quot;:true}" fill-rule="nonzero" stroke="#000000" stroke-width="2" stroke-linejoin="miter" stroke-miterlimit="10" stroke-dasharray="" stroke-dashoffset="0" style="mix-blend-mode: normal"><path d="M224.57953,209.5263v-56.53764h28.70824v56.53765z" fill="#003fff" stroke-linecap="butt"/><path d="M224.28658,182.2828c0,2.58859 -2.36078,4.68706 -5.27294,4.68706c-2.91216,0 -5.27294,-2.09847 -5.27294,-4.68706c0,-2.58859 2.36078,-4.68706 5.27294,-4.68706c2.91216,0 5.27294,2.09847 5.27294,4.68706z" fill="#ffd499" stroke-linecap="butt"/><path d="M263.83364,182.28279c0,2.58859 -2.36077,4.68706 -5.27294,4.68706c-2.91216,0 -5.27294,-2.09847 -5.27294,-4.68706c0,-2.58859 2.36078,-4.68705 5.27294,-4.68705c2.91217,0 5.27294,2.09846 5.27294,4.68705z" fill="#ffd499" stroke-linecap="butt"/><path d="M224.57953,179.64632v-26.65764h28.70824v26.65765z" fill="#ffd499" stroke-linecap="butt"/><path d="M238.34775,163.2416v7.03059" fill="#ffd499" stroke-linecap="round"/><path d="M247.74188,163.2616v7.03059" fill="#ffd499" stroke-linecap="round"/><path d="M224.28658,182.28278c0,2.58859 -2.36078,4.68706 -5.27294,4.68706c-2.91216,0 -5.27294,-2.09847 -5.27294,-4.68706c0,-2.58859 2.36078,-4.68705 5.27294,-4.68705c2.91216,0 5.27294,2.09846 5.27294,4.68705z" fill="none" stroke-linecap="butt"/></g></g></svg>