<svg version="1.1" xmlns="http://www.w3.org/2000/svg" xmlns:xlink="http://www.w3.org/1999/xlink" width="62.54998" height="68.75499" viewBox="0,0,62.54998,68.75499"><g transform="translate(-208.72501,-141.56339)"><g data-paper-data="{&quot;isPaintingLayer&quot;:true}" fill-rule="nonzero" stroke-miterlimit="10" stroke-dasharray="" stroke-dashoffset="0" style="mix-blend-mode: normal"><path d="" fill="#000000" stroke="#620078" stroke-width="10" stroke-linecap="butt" stroke-linejoin="miter"/><path d="" fill="#ffc93e" stroke="#603813" stroke-width="1.32684" stroke-linecap="round" stroke-linejoin="round"/><path d="M209.38843,179.04339c0,-3.48217 4.8087,-31.25354 4.8087,-31.25354c0,0 8.05936,23.55351 11.28162,17.27579c3.00593,-5.85624 7.13552,-22.06958 11.68413,-22.83884c4.54324,-0.76835 9.5045,18.07393 14.18162,22.2101c3.87604,3.42774 7.55694,-19.23897 10.64306,-17.55599c5.1355,2.80058 8.62401,29.02698 8.62401,32.16247c0,16.9063 -13.70527,30.61157 -30.61157,30.61157c-16.9063,0 -30.61157,-13.70527 -30.61157,-30.61157z" fill="#ff8500" stroke="#603813" stroke-width="1.32684" stroke-linecap="butt" stroke-linejoin="miter"/><path d="M219.37372,186.88124c0,-2.34631 3.24013,-21.05884 3.24013,-21.05884c0,0 5.43045,15.87051 7.60163,11.64055c2.02542,-3.94597 4.80796,-14.87063 7.87284,-15.38896c3.06126,-0.51772 6.40419,12.17834 9.55567,14.96532c2.6117,2.30963 5.09192,-12.96335 7.17136,-11.82935c3.46033,1.88705 5.81091,19.55857 5.81091,21.67129c0,11.39158 -9.2347,20.62628 -20.62628,20.62628c-11.39158,0 -20.62628,-9.2347 -20.62628,-20.62628z" fill="#ffce00" stroke="#603813" stroke-width="0" stroke-linecap="butt" stroke-linejoin="miter"/></g></g></svg>