<svg version="1.1" xmlns="http://www.w3.org/2000/svg" xmlns:xlink="http://www.w3.org/1999/xlink" width="63.5037" height="24.12598" viewBox="0,0,63.5037,24.12598"><defs><radialGradient cx="239.11725" cy="175.70562" r="38.9024" gradientUnits="userSpaceOnUse" id="color-1"><stop offset="0" stop-color="#006622"/><stop offset="1" stop-color="#009933"/></radialGradient></defs><g transform="translate(-208.24815,-167.93701)"><g data-paper-data="{&quot;isPaintingLayer&quot;:true}" fill="url(#color-1)" fill-rule="nonzero" stroke="none" stroke-width="0.86553" stroke-linecap="round" stroke-linejoin="miter" stroke-miterlimit="10" stroke-dasharray="" stroke-dashoffset="0" style="mix-blend-mode: normal"><path d="M235.75185,168.06022c8.625,-0.6445 18.932,1.3447 25.449,3.5167c6.517,2.1727 10.551,5.1727 10.551,8.4833c0,3.3106 -5.373,7.6645 -10.551,8.4833c-4.631,0.7228 -8.869,-3.7581 -13.449,-3.3303c-2.309,0.1898 -1.367,3.4694 -3.5,4.5176c-2.162,1.4019 -5.427,2.3915 -8.5,2.3294c-6.368,-0.1299 -12.258,-0.3981 -16.5,-2.8235c-5.63,-2.7184 -10.516,-7.1619 -11,-11.5059c-0.161,-1.9835 4.968,-1.9864 7.5,-3c6.404,-2.544 12.443,-6.1087 20,-6.6706z"/></g></g></svg>