<svg version="1.1" xmlns="http://www.w3.org/2000/svg" xmlns:xlink="http://www.w3.org/1999/xlink" width="52.09295" height="58.53766" viewBox="0,0,52.09295,58.53766"><g transform="translate(-212.74072,-151.98872)"><g data-paper-data="{&quot;isPaintingLayer&quot;:true}" fill-rule="nonzero" stroke="#000000" stroke-linejoin="miter" stroke-miterlimit="10" stroke-dasharray="" stroke-dashoffset="0" style="mix-blend-mode: normal"><path d="M224.57957,209.52637v-29.7689h28.70824v29.7689z" fill="#00cc44" stroke-width="2" stroke-linecap="butt"/><path d="M224.28661,182.28284c0,2.58859 -2.36078,4.68706 -5.27294,4.68706c-2.91216,0 -5.27294,-2.09847 -5.27294,-4.68706c0,-2.58859 2.36078,-4.68706 5.27294,-4.68706c2.91216,0 5.27294,2.09847 5.27294,4.68706z" fill="#ffff00" stroke-width="2" stroke-linecap="butt"/><path d="M263.83368,182.28283c0,2.58859 -2.36077,4.68706 -5.27294,4.68706c-2.91216,0 -5.27294,-2.09847 -5.27294,-4.68706c0,-2.58859 2.36078,-4.68705 5.27294,-4.68705c2.91217,0 5.27294,2.09846 5.27294,4.68705z" fill="#ffff00" stroke-width="2" stroke-linecap="butt"/><path d="M224.57957,179.64636v-26.65764h28.70824v26.65765z" fill="#ffff00" stroke-width="2" stroke-linecap="butt"/><path d="M238.34779,170.27222v-7.03059" fill="#ffd499" stroke-width="2" stroke-linecap="round"/><path d="M247.74192,163.26164v7.03059" fill="#ffd499" stroke-width="2" stroke-linecap="round"/><path d="M224.57957,197.78256v-18.0251h28.70824v18.0251z" fill="#003fff" stroke-width="0" stroke-linecap="butt"/><path d="M224.57957,209.52638v-29.7689h28.70824v29.7689z" fill="none" stroke-width="2" stroke-linecap="butt"/></g></g></svg>