<svg version="1.1" xmlns="http://www.w3.org/2000/svg" xmlns:xlink="http://www.w3.org/1999/xlink" width="60.47475" height="35.55711" viewBox="0,0,60.47475,35.55711"><defs><radialGradient cx="239.15938" cy="173.67089" r="42.4565" gradientUnits="userSpaceOnUse" id="color-1"><stop offset="0" stop-color="#006622"/><stop offset="1" stop-color="#009933"/></radialGradient></defs><g transform="translate(-209.76262,-162.22144)"><g data-paper-data="{&quot;isPaintingLayer&quot;:true}" fill="url(#color-1)" fill-rule="nonzero" stroke="none" stroke-width="0.86553" stroke-linecap="round" stroke-linejoin="miter" stroke-miterlimit="10" stroke-dasharray="" stroke-dashoffset="0" style="mix-blend-mode: normal"><path d="M228.98738,162.23459c2.943,-0.2993 2.28,4.6087 5.5,4.9765c4.646,0.5202 9.72,-4.5889 13.5,-2.9647c6.198,2.6732 7.515,9.2626 11.699,13.0461c3.296,2.9435 10.551,5.1727 10.551,8.4833c0,3.3106 -5.373,7.6645 -10.551,8.4833c-4.631,0.7228 -8.869,-3.7581 -13.449,-3.3303c-2.309,0.1898 -1.367,3.4694 -3.5,4.5176c-2.162,1.4019 -5.427,2.3915 -8.5,2.3294c-6.368,-0.1299 -11.766,-0.648 -16.5,-2.8235c-3.895,-1.7894 -6.224,-4.7315 -6.75,-7.7294c-1.043,-5.9351 -2.543,-12.6473 1,-18c3.241,-4.0659 10.827,-6.36 17,-6.9883z"/></g></g></svg>