<svg version="1.1" xmlns="http://www.w3.org/2000/svg" xmlns:xlink="http://www.w3.org/1999/xlink" width="52.09294" height="58.15016" viewBox="0,0,52.09294,58.15016"><g transform="translate(-212.7407,-151.98869)"><g data-paper-data="{&quot;isPaintingLayer&quot;:true}" fill-rule="nonzero" stroke="#000000" stroke-linejoin="miter" stroke-miterlimit="10" stroke-dasharray="" stroke-dashoffset="0" style="mix-blend-mode: normal"><path d="M253.28778,209.52636v0.11249h-28.70824v-0.11249z" fill="#ff0000" stroke-width="1" stroke-linecap="butt"/><path d="M224.28659,182.28282c0,2.58859 -2.36078,4.68706 -5.27294,4.68706c-2.91216,0 -5.27294,-2.09847 -5.27294,-4.68706c0,-2.58859 2.36078,-4.68706 5.27294,-4.68706c2.91216,0 5.27294,2.09847 5.27294,4.68706z" fill="#ffd499" stroke-width="2" stroke-linecap="butt"/><path d="M263.83365,182.28281c0,2.58859 -2.36077,4.68706 -5.27294,4.68706c-2.91216,0 -5.27294,-2.09847 -5.27294,-4.68706c0,-2.58859 2.36078,-4.68705 5.27294,-4.68705c2.91217,0 5.27294,2.09846 5.27294,4.68705z" fill="#ffd499" stroke-width="2" stroke-linecap="butt"/><path d="M224.57954,179.64634v-26.65764h28.70824v26.65765z" fill="#ffd499" stroke-width="2" stroke-linecap="butt"/><path d="M244.35131,167.72721h-2.17885h-16.80828" fill="none" stroke-width="2" stroke-linecap="round"/><path d="M234.07959,172.08492v-10.58299h7.78161v10.58299z" fill="#ffd499" stroke-width="2" stroke-linecap="butt"/><path d="M238.34777,170.2722v-7.03059" fill="#ffd499" stroke-width="2" stroke-linecap="round"/><path d="M247.74189,163.26163v7.03059" fill="#ffd499" stroke-width="2" stroke-linecap="round"/><path d="M224.57954,160.97047v-7.98178h28.70824v7.98178z" fill="#ff9500" stroke-width="2" stroke-linecap="butt"/><path d="M244.35131,172.08492v-10.58299h7.78161v10.58299z" fill="none" stroke-width="2" stroke-linecap="butt"/></g></g></svg>