<svg version="1.1" xmlns="http://www.w3.org/2000/svg" xmlns:xlink="http://www.w3.org/1999/xlink" width="414.57191" height="348.17836" viewBox="0,0,414.57191,348.17836"><g transform="translate(-32.71404,-6.95275)"><g data-paper-data="{&quot;isPaintingLayer&quot;:true}" fill-rule="nonzero" stroke-linejoin="miter" stroke-miterlimit="10" stroke-dasharray="" stroke-dashoffset="0" style="mix-blend-mode: normal"><path d="M254.06286,45.37994l-26.5298,63.1166l-39.01441,-20.22967l-39.0144,42.88693l-48.37784,-44.50532l-34.33267,12.13783l-21.84804,-55.02475z" fill="#6d5326" stroke="#6d5326" stroke-width="10" stroke-linecap="round"/><path d="M262.04476,37.65732c0,14.19624 -50.21815,25.70457 -112.16536,25.70457c-61.94721,0 -112.16536,-11.50831 -112.16536,-25.70457c0,-14.19624 50.21812,-25.70457 112.16536,-25.70457c61.94721,0 112.16536,11.50831 112.16536,25.70457z" fill="#1bd700" stroke="#1bd700" stroke-width="10" stroke-linecap="butt"/><path d="M434.30406,262.27339l-26.5298,63.1166l-39.01441,-20.22967l-39.0144,42.88693l-48.37784,-44.50532l-34.33267,12.13783l-21.84804,-55.02475z" fill="#6d5326" stroke="#6d5326" stroke-width="10" stroke-linecap="round"/><path d="M442.28596,254.55077c0,14.19624 -50.21815,25.70457 -112.16536,25.70457c-61.94721,0 -112.16536,-11.50831 -112.16536,-25.70457c0,-14.19624 50.21812,-25.70457 112.16536,-25.70457c61.94721,0 112.16536,11.50831 112.16536,25.70457z" fill="#1bd700" stroke="#1bd700" stroke-width="10" stroke-linecap="butt"/><path d="M151.42371,55.38232l114.84374,178.37432" fill="none" stroke="#9b7636" stroke-width="15" stroke-linecap="round"/><path d="M213.84558,45.72142l114.84374,178.37432" fill="none" stroke="#9b7636" stroke-width="15" stroke-linecap="round"/><path d="M172.7759,101.6218l74.38434,-14.30835" fill="none" stroke="#9b7636" stroke-width="15" stroke-linecap="round"/><path d="M196.17553,137.65648l74.38434,-14.30835" fill="none" stroke="#9b7636" stroke-width="15" stroke-linecap="round"/><path d="M220.7749,173.46039l74.38434,-14.30835" fill="none" stroke="#9b7636" stroke-width="15" stroke-linecap="round"/><path d="M242.95278,209.49507l74.38434,-14.30835" fill="none" stroke="#9b7636" stroke-width="15" stroke-linecap="round"/></g></g></svg>