<svg version="1.1" xmlns="http://www.w3.org/2000/svg" xmlns:xlink="http://www.w3.org/1999/xlink" width="525.89171" height="360" viewBox="0,0,525.89171,360"><defs><linearGradient x1="247.05412" y1="242.56487" x2="247.05412" y2="327.43517" gradientUnits="userSpaceOnUse" id="color-1"><stop offset="0" stop-color="#ffffff"/><stop offset="1" stop-color="#cccccc"/></linearGradient><radialGradient cx="328.97442" cy="284.91397" r="80.0417" gradientUnits="userSpaceOnUse" id="color-2"><stop offset="0" stop-color="#ffffff"/><stop offset="1" stop-color="#cccccc"/></radialGradient><linearGradient x1="-7.94588" y1="227.56487" x2="-7.94588" y2="312.43517" gradientUnits="userSpaceOnUse" id="color-3"><stop offset="0" stop-color="#ffffff"/><stop offset="1" stop-color="#cccccc"/></linearGradient><radialGradient cx="73.97442" cy="269.91397" r="80.0417" gradientUnits="userSpaceOnUse" id="color-4"><stop offset="0" stop-color="#ffffff"/><stop offset="1" stop-color="#cccccc"/></radialGradient><linearGradient x1="382.05412" y1="197.56487" x2="382.05412" y2="282.43517" gradientUnits="userSpaceOnUse" id="color-5"><stop offset="0" stop-color="#ffffff"/><stop offset="1" stop-color="#cccccc"/></linearGradient><radialGradient cx="463.97442" cy="239.91397" r="80.0417" gradientUnits="userSpaceOnUse" id="color-6"><stop offset="0" stop-color="#ffffff"/><stop offset="1" stop-color="#cccccc"/></radialGradient><linearGradient x1="112.05412" y1="272.56487" x2="112.05412" y2="357.43517" gradientUnits="userSpaceOnUse" id="color-7"><stop offset="0" stop-color="#ffffff"/><stop offset="1" stop-color="#cccccc"/></linearGradient><radialGradient cx="193.97442" cy="314.91397" r="80.0417" gradientUnits="userSpaceOnUse" id="color-8"><stop offset="0" stop-color="#ffffff"/><stop offset="1" stop-color="#cccccc"/></radialGradient></defs><g transform="translate(7.94586,0)"><g data-paper-data="{&quot;isPaintingLayer&quot;:true}" fill-rule="nonzero" stroke-linejoin="miter" stroke-miterlimit="10" stroke-dasharray="" stroke-dashoffset="0" style="mix-blend-mode: normal"><path d="M0.1083,0h479.9777v360h-479.9777z" fill="#d0f6ff" stroke="none" stroke-width="1.00207" stroke-linecap="butt"/><path d="M72,128l0.3,0.3" fill="none" stroke="#ccd8ff" stroke-width="2" stroke-linecap="round"/><path d="M316.94562,245.22657c11.9314,-2.9624 25.5788,-4.3515 37.3805,0.6931c4.1469,2.0143 -1.3854,12.1991 1.4602,16.4965c1.5688,2.3677 5.5335,-3.7886 7.5345,-1.4556c8.0064,8.0625 19.5734,16.9401 19.6248,29.666c0.0537,13.078 -9.2541,26.5067 -19.3433,32.0947c-14.1275,7.8088 -31.2092,3.8163 -46.7736,2.7004c-14.5445,-1.0425 -28.6743,-6.1273 -43.046,-9.0107c-7.128,-1.1118 -15.1858,1.1492 -21.4938,-2.9804c-3.8397,-2.5133 -6.0334,-9.2298 -4.9646,-14.4865c1.5583,-6.1092 11.2259,-5.8333 12.9664,-11.9911c1.7791,-6.3033 -6.1222,-13.7836 -3.9717,-20.5166c1.6284,-4.5705 7.9854,-4.2143 12.4991,-4.9906c7.7355,-1.3183 15.9615,2.3788 23.4797,0c9.0542,-2.9042 15.4615,-13.9388 24.6478,-16.2192z" fill="url(#color-1)" stroke="none" stroke-width="1.28185" stroke-linecap="round"/><path d="M319.10972,252.10897c5.1579,-1.8207 10.8492,-2.0078 14.7291,1.2996c3.2744,2.3705 1.14,8.576 2.6283,12.476c1.1466,3.0112 2.7859,6.8294 5.366,9.0322c2.4049,1.5855 5.469,1.1813 8.4871,1.4945c4.8108,0.4614 10.34,-3.0085 14.5101,-0.4549c6.8784,4.0262 16.7234,9.821 16.1528,18.7141c-0.7972,12.411 -13.3811,19.1897 -19.6571,29.2407c-1.3382,2.5823 3.6774,0.6524 1.5233,0.8473c-8.6097,0.7759 -15.9119,2.5849 -24.0277,2.2067c-9.9907,-0.733 -19.5783,-2.1612 -30.0059,-5.5232c-7.5114,-2.5082 -13.2234,-10.5748 -20.9713,-12.4761c-7.8377,-1.9246 -16.8384,3.5596 -24.0376,0.4549c-3.3335,-1.4503 -6.4173,-7.9769 -4.4899,-11.5013c2.6775,-4.8033 11.6968,-0.6992 15.0029,-5.4583c2.1059,-3.1606 -2.3139,-7.5532 -1.9712,-11.5013c-0.4489,-4.6318 -1.9591,-11.708 1.6427,-13.6457c6.6692,-3.5947 14.9635,2.2301 22.0116,0c8.4882,-2.7226 14.6788,-12.2109 23.1068,-15.2052z" fill="url(#color-2)" stroke="none" stroke-width="1.20171" stroke-linecap="round"/><path d="M61.94562,230.22657c11.9314,-2.9624 25.5788,-4.3515 37.3805,0.6931c4.1469,2.0143 -1.3854,12.1991 1.4602,16.4965c1.5688,2.3677 5.5335,-3.7886 7.5345,-1.4556c8.0064,8.0625 19.5734,16.9401 19.6248,29.666c0.0537,13.078 -9.2541,26.5067 -19.3433,32.0947c-14.1275,7.8088 -31.2092,3.8163 -46.7736,2.7004c-14.5445,-1.0425 -28.6743,-6.1273 -43.046,-9.0107c-7.128,-1.1118 -15.1858,1.1492 -21.4938,-2.9804c-3.8397,-2.5133 -6.0334,-9.2298 -4.9646,-14.4865c1.5583,-6.1092 11.2259,-5.8333 12.9664,-11.9911c1.7791,-6.3033 -6.1222,-13.7836 -3.9717,-20.5166c1.6284,-4.5705 7.9854,-4.2143 12.4991,-4.9906c7.7355,-1.3183 15.9615,2.3788 23.4797,0c9.0542,-2.9042 15.4615,-13.9388 24.6478,-16.2192z" fill="url(#color-3)" stroke="none" stroke-width="1.28185" stroke-linecap="round"/><path d="M64.10972,237.10897c5.1579,-1.8207 10.8492,-2.0078 14.7291,1.2996c3.2744,2.3705 1.14,8.576 2.6283,12.476c1.1466,3.0112 2.7859,6.8294 5.366,9.0322c2.4049,1.5855 5.469,1.1813 8.4871,1.4945c4.8108,0.4614 10.34,-3.0085 14.5101,-0.4549c6.8784,4.0262 16.7234,9.821 16.1528,18.7141c-0.7972,12.411 -13.3811,19.1897 -19.6571,29.2407c-1.3382,2.5823 3.6774,0.6524 1.5233,0.8473c-8.6097,0.7759 -15.9119,2.5849 -24.0277,2.2067c-9.9907,-0.733 -19.5783,-2.1612 -30.0059,-5.5232c-7.5114,-2.5082 -13.2234,-10.5748 -20.9713,-12.4761c-7.8377,-1.9246 -16.8384,3.5596 -24.0376,0.4549c-3.3335,-1.4503 -6.4173,-7.9769 -4.4899,-11.5013c2.6775,-4.8033 11.6968,-0.6992 15.0029,-5.4583c2.1059,-3.1606 -2.3139,-7.5532 -1.9712,-11.5013c-0.4489,-4.6318 -1.9591,-11.708 1.6427,-13.6457c6.6692,-3.5947 14.9635,2.2301 22.0116,0c8.4882,-2.7226 14.6788,-12.2109 23.1068,-15.2052z" fill="url(#color-4)" stroke="none" stroke-width="1.20171" stroke-linecap="round"/><path d="M451.94562,200.22657c11.9314,-2.9624 25.5788,-4.3515 37.3805,0.6931c4.1469,2.0143 -1.3854,12.1991 1.4602,16.4965c1.5688,2.3677 5.5335,-3.7886 7.5345,-1.4556c8.0064,8.0625 19.5734,16.9401 19.6248,29.666c0.0537,13.078 -9.2541,26.5067 -19.3433,32.0947c-14.1275,7.8088 -31.2092,3.8163 -46.7736,2.7004c-14.5445,-1.0425 -28.6743,-6.1273 -43.046,-9.0107c-7.128,-1.1118 -15.1858,1.1492 -21.4938,-2.9804c-3.8397,-2.5133 -6.0334,-9.2298 -4.9646,-14.4865c1.5583,-6.1092 11.2259,-5.8333 12.9664,-11.9911c1.7791,-6.3033 -6.1222,-13.7836 -3.9717,-20.5166c1.6284,-4.5705 7.9854,-4.2143 12.4991,-4.9906c7.7355,-1.3183 15.9615,2.3788 23.4797,0c9.0542,-2.9042 15.4615,-13.9388 24.6478,-16.2192z" fill="url(#color-5)" stroke="none" stroke-width="1.28185" stroke-linecap="round"/><path d="M454.10972,207.10897c5.1579,-1.8207 10.8492,-2.0078 14.7291,1.2996c3.2744,2.3705 1.14,8.576 2.6283,12.476c1.1466,3.0112 2.7859,6.8294 5.366,9.0322c2.4049,1.5855 5.469,1.1813 8.4871,1.4945c4.8108,0.4614 10.34,-3.0085 14.5101,-0.4549c6.8784,4.0262 16.7234,9.821 16.1528,18.7141c-0.7972,12.411 -13.3811,19.1897 -19.6571,29.2407c-1.3382,2.5823 3.6774,0.6524 1.5233,0.8473c-8.6097,0.7759 -15.9119,2.5849 -24.0277,2.2067c-9.9907,-0.733 -19.5783,-2.1612 -30.0059,-5.5232c-7.5114,-2.5082 -13.2234,-10.5748 -20.9713,-12.4761c-7.8377,-1.9246 -16.8384,3.5596 -24.0376,0.4549c-3.3335,-1.4503 -6.4173,-7.9769 -4.4899,-11.5013c2.6775,-4.8033 11.6968,-0.6992 15.0029,-5.4583c2.1059,-3.1606 -2.3139,-7.5532 -1.9712,-11.5013c-0.4489,-4.6318 -1.9591,-11.708 1.6427,-13.6457c6.6692,-3.5947 14.9635,2.2301 22.0116,0c8.4882,-2.7226 14.6788,-12.2109 23.1068,-15.2052z" fill="url(#color-6)" stroke="none" stroke-width="1.20171" stroke-linecap="round"/><path d="M181.94562,275.22657c11.9314,-2.9624 25.5788,-4.3515 37.3805,0.6931c4.1469,2.0143 -1.3854,12.1991 1.4602,16.4965c1.5688,2.3677 5.5335,-3.7886 7.5345,-1.4556c8.0064,8.0625 19.5734,16.9401 19.6248,29.666c0.0537,13.078 -9.2541,26.5067 -19.3433,32.0947c-14.1275,7.8088 -31.2092,3.8163 -46.7736,2.7004c-14.5445,-1.0425 -28.6743,-6.1273 -43.046,-9.0107c-7.128,-1.1118 -15.1858,1.1492 -21.4938,-2.9804c-3.8397,-2.5133 -6.0334,-9.2298 -4.9646,-14.4865c1.5583,-6.1092 11.2259,-5.8333 12.9664,-11.9911c1.7791,-6.3033 -6.1222,-13.7836 -3.9717,-20.5166c1.6284,-4.5705 7.9854,-4.2143 12.4991,-4.9906c7.7355,-1.3183 15.9615,2.3788 23.4797,0c9.0542,-2.9042 15.4615,-13.9388 24.6478,-16.2192z" fill="url(#color-7)" stroke="none" stroke-width="1.28185" stroke-linecap="round"/><path d="M184.10972,282.10897c5.1579,-1.8207 10.8492,-2.0078 14.7291,1.2996c3.2744,2.3705 1.14,8.576 2.6283,12.476c1.1466,3.0112 2.7859,6.8294 5.366,9.0322c2.4049,1.5855 5.469,1.1813 8.4871,1.4945c4.8108,0.4614 10.34,-3.0085 14.5101,-0.4549c6.8784,4.0262 16.7234,9.821 16.1528,18.7141c-0.7972,12.411 -13.3811,19.1897 -19.6571,29.2407c-1.3382,2.5823 3.6774,0.6524 1.5233,0.8473c-8.6097,0.7759 -15.9119,2.5849 -24.0277,2.2067c-9.9907,-0.733 -19.5783,-2.1612 -30.0059,-5.5232c-7.5114,-2.5082 -13.2234,-10.5748 -20.9713,-12.4761c-7.8377,-1.9246 -16.8384,3.5596 -24.0376,0.4549c-3.3335,-1.4503 -6.4173,-7.9769 -4.4899,-11.5013c2.6775,-4.8033 11.6968,-0.6992 15.0029,-5.4583c2.1059,-3.1606 -2.3139,-7.5532 -1.9712,-11.5013c-0.4489,-4.6318 -1.9591,-11.708 1.6427,-13.6457c6.6692,-3.5947 14.9635,2.2301 22.0116,0c8.4882,-2.7226 14.6788,-12.2109 23.1068,-15.2052z" fill="url(#color-8)" stroke="none" stroke-width="1.20171" stroke-linecap="round"/></g></g></svg>