<svg version="1.1" xmlns="http://www.w3.org/2000/svg" xmlns:xlink="http://www.w3.org/1999/xlink" width="45" height="80" viewBox="0,0,45,80"><defs><linearGradient x1="240" y1="140" x2="240" y2="220" gradientUnits="userSpaceOnUse" id="color-1"><stop offset="0" stop-color="#ffe13a"/><stop offset="1" stop-color="#ffb600"/></linearGradient></defs><g transform="translate(-217.5,-140)"><g data-paper-data="{&quot;isPaintingLayer&quot;:true}" fill-rule="nonzero" stroke-linecap="butt" stroke-linejoin="miter" stroke-miterlimit="10" stroke-dasharray="" stroke-dashoffset="0" style="mix-blend-mode: normal"><path d="M262.5,180c0,22.09139 -10.07359,40 -22.5,40c-12.42641,0 -22.5,-17.90861 -22.5,-40c0,-22.09139 10.07359,-40 22.5,-40c12.42641,0 22.5,17.90861 22.5,40z" fill="url(#color-1)" stroke="none" stroke-width="0"/><path d="M254,180c0,15.70943 -6.26801,28.44444 -14,28.44444c-7.73199,0 -14,-12.73501 -14,-28.44444c0,-15.70943 6.26801,-28.44444 14,-28.44444c7.73199,0 14,12.73501 14,28.44444z" fill="#ffe13a" stroke="#ff6f05" stroke-width="5"/></g></g></svg>