<svg version="1.1" xmlns="http://www.w3.org/2000/svg" xmlns:xlink="http://www.w3.org/1999/xlink" width="134.58113" height="207.88201" viewBox="0,0,134.58113,207.88201"><defs><linearGradient x1="172.70944" y1="180" x2="307.29056" y2="180" gradientUnits="userSpaceOnUse" id="color-1"><stop offset="0" stop-color="#c4c4c4"/><stop offset="1" stop-color="#353535"/></linearGradient></defs><g transform="translate(-172.70944,-76.05899)"><g data-paper-data="{&quot;isPaintingLayer&quot;:true}" fill="url(#color-1)" fill-rule="nonzero" stroke="none" stroke-width="0.5" stroke-linecap="butt" stroke-linejoin="miter" stroke-miterlimit="10" stroke-dasharray="" stroke-dashoffset="0" style="mix-blend-mode: normal"><path d="M274.19714,79.31034c3.68973,0.32095 7.25242,1.09167 10.52316,2.5183c4.09908,-0.36725 11.68719,-0.94534 15.08963,1.72794c2.13582,1.6781 4.58958,3.79675 4.9245,6.49222c0.32524,2.61759 -0.50911,4.71429 -1.9309,6.36209c3.39204,2.86347 5.72391,7.15215 3.78131,11.5515c-1.41304,3.20007 -3.12517,4.2391 -5.0231,4.69415c-0.94356,1.44714 -1.94463,2.81035 -2.78667,3.99808c3.29528,5.34048 0.9586,13.02159 -4.60979,16.63552c-1.02688,0.66645 -2.105,1.14772 -3.21822,1.48672c2.14373,5.7572 -0.35247,12.461 -6.96225,15.33635c-1.85228,0.80577 -3.86718,1.08325 -5.93253,1.11512c3.24484,4.40024 2.32086,9.53522 -0.86834,13.63361c6.79682,-0.99479 12.78295,-2.18275 19.61623,0.26355c7.01601,2.51171 12.28493,7.98029 6.58929,15.73321c-1.85833,2.52956 -4.21873,3.0482 -6.66933,3.04974c1.08693,4.61994 -1.38008,9.34934 -4.84908,12.07494c-4.00316,3.14528 -8.46183,2.80953 -13.12289,3.17941c-1.42353,0.11296 -2.8442,0.25024 -4.26299,0.40399c2.28291,1.73108 6.66033,5.03585 7.08339,6.69035c0.9023,3.52866 -0.53033,7.23703 -2.99227,9.99839c0.37434,0.23766 0.73232,0.47836 1.07056,0.71912c0.8438,0.60061 1.54838,1.2826 2.15872,2.02546l2.53143,1.95828c1.50539,1.14124 2.47774,2.9489 2.47774,4.98366c0,3.38378 -2.68906,6.1395 -6.04679,6.24676l-1.89124,0.07005c2.48185,4.79973 1.21257,10.36408 -5.04262,13.39322c-3.98206,1.92836 -4.84136,0.38298 -7.36811,-0.17494c4.16045,3.62006 5.85993,9.84016 1.84744,14.7235c-3.53643,4.30395 -5.3897,2.27439 -8.96919,2.62788c-0.694,0.06854 -1.3707,0.23794 -2.04318,0.43295c1.68939,2.44538 3.14175,5.40346 2.52385,8.17834c-0.57629,2.58803 -4.21198,3.23295 -6.44901,4.65622c-3.32174,2.11339 -6.85517,3.24972 -9.85451,6.0663c0,0 -4.59721,4.23417 -8.83138,-0.36304c-4.23417,-4.59721 0.36304,-8.83138 0.36304,-8.83138c0.58624,-0.53283 1.18749,-1.05627 1.80288,-1.56711c-1.39325,0.10381 -2.78759,0.21802 -4.22606,0.06841c-6.5132,-0.67743 -12.75334,-4.44767 -11.20161,-12.34c0.06435,-0.32729 0.16556,-0.63848 0.29591,-0.93693c-0.94287,-0.00761 -1.83613,-0.06436 -2.62992,-0.17781c-6.38811,-0.91298 -14.41895,-4.96159 -12.04032,-13.31635c0.24295,-0.85335 0.7294,-1.58547 1.35173,-2.23362c-0.09557,0.00444 -0.19165,0.00884 -0.28826,0.01321c-1.31912,0.05972 -2.63702,0.64708 -3.9386,0.42451c-2.31063,-0.39512 -4.97548,-0.61502 -6.66689,-2.23806c-3.5402,-3.39711 -3.68224,-8.31823 -1.80366,-12.33942c-0.25555,-0.04702 -0.49532,-0.11082 -0.71438,-0.19503c-2.67629,-1.02875 -6.61019,-1.43272 -7.53635,-4.14622c-2.45249,-7.18538 2.17389,-10.14865 6.42004,-12.89183c-3.26183,-4.48533 -3.22574,-8.71608 -0.9328,-12.13731c-3.16704,0.15502 -6.27398,-0.31335 -9.24453,-2.51656c-4.70726,-3.4913 -7.75434,-11.30888 -3.86205,-16.59104c1.45945,-1.98059 4.01335,-2.93439 6.29661,-3.85062c0.40874,-0.16402 0.83418,-0.26218 1.26915,-0.32241c-1.36973,-2.11396 -3.43942,-4.29398 -3.02175,-6.71283c0.32921,-1.90656 0.9804,-3.30586 1.8519,-4.35747c-2.52307,-0.39939 -4.844,-1.04229 -6.39941,-1.97484c-1.49225,-0.89468 -2.6097,-2.32304 -3.71431,-3.66733c-1.2203,-1.48508 -2.91701,-2.88224 -3.22636,-4.77931c-1.61924,-9.92996 7.74101,-13.81257 15.27283,-15.57885c0.16078,0.00672 0.32156,0.01356 0.48233,0.02052c-0.08773,-0.97275 -0.06691,-1.96643 -0.01745,-2.91713c0.04594,-0.88307 0.27164,-1.73614 0.5543,-2.57971c-2.44512,-0.08237 -4.82127,-0.57695 -6.99395,-2.23399c-5.2721,-4.02087 -7.74674,-7.52956 -2.55549,-14.44503c0.36919,-0.49182 1.30504,-0.91227 2.46496,-1.26723c-1.13403,-0.51525 -2.12779,-1.11859 -2.79431,-1.76767c-1.41581,-1.37876 -2.06625,-3.36936 -3.09938,-5.05404c-1.0672,-6.74761 -1.5477,-12.03482 5.35137,-16.04867c1.77629,-1.03344 3.92999,-1.32993 5.977,-1.51144c0.31864,-0.02825 0.63767,-0.04323 0.95686,-0.04662c0.28023,-0.34874 0.57562,-0.71063 0.88573,-1.08669c2.55464,-3.09799 4.59972,-2.17681 7.83815,-2.93002c3.69075,-0.85842 7.23247,-2.42541 10.9954,-3.16031c2.05543,-0.40142 4.20547,0.06789 6.27863,-0.22862c3.92134,-0.56083 7.97515,-3.65982 11.62636,-5.08328c7.86879,-1.68951 16.13102,-1.82497 24.14465,-1.8134c2.86629,0.00414 5.73375,-0.55574 8.59208,-0.34212c2.46363,0.18412 4.80791,1.16704 7.25101,1.53396c2.92921,0.43993 5.44118,1.02553 8.09204,1.66877zM216.65007,170.8337c-2.45003,0.17071 -4.88319,0.42922 -7.31487,0.71916c0.60802,0.02509 1.20405,0.05571 1.78059,0.09954c1.84146,0.13999 3.6898,-0.27815 5.53428,-0.8187zM198.46381,151.73365c-3.05028,-0.25224 -6.10466,-0.47535 -9.17036,-0.68148c-0.64857,0.15399 -1.32275,0.22475 -1.94572,0.46196c-0.24232,0.09227 -0.53156,0.32595 -0.8166,0.56789c0.81916,0.34958 1.99655,-0.24194 2.94641,-0.13333c0.60091,0.06871 4.67688,0.79661 5.81463,0.6053c1.05439,-0.1773 2.11099,-0.47427 3.17164,-0.82034zM204.23304,135.8431c1.73781,0.285 3.62651,0.20408 5.31147,-0.2324c-0.4988,-0.38292 -1.00075,-0.70065 -1.57353,-0.58856c-1.23286,0.24126 -2.48922,0.51086 -3.73794,0.82096zM285.15206,104.71395c-0.10916,0.00124 -0.21821,0.00279 -0.32718,0.00462c0.01711,0.0395 0.03407,0.07917 0.05087,0.119c0.09213,-0.04116 0.18423,-0.08237 0.2763,-0.12362z"/></g></g></svg>