<svg version="1.1" xmlns="http://www.w3.org/2000/svg" xmlns:xlink="http://www.w3.org/1999/xlink" width="88.30425" height="64.76665" viewBox="0,0,88.30425,64.76665"><defs><radialGradient cx="255.11488" cy="180" r="28.63332" gradientUnits="userSpaceOnUse" id="color-1"><stop offset="0" stop-color="#001bff"/><stop offset="1" stop-color="#00a9ff"/></radialGradient><radialGradient cx="241.13026" cy="180" r="28.63332" gradientUnits="userSpaceOnUse" id="color-2"><stop offset="0" stop-color="#001bff"/><stop offset="1" stop-color="#00a9ff"/></radialGradient><radialGradient cx="222.62459" cy="180" r="28.63333" gradientUnits="userSpaceOnUse" id="color-3"><stop offset="0" stop-color="#001bff"/><stop offset="1" stop-color="#00a9ff"/></radialGradient><radialGradient cx="208.63997" cy="180" r="28.63332" gradientUnits="userSpaceOnUse" id="color-4"><stop offset="0" stop-color="#001bff"/><stop offset="1" stop-color="#00a9ff"/></radialGradient><radialGradient cx="271.36003" cy="180" r="28.63332" gradientUnits="userSpaceOnUse" id="color-5"><stop offset="0" stop-color="#001bff"/><stop offset="1" stop-color="#00a9ff"/></radialGradient></defs><g transform="translate(-195.84787,-147.61667)"><g data-paper-data="{&quot;isPaintingLayer&quot;:true}" fill="none" fill-rule="nonzero" stroke-width="7.5" stroke-linecap="butt" stroke-linejoin="miter" stroke-miterlimit="10" stroke-dasharray="" stroke-dashoffset="0" style="mix-blend-mode: normal"><path d="M264.15698,180c0,15.81375 -4.04829,28.63332 -9.0421,28.63332c-4.99382,0 -9.0421,-12.81958 -9.0421,-28.63332c0,-15.81375 4.04829,-28.63332 9.0421,-28.63332c4.99382,0 9.0421,12.81958 9.0421,28.63332z" stroke="url(#color-1)"/><path d="M250.17236,180c0,15.81375 -4.04829,28.63332 -9.0421,28.63332c-4.99382,0 -9.0421,-12.81957 -9.0421,-28.63332c0,-15.81375 4.04828,-28.63332 9.0421,-28.63332c4.99381,0 9.0421,12.81957 9.0421,28.63332z" stroke="url(#color-2)"/><path d="M231.6667,180c0,15.81375 -4.04829,28.63333 -9.0421,28.63333c-4.99382,0 -9.0421,-12.81958 -9.0421,-28.63333c0,-15.81375 4.04828,-28.63333 9.0421,-28.63333c4.99382,0 9.0421,12.81958 9.0421,28.63333z" stroke="url(#color-3)"/><path d="M217.68207,180c0,15.81375 -4.04828,28.63332 -9.0421,28.63332c-4.99382,0 -9.0421,-12.81957 -9.0421,-28.63332c0,-15.81375 4.04828,-28.63332 9.0421,-28.63332c4.99382,0 9.0421,12.81957 9.0421,28.63332z" stroke="url(#color-4)"/><path d="M280.40213,180c0,15.81375 -4.04829,28.63332 -9.0421,28.63332c-4.99382,0 -9.0421,-12.81957 -9.0421,-28.63332c0,-15.81375 4.04828,-28.63332 9.0421,-28.63332c4.99381,0 9.0421,12.81957 9.0421,28.63332z" stroke="url(#color-5)"/></g></g></svg>