<svg version="1.1" xmlns="http://www.w3.org/2000/svg" xmlns:xlink="http://www.w3.org/1999/xlink" width="584.11261" height="415.5" viewBox="0,0,584.11261,415.5"><g transform="translate(42.84009,27.75)"><g data-paper-data="{&quot;isPaintingLayer&quot;:true}" fill-rule="nonzero" stroke-linejoin="miter" stroke-miterlimit="10" stroke-dasharray="" stroke-dashoffset="0" style="mix-blend-mode: normal"><path d="M-1.07594,360.04408v-360.08811h482.15188v360.08811z" fill-opacity="0.6" fill="#8c8c8c" stroke="none" stroke-width="0" stroke-linecap="butt"/><path d="M277.77252,164.75l-30.5,30.5" fill="none" stroke="#3b9bff" stroke-width="5" stroke-linecap="round"/><path d="M342.77252,154.75l-30.5,30.5" fill="none" stroke="#3b9bff" stroke-width="5" stroke-linecap="round"/><path d="M222.77252,109.75l-30.5,30.5" fill="none" stroke="#3b9bff" stroke-width="5" stroke-linecap="round"/><path d="M287.77252,99.75l-30.5,30.5" fill="none" stroke="#3b9bff" stroke-width="5" stroke-linecap="round"/><path d="M122.27252,190.25l30.5,-30.5" fill="none" stroke="#3b9bff" stroke-width="5" stroke-linecap="round"/><path d="M217.77252,149.75l-30.5,30.5" fill="none" stroke="#3b9bff" stroke-width="5" stroke-linecap="round"/><path d="M402.77252,244.75l-30.5,30.5" fill="none" stroke="#3b9bff" stroke-width="5" stroke-linecap="round"/><path d="M437.27252,265.25l30.5,-30.5" fill="none" stroke="#3b9bff" stroke-width="5" stroke-linecap="round"/><path d="M317.27252,220.25l30.5,-30.5" fill="none" stroke="#3b9bff" stroke-width="5" stroke-linecap="round"/><path d="M412.77252,179.75l-30.5,30.5" fill="none" stroke="#3b9bff" stroke-width="5" stroke-linecap="round"/><path d="M277.77252,239.75l-30.5,30.5" fill="none" stroke="#3b9bff" stroke-width="5" stroke-linecap="round"/><path d="M342.77252,229.75l-30.5,30.5" fill="none" stroke="#3b9bff" stroke-width="5" stroke-linecap="round"/><path d="M222.77252,274.75l-30.5,30.5" fill="none" stroke="#3b9bff" stroke-width="5" stroke-linecap="round"/><path d="M287.77252,264.75l-30.5,30.5" fill="none" stroke="#3b9bff" stroke-width="5" stroke-linecap="round"/><path d="M167.77252,219.75l-30.5,30.5" fill="none" stroke="#3b9bff" stroke-width="5" stroke-linecap="round"/><path d="M202.27252,240.25l30.5,-30.5" fill="none" stroke="#3b9bff" stroke-width="5" stroke-linecap="round"/><path d="M97.77252,269.75l-30.5,30.5" fill="none" stroke="#3b9bff" stroke-width="5" stroke-linecap="round"/><path d="M347.77252,354.75l-30.5,30.5" fill="none" stroke="#3b9bff" stroke-width="5" stroke-linecap="round"/><path d="M412.77252,344.75l-30.5,30.5" fill="none" stroke="#3b9bff" stroke-width="5" stroke-linecap="round"/><path d="M292.77252,299.75l-30.5,30.5" fill="none" stroke="#3b9bff" stroke-width="5" stroke-linecap="round"/><path d="M357.77252,289.75l-30.5,30.5" fill="none" stroke="#3b9bff" stroke-width="5" stroke-linecap="round"/><path d="M222.77252,349.75l-30.5,30.5" fill="none" stroke="#3b9bff" stroke-width="5" stroke-linecap="round"/><path d="M287.77252,339.75l-30.5,30.5" fill="none" stroke="#3b9bff" stroke-width="5" stroke-linecap="round"/><path d="M348.77252,39.75l-30.5,30.5" fill="none" stroke="#3b9bff" stroke-width="5" stroke-linecap="round"/><path d="M383.27252,60.25l30.5,-30.5" fill="none" stroke="#3b9bff" stroke-width="5" stroke-linecap="round"/><path d="M293.77252,-15.25l-30.5,30.5" fill="none" stroke="#3b9bff" stroke-width="5" stroke-linecap="round"/><path d="M358.77252,-25.25l-30.5,30.5" fill="none" stroke="#3b9bff" stroke-width="5" stroke-linecap="round"/><path d="M223.77252,34.75l-30.5,30.5" fill="none" stroke="#3b9bff" stroke-width="5" stroke-linecap="round"/><path d="M288.77252,24.75l-30.5,30.5" fill="none" stroke="#3b9bff" stroke-width="5" stroke-linecap="round"/><path d="M473.77252,119.75l-30.5,30.5" fill="none" stroke="#3b9bff" stroke-width="5" stroke-linecap="round"/><path d="M538.77252,109.75l-30.5,30.5" fill="none" stroke="#3b9bff" stroke-width="5" stroke-linecap="round"/><path d="M388.27252,95.25l30.5,-30.5" fill="none" stroke="#3b9bff" stroke-width="5" stroke-linecap="round"/><path d="M483.77252,54.75l-30.5,30.5" fill="none" stroke="#3b9bff" stroke-width="5" stroke-linecap="round"/><path d="M348.77252,114.75l-30.5,30.5" fill="none" stroke="#3b9bff" stroke-width="5" stroke-linecap="round"/><path d="M383.27252,135.25l30.5,-30.5" fill="none" stroke="#3b9bff" stroke-width="5" stroke-linecap="round"/><path d="M170.15991,169.75l-30.5,30.5" fill="none" stroke="#3b9bff" stroke-width="5" stroke-linecap="round"/><path d="M84.65991,145.25l30.5,-30.5" fill="none" stroke="#3b9bff" stroke-width="5" stroke-linecap="round"/><path d="M180.15991,104.75l-30.5,30.5" fill="none" stroke="#3b9bff" stroke-width="5" stroke-linecap="round"/><path d="M14.65991,195.25l30.5,-30.5" fill="none" stroke="#3b9bff" stroke-width="5" stroke-linecap="round"/><path d="M110.15991,154.75l-30.5,30.5" fill="none" stroke="#3b9bff" stroke-width="5" stroke-linecap="round"/><path d="M170.15991,244.75l-30.5,30.5" fill="none" stroke="#3b9bff" stroke-width="5" stroke-linecap="round"/><path d="M84.65991,310.25l30.5,-30.5" fill="none" stroke="#3b9bff" stroke-width="5" stroke-linecap="round"/><path d="M149.65991,300.25l30.5,-30.5" fill="none" stroke="#3b9bff" stroke-width="5" stroke-linecap="round"/><path d="M60.15991,224.75l-30.5,30.5" fill="none" stroke="#3b9bff" stroke-width="5" stroke-linecap="round"/><path d="M125.15991,214.75l-30.5,30.5" fill="none" stroke="#3b9bff" stroke-width="5" stroke-linecap="round"/><path d="M-9.84009,274.75l-30.5,30.5" fill="none" stroke="#3b9bff" stroke-width="5" stroke-linecap="round"/><path d="M24.65991,295.25l30.5,-30.5" fill="none" stroke="#3b9bff" stroke-width="5" stroke-linecap="round"/><path d="M185.15991,304.75l-30.5,30.5" fill="none" stroke="#3b9bff" stroke-width="5" stroke-linecap="round"/><path d="M115.15991,354.75l-30.5,30.5" fill="none" stroke="#3b9bff" stroke-width="5" stroke-linecap="round"/><path d="M149.65991,375.25l30.5,-30.5" fill="none" stroke="#3b9bff" stroke-width="5" stroke-linecap="round"/><path d="M186.15991,-10.25l-30.5,30.5" fill="none" stroke="#3b9bff" stroke-width="5" stroke-linecap="round"/><path d="M116.15991,39.75l-30.5,30.5" fill="none" stroke="#3b9bff" stroke-width="5" stroke-linecap="round"/><path d="M181.15991,29.75l-30.5,30.5" fill="none" stroke="#3b9bff" stroke-width="5" stroke-linecap="round"/></g></g></svg>