<svg version="1.1" xmlns="http://www.w3.org/2000/svg" xmlns:xlink="http://www.w3.org/1999/xlink" width="52.09294" height="58.53768" viewBox="0,0,52.09294,58.53768"><defs><linearGradient x1="238.93366" y1="179.75747" x2="238.93366" y2="209.52637" gradientUnits="userSpaceOnUse" id="color-1"><stop offset="0" stop-color="#ff0000"/><stop offset="1" stop-color="#fffb00"/></linearGradient></defs><g transform="translate(-212.7407,-151.98868)"><g data-paper-data="{&quot;isPaintingLayer&quot;:true}" fill-rule="nonzero" stroke-width="2" stroke-linejoin="miter" stroke-miterlimit="10" stroke-dasharray="" stroke-dashoffset="0" style="mix-blend-mode: normal"><path d="M224.57954,209.52637v-29.7689h28.70824v29.7689z" fill="url(#color-1)" stroke="#000000" stroke-linecap="butt"/><path d="M224.28658,182.28283c0,2.58859 -2.36078,4.68706 -5.27294,4.68706c-2.91216,0 -5.27294,-2.09847 -5.27294,-4.68706c0,-2.58859 2.36078,-4.68706 5.27294,-4.68706c2.91216,0 5.27294,2.09847 5.27294,4.68706z" fill="#00ffff" stroke="#000000" stroke-linecap="butt"/><path d="M263.83365,182.28283c0,2.58859 -2.36077,4.68706 -5.27294,4.68706c-2.91216,0 -5.27294,-2.09847 -5.27294,-4.68706c0,-2.58859 2.36078,-4.68705 5.27294,-4.68705c2.91217,0 5.27294,2.09846 5.27294,4.68705z" fill="#00ff55" stroke="#000000" stroke-linecap="butt"/><path d="M224.57954,179.64636v-26.65764h28.70824v26.65765z" fill="#003fff" stroke="#000000" stroke-linecap="butt"/><path d="M238.34775,170.27222v-7.03059" fill="#ffd499" stroke="#ff00bf" stroke-linecap="round"/><path d="M247.74189,163.26164v7.03059" fill="#ffd499" stroke="#7f00ff" stroke-linecap="round"/><path d="M223.95596,190.07073v-37.08204h29.33182v7.98178l-23.56555,0.04807l0.23094,29.05219z" fill="#ff40eb" stroke="#000000" stroke-linecap="butt"/></g></g></svg>