<svg version="1.1" xmlns="http://www.w3.org/2000/svg" xmlns:xlink="http://www.w3.org/1999/xlink" width="63.50741" height="39.66313" viewBox="0,0,63.50741,39.66313"><defs><linearGradient x1="209.81931" y1="158.9942" x2="209.81931" y2="198.65734" gradientUnits="userSpaceOnUse" id="color-1"><stop offset="0" stop-color="#ffffff"/><stop offset="1" stop-color="#cccccc"/></linearGradient><radialGradient cx="248.1038" cy="178.78556" r="37.40655" gradientUnits="userSpaceOnUse" id="color-2"><stop offset="0" stop-color="#ffffff"/><stop offset="1" stop-color="#cccccc"/></radialGradient></defs><g transform="translate(-209.81932,-158.9942)"><g data-paper-data="{&quot;isPaintingLayer&quot;:true}" fill-rule="nonzero" stroke="none" stroke-linecap="round" stroke-linejoin="miter" stroke-miterlimit="10" stroke-dasharray="" stroke-dashoffset="0" style="mix-blend-mode: normal"><path d="M242.48228,160.23811c5.576,-1.38444 11.95395,-2.03362 17.46934,0.32391c1.93801,0.94136 -0.64745,5.70111 0.68241,7.70945c0.73316,1.10652 2.58602,-1.77056 3.52116,-0.68026c3.7417,3.76792 9.1474,7.91676 9.17142,13.86406c0.0251,6.11185 -4.3248,12.3876 -9.03987,14.99908c-6.60232,3.64935 -14.58526,1.7835 -21.8591,1.262c-6.7972,-0.4872 -13.4006,-2.86352 -20.11705,-4.21105c-3.33119,-0.51959 -7.09691,0.53707 -10.04488,-1.39286c-1.79444,-1.17456 -2.81964,-4.31344 -2.32015,-6.7701c0.72825,-2.85506 5.24629,-2.72612 6.0597,-5.6039c0.83144,-2.94577 -2.86114,-6.4416 -1.85613,-9.58819c0.76101,-2.13597 3.73188,-1.9695 5.84131,-2.3323c3.6151,-0.61609 7.45942,1.1117 10.97296,0c4.23137,-1.35724 7.22575,-6.51414 11.51886,-7.57985z" fill="url(#color-1)" stroke-width="1.28185"/><path d="M243.49365,163.45452c2.41048,-0.85088 5.07025,-0.93832 6.88347,0.60735c1.53025,1.10783 0.53277,4.00789 1.22831,5.83051c0.53585,1.40725 1.30196,3.19164 2.50774,4.22109c1.1239,0.74096 2.55587,0.55207 3.96635,0.69844c2.24827,0.21563 4.83228,-1.40599 6.78113,-0.21259c3.21454,1.8816 7.81549,4.58973 7.54882,8.74582c-0.37256,5.80014 -6.2535,8.96808 -9.18652,13.6653c-0.62539,1.20681 1.71859,0.30489 0.7119,0.39598c-4.02364,0.36261 -7.43624,1.20802 -11.22907,1.03128c-4.66904,-0.34256 -9.14969,-1.01001 -14.02291,-2.5812c-3.51037,-1.17218 -6.1798,-4.94201 -9.80069,-5.83056c-3.66286,-0.89944 -7.86923,1.66354 -11.23369,0.21259c-1.55787,-0.67778 -2.99905,-3.72791 -2.0983,-5.375c1.2513,-2.24477 5.46636,-0.32676 7.01143,-2.55087c0.98417,-1.47707 -1.08137,-3.5299 -0.92122,-5.375c-0.20979,-2.16462 -0.91556,-5.4716 0.7677,-6.37716c3.11677,-1.67994 6.99302,1.04221 10.28686,0c3.96686,-1.27238 6.85997,-5.70662 10.79869,-7.10597z" fill="url(#color-2)" stroke-width="1.2017"/></g></g></svg>